G04 #@! TF.FileFunction,Soldermask,Top*
%FSLAX46Y46*%
G04 Gerber Fmt 4.6, Leading zero omitted, Abs format (unit mm)*
G04 Created by KiCad (PCBNEW 4.0.7-e2-6376~58~ubuntu16.04.1) date Sat Dec 30 18:25:35 2017*
%MOMM*%
%LPD*%
G01*
G04 APERTURE LIST*
%ADD10C,0.100000*%
%ADD11C,0.600000*%
%ADD12C,4.464000*%
%ADD13R,1.400000X1.650000*%
%ADD14R,1.650000X1.400000*%
%ADD15R,1.900000X1.900000*%
%ADD16R,5.480000X2.200000*%
%ADD17C,0.700000*%
%ADD18R,2.100000X2.100000*%
%ADD19O,2.100000X2.100000*%
%ADD20R,2.300000X3.900000*%
%ADD21C,2.100000*%
%ADD22C,2.400000*%
%ADD23R,1.314400X1.314400*%
%ADD24R,1.400760X1.901140*%
%ADD25R,2.398980X3.399740*%
%ADD26R,1.100000X1.700000*%
%ADD27R,1.200000X1.100000*%
%ADD28R,2.800000X1.100000*%
%ADD29R,1.700000X1.100000*%
%ADD30R,1.162000X0.908000*%
%ADD31R,1.500000X1.700000*%
%ADD32R,0.650000X1.500000*%
%ADD33O,2.400000X2.100000*%
%ADD34O,2.100000X2.400000*%
%ADD35C,3.399740*%
G04 APERTURE END LIST*
D10*
D11*
X162000000Y-65500000D03*
X161000000Y-65500000D03*
X160000000Y-65500000D03*
X159000000Y-65500000D03*
X158000000Y-65500000D03*
X157000000Y-65500000D03*
X156000000Y-65500000D03*
X155000000Y-65500000D03*
X154000000Y-65500000D03*
X153000000Y-65500000D03*
X163000000Y-64750000D03*
X165500000Y-64800000D03*
X165000000Y-65800000D03*
X164000000Y-66750000D03*
X163000000Y-67650000D03*
X162000000Y-67650000D03*
X161000000Y-67650000D03*
X160000000Y-67650000D03*
X159000000Y-67650000D03*
X158000000Y-67650000D03*
X157000000Y-67650000D03*
X156000000Y-67650000D03*
X155000000Y-67650000D03*
X154000000Y-67650000D03*
X153000000Y-67650000D03*
X152000000Y-65500000D03*
X150000000Y-67650000D03*
X150000000Y-65500000D03*
X149000000Y-65500000D03*
X149000000Y-68000000D03*
X152000000Y-67650000D03*
X148000000Y-66000000D03*
X127000000Y-77000000D03*
X126000000Y-75950000D03*
X125000000Y-75000000D03*
X124000000Y-74000000D03*
X123000000Y-73000000D03*
X122000000Y-72000000D03*
X121000000Y-71000000D03*
X120000000Y-70000000D03*
X119000000Y-69000000D03*
X118000000Y-69000000D03*
X117000000Y-69000000D03*
X116000000Y-69000000D03*
X116000000Y-71000000D03*
X117000000Y-71000000D03*
X118000000Y-71000000D03*
X119000000Y-72000000D03*
X120000000Y-73000000D03*
X121000000Y-74000000D03*
X123000000Y-76000000D03*
X122000000Y-75000000D03*
X124000000Y-77000000D03*
X127000000Y-83000000D03*
X126000000Y-83000000D03*
X125000000Y-83000000D03*
X124000000Y-83000000D03*
D12*
X196000000Y-102000000D03*
X104000000Y-102000000D03*
X104000000Y-54000000D03*
X104000000Y-126000000D03*
X196000000Y-126000000D03*
D13*
X135600000Y-89400000D03*
X137600000Y-89400000D03*
X117800000Y-82100000D03*
X115800000Y-82100000D03*
X164900000Y-80500000D03*
X166900000Y-80500000D03*
X165000000Y-84300000D03*
X167000000Y-84300000D03*
X121900000Y-91200000D03*
X119900000Y-91200000D03*
D14*
X108600000Y-89800000D03*
X108600000Y-87800000D03*
D13*
X141700000Y-92700000D03*
X143700000Y-92700000D03*
X122200000Y-83400000D03*
X120200000Y-83400000D03*
X128200000Y-91200000D03*
X130200000Y-91200000D03*
D14*
X124800000Y-97200000D03*
X124800000Y-95200000D03*
X126200000Y-79300000D03*
X126200000Y-81300000D03*
D13*
X112400000Y-82100000D03*
X110400000Y-82100000D03*
D15*
X118800000Y-96500000D03*
X143200000Y-83600000D03*
X136300000Y-83600000D03*
D16*
X102750000Y-78800000D03*
X102750000Y-75800000D03*
D17*
X100710000Y-81800000D03*
X104710000Y-81800000D03*
X103710000Y-81300000D03*
X103710000Y-82300000D03*
X102710000Y-81800000D03*
X101710000Y-81300000D03*
X101710000Y-82300000D03*
X100710000Y-75800000D03*
X104710000Y-75800000D03*
X103710000Y-75300000D03*
X103710000Y-76300000D03*
X102710000Y-75800000D03*
X101710000Y-75300000D03*
X101710000Y-76300000D03*
D16*
X102750000Y-81800000D03*
X102740000Y-63500000D03*
X102740000Y-60500000D03*
D17*
X100700000Y-66500000D03*
X104700000Y-66500000D03*
X103700000Y-66000000D03*
X103700000Y-67000000D03*
X102700000Y-66500000D03*
X101700000Y-66000000D03*
X101700000Y-67000000D03*
X100700000Y-60500000D03*
X104700000Y-60500000D03*
X103700000Y-60000000D03*
X103700000Y-61000000D03*
X102700000Y-60500000D03*
X101700000Y-60000000D03*
X101700000Y-61000000D03*
D16*
X102740000Y-66500000D03*
D18*
X142060000Y-53200000D03*
D19*
X144600000Y-53200000D03*
X147140000Y-53200000D03*
X149680000Y-53200000D03*
D15*
X114700000Y-96500000D03*
D20*
X157600000Y-74500000D03*
X163200000Y-74500000D03*
D21*
X131600000Y-83600000D03*
X131600000Y-86500000D03*
D22*
X113700000Y-67430000D03*
X143700000Y-67430000D03*
X113700000Y-64890000D03*
X113700000Y-69970000D03*
X143700000Y-64890000D03*
X143700000Y-69970000D03*
X113700000Y-72510000D03*
X143700000Y-72510000D03*
D23*
X148522000Y-94900000D03*
X150300000Y-94900000D03*
X149411000Y-96932000D03*
X135811000Y-92984000D03*
X137589000Y-92984000D03*
X136700000Y-95016000D03*
D24*
X124598860Y-88351660D03*
X126100000Y-88351660D03*
X127601140Y-88351660D03*
D25*
X126100000Y-85400180D03*
D10*
G36*
X127300760Y-86674650D02*
X126800380Y-87823950D01*
X125399620Y-87823950D01*
X124899240Y-86674650D01*
X127300760Y-86674650D01*
X127300760Y-86674650D01*
G37*
D23*
X163911000Y-89884000D03*
X165689000Y-89884000D03*
X164800000Y-91916000D03*
X163911000Y-95184000D03*
X165689000Y-95184000D03*
X164800000Y-97216000D03*
D26*
X150300000Y-91000000D03*
X148400000Y-91000000D03*
X143950000Y-96700000D03*
X145850000Y-96700000D03*
D27*
X104850000Y-93800000D03*
X106350000Y-93800000D03*
D28*
X105600000Y-95000000D03*
D26*
X139600000Y-96700000D03*
X141500000Y-96700000D03*
X122050000Y-87300000D03*
X120150000Y-87300000D03*
X141800000Y-89000000D03*
X143700000Y-89000000D03*
X123950000Y-91200000D03*
X125850000Y-91200000D03*
X138650000Y-83600000D03*
X140550000Y-83600000D03*
X159650000Y-96200000D03*
X161550000Y-96200000D03*
X159650000Y-90700000D03*
X161550000Y-90700000D03*
D29*
X194700000Y-93350000D03*
X194700000Y-95250000D03*
X194700000Y-91300000D03*
X194700000Y-89400000D03*
D22*
X156750000Y-112750000D03*
X163250000Y-112750000D03*
X156750000Y-117250000D03*
X163250000Y-117250000D03*
X115900000Y-117700000D03*
X122400000Y-117700000D03*
X115900000Y-122200000D03*
X122400000Y-122200000D03*
X173250000Y-127250000D03*
X166750000Y-127250000D03*
X173250000Y-122750000D03*
X166750000Y-122750000D03*
X173250000Y-107250000D03*
X166750000Y-107250000D03*
X173250000Y-102750000D03*
X166750000Y-102750000D03*
X135780000Y-122250000D03*
X129280000Y-122250000D03*
X135780000Y-117750000D03*
X129280000Y-117750000D03*
X183250000Y-117250000D03*
X176750000Y-117250000D03*
X183250000Y-112750000D03*
X176750000Y-112750000D03*
X149150000Y-122150000D03*
X142650000Y-122150000D03*
X149150000Y-117650000D03*
X142650000Y-117650000D03*
D30*
X159160000Y-80495000D03*
X159160000Y-82400000D03*
X161700000Y-81447500D03*
X159160000Y-81447500D03*
X161700000Y-82400000D03*
X161700000Y-80495000D03*
D31*
X104450000Y-87950000D03*
X104450000Y-90250000D03*
X106350000Y-90250000D03*
X106350000Y-87950000D03*
D30*
X115330000Y-85347500D03*
X115330000Y-87252500D03*
X117870000Y-85347500D03*
X115330000Y-86300000D03*
X117870000Y-87252500D03*
D32*
X110900000Y-91850000D03*
X111400000Y-91850000D03*
X111900000Y-91850000D03*
X112400000Y-91850000D03*
X112900000Y-91850000D03*
X112916000Y-87150000D03*
X112408000Y-87150000D03*
X111900000Y-87150000D03*
X111392000Y-87150000D03*
X110884000Y-87150000D03*
D30*
X127360000Y-95300000D03*
X127360000Y-97205000D03*
X129900000Y-96252500D03*
X127360000Y-96252500D03*
X129900000Y-97205000D03*
X129900000Y-95300000D03*
D22*
X112800000Y-112710000D03*
X112800000Y-110170000D03*
X112800000Y-107630000D03*
X112800000Y-105090000D03*
D33*
X191100000Y-94120000D03*
X175900000Y-94120000D03*
X191100000Y-91580000D03*
X175900000Y-91580000D03*
X191100000Y-89040000D03*
X175900000Y-89040000D03*
X191100000Y-86500000D03*
X175900000Y-86500000D03*
X191100000Y-83960000D03*
X175900000Y-83960000D03*
X191100000Y-81420000D03*
X175900000Y-81420000D03*
X191100000Y-78880000D03*
X175900000Y-78880000D03*
X191100000Y-76340000D03*
X175900000Y-76340000D03*
X191100000Y-73800000D03*
X175900000Y-73800000D03*
X191100000Y-71260000D03*
X175900000Y-71260000D03*
X191100000Y-68720000D03*
X175900000Y-68720000D03*
X191100000Y-66180000D03*
X175900000Y-66180000D03*
X191100000Y-63640000D03*
X175900000Y-63640000D03*
X191100000Y-61100000D03*
X175900000Y-61100000D03*
X191100000Y-58560000D03*
X175900000Y-58560000D03*
D34*
X186040000Y-94120000D03*
X183500000Y-94120000D03*
X180960000Y-94120000D03*
D35*
X159320000Y-58000000D03*
X169480000Y-58000000D03*
D21*
X164400000Y-63080000D03*
X161860000Y-63080000D03*
D12*
X196000000Y-54000000D03*
D18*
X121480000Y-53200000D03*
D19*
X124020000Y-53200000D03*
X126560000Y-53200000D03*
X129100000Y-53200000D03*
X131640000Y-53200000D03*
X134180000Y-53200000D03*
D18*
X196700000Y-75480000D03*
D19*
X196700000Y-72940000D03*
X196700000Y-70400000D03*
X196700000Y-67860000D03*
X196700000Y-65320000D03*
X196700000Y-62780000D03*
D11*
X124000000Y-84000000D03*
M02*
