M48
;DRILL file {KiCad 4.0.7-e2-6376~58~ubuntu16.04.1} date Sat Dec 30 18:25:42 2017
;FORMAT={-:-/ absolute / inch / decimal}
FMAT,2
INCH,TZ
T1C0.006
T2C0.008
T3C0.016
T4C0.031
T5C0.035
T6C0.039
T7C0.079
T8C0.120
%
G90
G05
M72
T1
X4.5669Y-2.7165
X4.5669Y-2.7953
X4.6063Y-2.7165
X4.6063Y-2.7953
X4.6457Y-2.7165
X4.6457Y-2.7953
X4.685Y-2.7165
X4.685Y-2.8346
X4.7244Y-2.7559
X4.7244Y-2.874
X4.7638Y-2.7953
X4.7638Y-2.9134
X4.8031Y-2.8346
X4.8031Y-2.9528
X4.8425Y-2.874
X4.8425Y-2.9921
X4.8819Y-2.9134
X4.8819Y-3.0315
X4.8819Y-3.2677
X4.8819Y-3.3071
X4.9213Y-2.9528
X4.9213Y-3.2677
X4.9606Y-2.9902
X4.9606Y-3.2677
X5.Y-3.0315
X5.Y-3.2677
X5.8268Y-2.5984
X5.8661Y-2.5787
X5.8661Y-2.6772
X5.9055Y-2.5787
X5.9055Y-2.6634
X5.9843Y-2.5787
X5.9843Y-2.6634
X6.0236Y-2.5787
X6.0236Y-2.6634
X6.063Y-2.5787
X6.063Y-2.6634
X6.1024Y-2.5787
X6.1024Y-2.6634
X6.1417Y-2.5787
X6.1417Y-2.6634
X6.1811Y-2.5787
X6.1811Y-2.6634
X6.2205Y-2.5787
X6.2205Y-2.6634
X6.2598Y-2.5787
X6.2598Y-2.6634
X6.2992Y-2.5787
X6.2992Y-2.6634
X6.3386Y-2.5787
X6.3386Y-2.6634
X6.378Y-2.5787
X6.378Y-2.6634
X6.4173Y-2.5492
X6.4173Y-2.6634
X6.4567Y-2.628
X6.4961Y-2.5906
X6.5157Y-2.5512
T2
X3.9646Y-2.3819
X3.9646Y-2.6181
X3.965Y-2.9843
X3.965Y-3.2205
X4.0039Y-2.3622
X4.0039Y-2.4016
X4.0039Y-2.5984
X4.0039Y-2.6378
X4.0043Y-2.9646
X4.0043Y-3.0039
X4.0043Y-3.2008
X4.0043Y-3.2402
X4.0433Y-2.3819
X4.0433Y-2.6181
X4.0437Y-2.9843
X4.0437Y-3.2205
X4.0827Y-2.3622
X4.0827Y-2.4016
X4.0827Y-2.5984
X4.0827Y-2.6378
X4.0831Y-2.9646
X4.0831Y-3.0039
X4.0831Y-3.2008
X4.0831Y-3.2402
X4.122Y-2.3819
X4.122Y-2.6181
X4.1224Y-2.9843
X4.1224Y-3.2205
T3
X4.2205Y-3.3661
X4.4252Y-3.1732
X4.685Y-3.3583
X4.8504Y-3.8268
X5.0157Y-3.7165
X5.0472Y-3.5354
X5.0551Y-3.9252
X5.1732Y-3.8268
X5.2205Y-2.2441
X5.2717Y-2.2913
X5.3386Y-3.4094
X5.4961Y-3.8701
X5.6693Y-2.2835
X5.7047Y-3.5039
X5.7205Y-3.3858
X6.1378Y-3.3445
X6.2441Y-3.7874
X6.2854Y-3.5118
X6.3386Y-4.3228
X6.3858Y-3.6811
X6.4016Y-3.5394
X6.5709Y-3.748
X6.8622Y-4.3228
X7.376Y-3.3071
X7.378Y-3.4528
T4
X4.5157Y-3.7992
X4.6772Y-3.7992
X5.1811Y-3.2913
X5.1811Y-3.4055
X5.3661Y-3.2913
X5.6378Y-3.2913
T5
X6.3724Y-2.4835
X6.4724Y-2.4835
T6
X4.4409Y-4.1374
X4.4409Y-4.2374
X4.4409Y-4.3374
X4.4409Y-4.4374
X4.4764Y-2.5547
X4.4764Y-2.6547
X4.4764Y-2.7547
X4.4764Y-2.8547
X4.563Y-4.6339
X4.563Y-4.811
X4.7827Y-2.0945
X4.8189Y-4.6339
X4.8189Y-4.811
X4.8827Y-2.0945
X4.9827Y-2.0945
X5.0827Y-2.0945
X5.0898Y-4.6358
X5.0898Y-4.813
X5.1827Y-2.0945
X5.2827Y-2.0945
X5.3457Y-4.6358
X5.3457Y-4.813
X5.5929Y-2.0945
X5.6161Y-4.6319
X5.6161Y-4.8091
X5.6575Y-2.5547
X5.6575Y-2.6547
X5.6575Y-2.7547
X5.6575Y-2.8547
X5.6929Y-2.0945
X5.7929Y-2.0945
X5.872Y-4.6319
X5.872Y-4.8091
X5.8929Y-2.0945
X6.1713Y-4.439
X6.1713Y-4.6161
X6.4272Y-4.439
X6.4272Y-4.6161
X6.565Y-4.0453
X6.565Y-4.2224
X6.565Y-4.8327
X6.565Y-5.0098
X6.8209Y-4.0453
X6.8209Y-4.2224
X6.8209Y-4.8327
X6.8209Y-5.0098
X6.9252Y-2.3055
X6.9252Y-2.4055
X6.9252Y-2.5055
X6.9252Y-2.6055
X6.9252Y-2.7055
X6.9252Y-2.8055
X6.9252Y-2.9055
X6.9252Y-3.0055
X6.9252Y-3.1055
X6.9252Y-3.2055
X6.9252Y-3.3055
X6.9252Y-3.4055
X6.9252Y-3.5055
X6.9252Y-3.6055
X6.9252Y-3.7055
X6.9587Y-4.439
X6.9587Y-4.6161
X7.1244Y-3.7055
X7.2146Y-4.439
X7.2146Y-4.6161
X7.2244Y-3.7055
X7.3244Y-3.7055
X7.5236Y-2.3055
X7.5236Y-2.4055
X7.5236Y-2.5055
X7.5236Y-2.6055
X7.5236Y-2.7055
X7.5236Y-2.8055
X7.5236Y-2.9055
X7.5236Y-3.0055
X7.5236Y-3.1055
X7.5236Y-3.2055
X7.5236Y-3.3055
X7.5236Y-3.4055
X7.5236Y-3.5055
X7.5236Y-3.6055
X7.5236Y-3.7055
X7.7441Y-2.4717
X7.7441Y-2.5717
X7.7441Y-2.6717
X7.7441Y-2.7717
X7.7441Y-2.8717
X7.7441Y-2.9717
T7
X6.2724Y-2.2835
X6.6724Y-2.2835
T8
X4.0945Y-2.126
X4.0945Y-4.0157
X4.0945Y-4.9606
X7.7165Y-2.126
X7.7165Y-4.0157
X7.7165Y-4.9606
T0
M30
