G04 #@! TF.FileFunction,Legend,Top*
%FSLAX46Y46*%
G04 Gerber Fmt 4.6, Leading zero omitted, Abs format (unit mm)*
G04 Created by KiCad (PCBNEW 4.0.7-e2-6376~58~ubuntu16.04.1) date Sat Dec 30 18:25:35 2017*
%MOMM*%
%LPD*%
G01*
G04 APERTURE LIST*
%ADD10C,0.100000*%
%ADD11C,0.200000*%
%ADD12C,0.150000*%
%ADD13C,0.250000*%
%ADD14C,0.275000*%
%ADD15C,0.400000*%
%ADD16C,0.381000*%
%ADD17C,0.120000*%
%ADD18C,0.119380*%
%ADD19C,0.127000*%
%ADD20C,0.002540*%
%ADD21C,0.129540*%
G04 APERTURE END LIST*
D10*
D11*
X186247618Y-119607143D02*
X186209523Y-119654762D01*
X186095237Y-119702381D01*
X186019047Y-119702381D01*
X185904761Y-119654762D01*
X185828570Y-119559524D01*
X185790475Y-119464286D01*
X185752380Y-119273810D01*
X185752380Y-119130952D01*
X185790475Y-118940476D01*
X185828570Y-118845238D01*
X185904761Y-118750000D01*
X186019047Y-118702381D01*
X186095237Y-118702381D01*
X186209523Y-118750000D01*
X186247618Y-118797619D01*
X186590475Y-119702381D02*
X186590475Y-119035714D01*
X186590475Y-119226190D02*
X186628570Y-119130952D01*
X186666666Y-119083333D01*
X186742856Y-119035714D01*
X186819047Y-119035714D01*
X187390475Y-119654762D02*
X187314285Y-119702381D01*
X187161904Y-119702381D01*
X187085713Y-119654762D01*
X187047618Y-119559524D01*
X187047618Y-119178571D01*
X187085713Y-119083333D01*
X187161904Y-119035714D01*
X187314285Y-119035714D01*
X187390475Y-119083333D01*
X187428570Y-119178571D01*
X187428570Y-119273810D01*
X187047618Y-119369048D01*
X188114284Y-119702381D02*
X188114284Y-119178571D01*
X188076189Y-119083333D01*
X187999999Y-119035714D01*
X187847618Y-119035714D01*
X187771427Y-119083333D01*
X188114284Y-119654762D02*
X188038094Y-119702381D01*
X187847618Y-119702381D01*
X187771427Y-119654762D01*
X187733332Y-119559524D01*
X187733332Y-119464286D01*
X187771427Y-119369048D01*
X187847618Y-119321429D01*
X188038094Y-119321429D01*
X188114284Y-119273810D01*
X188380951Y-119035714D02*
X188685713Y-119035714D01*
X188495237Y-118702381D02*
X188495237Y-119559524D01*
X188533332Y-119654762D01*
X188609523Y-119702381D01*
X188685713Y-119702381D01*
X188952380Y-119702381D02*
X188952380Y-119035714D01*
X188952380Y-118702381D02*
X188914285Y-118750000D01*
X188952380Y-118797619D01*
X188990475Y-118750000D01*
X188952380Y-118702381D01*
X188952380Y-118797619D01*
X189257142Y-119035714D02*
X189447618Y-119702381D01*
X189638094Y-119035714D01*
X190247618Y-119654762D02*
X190171428Y-119702381D01*
X190019047Y-119702381D01*
X189942856Y-119654762D01*
X189904761Y-119559524D01*
X189904761Y-119178571D01*
X189942856Y-119083333D01*
X190019047Y-119035714D01*
X190171428Y-119035714D01*
X190247618Y-119083333D01*
X190285713Y-119178571D01*
X190285713Y-119273810D01*
X189904761Y-119369048D01*
X191695237Y-119607143D02*
X191657142Y-119654762D01*
X191542856Y-119702381D01*
X191466666Y-119702381D01*
X191352380Y-119654762D01*
X191276189Y-119559524D01*
X191238094Y-119464286D01*
X191199999Y-119273810D01*
X191199999Y-119130952D01*
X191238094Y-118940476D01*
X191276189Y-118845238D01*
X191352380Y-118750000D01*
X191466666Y-118702381D01*
X191542856Y-118702381D01*
X191657142Y-118750000D01*
X191695237Y-118797619D01*
X192152380Y-119702381D02*
X192076189Y-119654762D01*
X192038094Y-119607143D01*
X191999999Y-119511905D01*
X191999999Y-119226190D01*
X192038094Y-119130952D01*
X192076189Y-119083333D01*
X192152380Y-119035714D01*
X192266666Y-119035714D01*
X192342856Y-119083333D01*
X192380951Y-119130952D01*
X192419047Y-119226190D01*
X192419047Y-119511905D01*
X192380951Y-119607143D01*
X192342856Y-119654762D01*
X192266666Y-119702381D01*
X192152380Y-119702381D01*
X192761904Y-119702381D02*
X192761904Y-119035714D01*
X192761904Y-119130952D02*
X192799999Y-119083333D01*
X192876190Y-119035714D01*
X192990476Y-119035714D01*
X193066666Y-119083333D01*
X193104761Y-119178571D01*
X193104761Y-119702381D01*
X193104761Y-119178571D02*
X193142857Y-119083333D01*
X193219047Y-119035714D01*
X193333333Y-119035714D01*
X193409523Y-119083333D01*
X193447618Y-119178571D01*
X193447618Y-119702381D01*
X193828571Y-119702381D02*
X193828571Y-119035714D01*
X193828571Y-119130952D02*
X193866666Y-119083333D01*
X193942857Y-119035714D01*
X194057143Y-119035714D01*
X194133333Y-119083333D01*
X194171428Y-119178571D01*
X194171428Y-119702381D01*
X194171428Y-119178571D02*
X194209524Y-119083333D01*
X194285714Y-119035714D01*
X194400000Y-119035714D01*
X194476190Y-119083333D01*
X194514285Y-119178571D01*
X194514285Y-119702381D01*
X195009524Y-119702381D02*
X194933333Y-119654762D01*
X194895238Y-119607143D01*
X194857143Y-119511905D01*
X194857143Y-119226190D01*
X194895238Y-119130952D01*
X194933333Y-119083333D01*
X195009524Y-119035714D01*
X195123810Y-119035714D01*
X195200000Y-119083333D01*
X195238095Y-119130952D01*
X195276191Y-119226190D01*
X195276191Y-119511905D01*
X195238095Y-119607143D01*
X195200000Y-119654762D01*
X195123810Y-119702381D01*
X195009524Y-119702381D01*
X195619048Y-119035714D02*
X195619048Y-119702381D01*
X195619048Y-119130952D02*
X195657143Y-119083333D01*
X195733334Y-119035714D01*
X195847620Y-119035714D01*
X195923810Y-119083333D01*
X195961905Y-119178571D01*
X195961905Y-119702381D01*
X196304763Y-119654762D02*
X196380953Y-119702381D01*
X196533334Y-119702381D01*
X196609525Y-119654762D01*
X196647620Y-119559524D01*
X196647620Y-119511905D01*
X196609525Y-119416667D01*
X196533334Y-119369048D01*
X196419049Y-119369048D01*
X196342858Y-119321429D01*
X196304763Y-119226190D01*
X196304763Y-119178571D01*
X196342858Y-119083333D01*
X196419049Y-119035714D01*
X196533334Y-119035714D01*
X196609525Y-119083333D01*
X184723811Y-121402381D02*
X184342858Y-121402381D01*
X184342858Y-120402381D01*
X184990477Y-121402381D02*
X184990477Y-120735714D01*
X184990477Y-120402381D02*
X184952382Y-120450000D01*
X184990477Y-120497619D01*
X185028572Y-120450000D01*
X184990477Y-120402381D01*
X184990477Y-120497619D01*
X185714286Y-121354762D02*
X185638096Y-121402381D01*
X185485715Y-121402381D01*
X185409524Y-121354762D01*
X185371429Y-121307143D01*
X185333334Y-121211905D01*
X185333334Y-120926190D01*
X185371429Y-120830952D01*
X185409524Y-120783333D01*
X185485715Y-120735714D01*
X185638096Y-120735714D01*
X185714286Y-120783333D01*
X186361905Y-121354762D02*
X186285715Y-121402381D01*
X186133334Y-121402381D01*
X186057143Y-121354762D01*
X186019048Y-121259524D01*
X186019048Y-120878571D01*
X186057143Y-120783333D01*
X186133334Y-120735714D01*
X186285715Y-120735714D01*
X186361905Y-120783333D01*
X186400000Y-120878571D01*
X186400000Y-120973810D01*
X186019048Y-121069048D01*
X186742857Y-120735714D02*
X186742857Y-121402381D01*
X186742857Y-120830952D02*
X186780952Y-120783333D01*
X186857143Y-120735714D01*
X186971429Y-120735714D01*
X187047619Y-120783333D01*
X187085714Y-120878571D01*
X187085714Y-121402381D01*
X187428572Y-121354762D02*
X187504762Y-121402381D01*
X187657143Y-121402381D01*
X187733334Y-121354762D01*
X187771429Y-121259524D01*
X187771429Y-121211905D01*
X187733334Y-121116667D01*
X187657143Y-121069048D01*
X187542858Y-121069048D01*
X187466667Y-121021429D01*
X187428572Y-120926190D01*
X187428572Y-120878571D01*
X187466667Y-120783333D01*
X187542858Y-120735714D01*
X187657143Y-120735714D01*
X187733334Y-120783333D01*
X188419048Y-121354762D02*
X188342858Y-121402381D01*
X188190477Y-121402381D01*
X188114286Y-121354762D01*
X188076191Y-121259524D01*
X188076191Y-120878571D01*
X188114286Y-120783333D01*
X188190477Y-120735714D01*
X188342858Y-120735714D01*
X188419048Y-120783333D01*
X188457143Y-120878571D01*
X188457143Y-120973810D01*
X188076191Y-121069048D01*
X189752381Y-120735714D02*
X189752381Y-121402381D01*
X189561905Y-120354762D02*
X189371429Y-121069048D01*
X189866667Y-121069048D01*
X190171429Y-121307143D02*
X190209524Y-121354762D01*
X190171429Y-121402381D01*
X190133334Y-121354762D01*
X190171429Y-121307143D01*
X190171429Y-121402381D01*
X190704762Y-120402381D02*
X190780953Y-120402381D01*
X190857143Y-120450000D01*
X190895238Y-120497619D01*
X190933334Y-120592857D01*
X190971429Y-120783333D01*
X190971429Y-121021429D01*
X190933334Y-121211905D01*
X190895238Y-121307143D01*
X190857143Y-121354762D01*
X190780953Y-121402381D01*
X190704762Y-121402381D01*
X190628572Y-121354762D01*
X190590476Y-121307143D01*
X190552381Y-121211905D01*
X190514286Y-121021429D01*
X190514286Y-120783333D01*
X190552381Y-120592857D01*
X190590476Y-120497619D01*
X190628572Y-120450000D01*
X190704762Y-120402381D01*
X192380953Y-121307143D02*
X192342858Y-121354762D01*
X192228572Y-121402381D01*
X192152382Y-121402381D01*
X192038096Y-121354762D01*
X191961905Y-121259524D01*
X191923810Y-121164286D01*
X191885715Y-120973810D01*
X191885715Y-120830952D01*
X191923810Y-120640476D01*
X191961905Y-120545238D01*
X192038096Y-120450000D01*
X192152382Y-120402381D01*
X192228572Y-120402381D01*
X192342858Y-120450000D01*
X192380953Y-120497619D01*
X193180953Y-121307143D02*
X193142858Y-121354762D01*
X193028572Y-121402381D01*
X192952382Y-121402381D01*
X192838096Y-121354762D01*
X192761905Y-121259524D01*
X192723810Y-121164286D01*
X192685715Y-120973810D01*
X192685715Y-120830952D01*
X192723810Y-120640476D01*
X192761905Y-120545238D01*
X192838096Y-120450000D01*
X192952382Y-120402381D01*
X193028572Y-120402381D01*
X193142858Y-120450000D01*
X193180953Y-120497619D01*
X193523810Y-121021429D02*
X194133334Y-121021429D01*
X194780953Y-120878571D02*
X194895239Y-120926190D01*
X194933334Y-120973810D01*
X194971429Y-121069048D01*
X194971429Y-121211905D01*
X194933334Y-121307143D01*
X194895239Y-121354762D01*
X194819048Y-121402381D01*
X194514286Y-121402381D01*
X194514286Y-120402381D01*
X194780953Y-120402381D01*
X194857143Y-120450000D01*
X194895239Y-120497619D01*
X194933334Y-120592857D01*
X194933334Y-120688095D01*
X194895239Y-120783333D01*
X194857143Y-120830952D01*
X194780953Y-120878571D01*
X194514286Y-120878571D01*
X195466667Y-120926190D02*
X195466667Y-121402381D01*
X195200000Y-120402381D02*
X195466667Y-120926190D01*
X195733334Y-120402381D01*
X196000000Y-121021429D02*
X196609524Y-121021429D01*
X196952381Y-121354762D02*
X197066667Y-121402381D01*
X197257143Y-121402381D01*
X197333333Y-121354762D01*
X197371429Y-121307143D01*
X197409524Y-121211905D01*
X197409524Y-121116667D01*
X197371429Y-121021429D01*
X197333333Y-120973810D01*
X197257143Y-120926190D01*
X197104762Y-120878571D01*
X197028571Y-120830952D01*
X196990476Y-120783333D01*
X196952381Y-120688095D01*
X196952381Y-120592857D01*
X196990476Y-120497619D01*
X197028571Y-120450000D01*
X197104762Y-120402381D01*
X197295238Y-120402381D01*
X197409524Y-120450000D01*
X197714286Y-121116667D02*
X198095238Y-121116667D01*
X197638095Y-121402381D02*
X197904762Y-120402381D01*
X198171429Y-121402381D01*
D12*
X101678572Y-74107143D02*
X101630953Y-74154762D01*
X101488096Y-74202381D01*
X101392858Y-74202381D01*
X101250000Y-74154762D01*
X101154762Y-74059524D01*
X101107143Y-73964286D01*
X101059524Y-73773810D01*
X101059524Y-73630952D01*
X101107143Y-73440476D01*
X101154762Y-73345238D01*
X101250000Y-73250000D01*
X101392858Y-73202381D01*
X101488096Y-73202381D01*
X101630953Y-73250000D01*
X101678572Y-73297619D01*
X102583334Y-74202381D02*
X102107143Y-74202381D01*
X102107143Y-73202381D01*
X102916667Y-74202381D02*
X102916667Y-73202381D01*
X103488096Y-74202381D02*
X103059524Y-73630952D01*
X103488096Y-73202381D02*
X102916667Y-73773810D01*
X104440477Y-74202381D02*
X103869048Y-74202381D01*
X104154762Y-74202381D02*
X104154762Y-73202381D01*
X104059524Y-73345238D01*
X103964286Y-73440476D01*
X103869048Y-73488095D01*
X101778572Y-58707143D02*
X101730953Y-58754762D01*
X101588096Y-58802381D01*
X101492858Y-58802381D01*
X101350000Y-58754762D01*
X101254762Y-58659524D01*
X101207143Y-58564286D01*
X101159524Y-58373810D01*
X101159524Y-58230952D01*
X101207143Y-58040476D01*
X101254762Y-57945238D01*
X101350000Y-57850000D01*
X101492858Y-57802381D01*
X101588096Y-57802381D01*
X101730953Y-57850000D01*
X101778572Y-57897619D01*
X102683334Y-58802381D02*
X102207143Y-58802381D01*
X102207143Y-57802381D01*
X103016667Y-58802381D02*
X103016667Y-57802381D01*
X103588096Y-58802381D02*
X103159524Y-58230952D01*
X103588096Y-57802381D02*
X103016667Y-58373810D01*
X103969048Y-57897619D02*
X104016667Y-57850000D01*
X104111905Y-57802381D01*
X104350001Y-57802381D01*
X104445239Y-57850000D01*
X104492858Y-57897619D01*
X104540477Y-57992857D01*
X104540477Y-58088095D01*
X104492858Y-58230952D01*
X103921429Y-58802381D01*
X104540477Y-58802381D01*
X174392857Y-96628571D02*
X174726191Y-96628571D01*
X174869048Y-97152381D02*
X174392857Y-97152381D01*
X174392857Y-96152381D01*
X174869048Y-96152381D01*
X175297619Y-97152381D02*
X175297619Y-96485714D01*
X175297619Y-96580952D02*
X175345238Y-96533333D01*
X175440476Y-96485714D01*
X175583334Y-96485714D01*
X175678572Y-96533333D01*
X175726191Y-96628571D01*
X175726191Y-97152381D01*
X175726191Y-96628571D02*
X175773810Y-96533333D01*
X175869048Y-96485714D01*
X176011905Y-96485714D01*
X176107143Y-96533333D01*
X176154762Y-96628571D01*
X176154762Y-97152381D01*
X176630952Y-96485714D02*
X176630952Y-97485714D01*
X176630952Y-96533333D02*
X176726190Y-96485714D01*
X176916667Y-96485714D01*
X177011905Y-96533333D01*
X177059524Y-96580952D01*
X177107143Y-96676190D01*
X177107143Y-96961905D01*
X177059524Y-97057143D01*
X177011905Y-97104762D01*
X176916667Y-97152381D01*
X176726190Y-97152381D01*
X176630952Y-97104762D01*
X177440476Y-96485714D02*
X177678571Y-97152381D01*
X177916667Y-96485714D02*
X177678571Y-97152381D01*
X177583333Y-97390476D01*
X177535714Y-97438095D01*
X177440476Y-97485714D01*
X178297619Y-97152381D02*
X178297619Y-96485714D01*
X178297619Y-96676190D02*
X178345238Y-96580952D01*
X178392857Y-96533333D01*
X178488095Y-96485714D01*
X178583334Y-96485714D01*
X179297620Y-97104762D02*
X179202382Y-97152381D01*
X179011905Y-97152381D01*
X178916667Y-97104762D01*
X178869048Y-97009524D01*
X178869048Y-96628571D01*
X178916667Y-96533333D01*
X179011905Y-96485714D01*
X179202382Y-96485714D01*
X179297620Y-96533333D01*
X179345239Y-96628571D01*
X179345239Y-96723810D01*
X178869048Y-96819048D01*
X180202382Y-97152381D02*
X180202382Y-96628571D01*
X180154763Y-96533333D01*
X180059525Y-96485714D01*
X179869048Y-96485714D01*
X179773810Y-96533333D01*
X180202382Y-97104762D02*
X180107144Y-97152381D01*
X179869048Y-97152381D01*
X179773810Y-97104762D01*
X179726191Y-97009524D01*
X179726191Y-96914286D01*
X179773810Y-96819048D01*
X179869048Y-96771429D01*
X180107144Y-96771429D01*
X180202382Y-96723810D01*
X180678572Y-96485714D02*
X180678572Y-97152381D01*
X180678572Y-96580952D02*
X180726191Y-96533333D01*
X180821429Y-96485714D01*
X180964287Y-96485714D01*
X181059525Y-96533333D01*
X181107144Y-96628571D01*
X181107144Y-97152381D01*
X165938095Y-65216667D02*
X166414286Y-65216667D01*
X165842857Y-65502381D02*
X166176190Y-64502381D01*
X166509524Y-65502381D01*
X166842857Y-64835714D02*
X166842857Y-65502381D01*
X166842857Y-64930952D02*
X166890476Y-64883333D01*
X166985714Y-64835714D01*
X167128572Y-64835714D01*
X167223810Y-64883333D01*
X167271429Y-64978571D01*
X167271429Y-65502381D01*
X167604762Y-64835714D02*
X167985714Y-64835714D01*
X167747619Y-64502381D02*
X167747619Y-65359524D01*
X167795238Y-65454762D01*
X167890476Y-65502381D01*
X167985714Y-65502381D01*
X168700001Y-65454762D02*
X168604763Y-65502381D01*
X168414286Y-65502381D01*
X168319048Y-65454762D01*
X168271429Y-65359524D01*
X168271429Y-64978571D01*
X168319048Y-64883333D01*
X168414286Y-64835714D01*
X168604763Y-64835714D01*
X168700001Y-64883333D01*
X168747620Y-64978571D01*
X168747620Y-65073810D01*
X168271429Y-65169048D01*
X169176191Y-64835714D02*
X169176191Y-65502381D01*
X169176191Y-64930952D02*
X169223810Y-64883333D01*
X169319048Y-64835714D01*
X169461906Y-64835714D01*
X169557144Y-64883333D01*
X169604763Y-64978571D01*
X169604763Y-65502381D01*
X170080953Y-64835714D02*
X170080953Y-65502381D01*
X170080953Y-64930952D02*
X170128572Y-64883333D01*
X170223810Y-64835714D01*
X170366668Y-64835714D01*
X170461906Y-64883333D01*
X170509525Y-64978571D01*
X170509525Y-65502381D01*
X171414287Y-65502381D02*
X171414287Y-64978571D01*
X171366668Y-64883333D01*
X171271430Y-64835714D01*
X171080953Y-64835714D01*
X170985715Y-64883333D01*
X171414287Y-65454762D02*
X171319049Y-65502381D01*
X171080953Y-65502381D01*
X170985715Y-65454762D01*
X170938096Y-65359524D01*
X170938096Y-65264286D01*
X170985715Y-65169048D01*
X171080953Y-65121429D01*
X171319049Y-65121429D01*
X171414287Y-65073810D01*
X141702381Y-85852381D02*
X141702381Y-84852381D01*
X142083334Y-84852381D01*
X142178572Y-84900000D01*
X142226191Y-84947619D01*
X142273810Y-85042857D01*
X142273810Y-85185714D01*
X142226191Y-85280952D01*
X142178572Y-85328571D01*
X142083334Y-85376190D01*
X141702381Y-85376190D01*
X142654762Y-85566667D02*
X143130953Y-85566667D01*
X142559524Y-85852381D02*
X142892857Y-84852381D01*
X143226191Y-85852381D01*
X143559524Y-85852381D02*
X143559524Y-84852381D01*
X144035714Y-85471429D02*
X144797619Y-85471429D01*
X144416667Y-85852381D02*
X144416667Y-85090476D01*
X134752381Y-85952381D02*
X134752381Y-84952381D01*
X135133334Y-84952381D01*
X135228572Y-85000000D01*
X135276191Y-85047619D01*
X135323810Y-85142857D01*
X135323810Y-85285714D01*
X135276191Y-85380952D01*
X135228572Y-85428571D01*
X135133334Y-85476190D01*
X134752381Y-85476190D01*
X135704762Y-85666667D02*
X136180953Y-85666667D01*
X135609524Y-85952381D02*
X135942857Y-84952381D01*
X136276191Y-85952381D01*
X136609524Y-85952381D02*
X136609524Y-84952381D01*
X137085714Y-85571429D02*
X137847619Y-85571429D01*
X117516667Y-98278571D02*
X117659524Y-98326190D01*
X117707143Y-98373810D01*
X117754762Y-98469048D01*
X117754762Y-98611905D01*
X117707143Y-98707143D01*
X117659524Y-98754762D01*
X117564286Y-98802381D01*
X117183333Y-98802381D01*
X117183333Y-97802381D01*
X117516667Y-97802381D01*
X117611905Y-97850000D01*
X117659524Y-97897619D01*
X117707143Y-97992857D01*
X117707143Y-98088095D01*
X117659524Y-98183333D01*
X117611905Y-98230952D01*
X117516667Y-98278571D01*
X117183333Y-98278571D01*
X118183333Y-98802381D02*
X118183333Y-98135714D01*
X118183333Y-97802381D02*
X118135714Y-97850000D01*
X118183333Y-97897619D01*
X118230952Y-97850000D01*
X118183333Y-97802381D01*
X118183333Y-97897619D01*
X119088095Y-98802381D02*
X119088095Y-98278571D01*
X119040476Y-98183333D01*
X118945238Y-98135714D01*
X118754761Y-98135714D01*
X118659523Y-98183333D01*
X119088095Y-98754762D02*
X118992857Y-98802381D01*
X118754761Y-98802381D01*
X118659523Y-98754762D01*
X118611904Y-98659524D01*
X118611904Y-98564286D01*
X118659523Y-98469048D01*
X118754761Y-98421429D01*
X118992857Y-98421429D01*
X119088095Y-98373810D01*
X119516666Y-98754762D02*
X119611904Y-98802381D01*
X119802380Y-98802381D01*
X119897619Y-98754762D01*
X119945238Y-98659524D01*
X119945238Y-98611905D01*
X119897619Y-98516667D01*
X119802380Y-98469048D01*
X119659523Y-98469048D01*
X119564285Y-98421429D01*
X119516666Y-98326190D01*
X119516666Y-98278571D01*
X119564285Y-98183333D01*
X119659523Y-98135714D01*
X119802380Y-98135714D01*
X119897619Y-98183333D01*
X120992857Y-97802381D02*
X121326190Y-98802381D01*
X121659524Y-97802381D01*
X113938096Y-97850000D02*
X113842858Y-97802381D01*
X113700001Y-97802381D01*
X113557143Y-97850000D01*
X113461905Y-97945238D01*
X113414286Y-98040476D01*
X113366667Y-98230952D01*
X113366667Y-98373810D01*
X113414286Y-98564286D01*
X113461905Y-98659524D01*
X113557143Y-98754762D01*
X113700001Y-98802381D01*
X113795239Y-98802381D01*
X113938096Y-98754762D01*
X113985715Y-98707143D01*
X113985715Y-98373810D01*
X113795239Y-98373810D01*
X114414286Y-98802381D02*
X114414286Y-97802381D01*
X114985715Y-98802381D01*
X114985715Y-97802381D01*
X115461905Y-98802381D02*
X115461905Y-97802381D01*
X115700000Y-97802381D01*
X115842858Y-97850000D01*
X115938096Y-97945238D01*
X115985715Y-98040476D01*
X116033334Y-98230952D01*
X116033334Y-98373810D01*
X115985715Y-98564286D01*
X115938096Y-98659524D01*
X115842858Y-98754762D01*
X115700000Y-98802381D01*
X115461905Y-98802381D01*
D13*
X115492857Y-129157143D02*
X115378571Y-129228571D01*
X115150000Y-129228571D01*
X115035714Y-129157143D01*
X114978571Y-129014286D01*
X114978571Y-128442857D01*
X115035714Y-128300000D01*
X115150000Y-128228571D01*
X115378571Y-128228571D01*
X115492857Y-128300000D01*
X115550000Y-128442857D01*
X115550000Y-128585714D01*
X114978571Y-128728571D01*
X115892857Y-128228571D02*
X116350000Y-128228571D01*
X116064285Y-127728571D02*
X116064285Y-129014286D01*
X116121428Y-129157143D01*
X116235714Y-129228571D01*
X116350000Y-129228571D01*
X116749999Y-129228571D02*
X116749999Y-127728571D01*
X117264285Y-129228571D02*
X117264285Y-128442857D01*
X117207142Y-128300000D01*
X117092856Y-128228571D01*
X116921428Y-128228571D01*
X116807142Y-128300000D01*
X116749999Y-128371429D01*
X118292856Y-129157143D02*
X118178570Y-129228571D01*
X117949999Y-129228571D01*
X117835713Y-129157143D01*
X117778570Y-129014286D01*
X117778570Y-128442857D01*
X117835713Y-128300000D01*
X117949999Y-128228571D01*
X118178570Y-128228571D01*
X118292856Y-128300000D01*
X118349999Y-128442857D01*
X118349999Y-128585714D01*
X117778570Y-128728571D01*
X118864284Y-129228571D02*
X118864284Y-128228571D01*
X118864284Y-128514286D02*
X118921427Y-128371429D01*
X118978570Y-128300000D01*
X119092856Y-128228571D01*
X119207141Y-128228571D01*
X119607141Y-129228571D02*
X119607141Y-127728571D01*
X119721427Y-128657143D02*
X120064284Y-129228571D01*
X120064284Y-128228571D02*
X119607141Y-128800000D01*
X120578570Y-129228571D02*
X120578570Y-128228571D01*
X120578570Y-127728571D02*
X120521427Y-127800000D01*
X120578570Y-127871429D01*
X120635713Y-127800000D01*
X120578570Y-127728571D01*
X120578570Y-127871429D01*
X120978571Y-128228571D02*
X121435714Y-128228571D01*
X121149999Y-127728571D02*
X121149999Y-129014286D01*
X121207142Y-129157143D01*
X121321428Y-129228571D01*
X121435714Y-129228571D01*
X121835713Y-129085714D02*
X121892856Y-129157143D01*
X121835713Y-129228571D01*
X121778570Y-129157143D01*
X121835713Y-129085714D01*
X121835713Y-129228571D01*
X122921428Y-129157143D02*
X122807142Y-129228571D01*
X122578571Y-129228571D01*
X122464285Y-129157143D01*
X122407142Y-129085714D01*
X122349999Y-128942857D01*
X122349999Y-128514286D01*
X122407142Y-128371429D01*
X122464285Y-128300000D01*
X122578571Y-128228571D01*
X122807142Y-128228571D01*
X122921428Y-128300000D01*
X123607142Y-129228571D02*
X123492856Y-129157143D01*
X123435713Y-129085714D01*
X123378570Y-128942857D01*
X123378570Y-128514286D01*
X123435713Y-128371429D01*
X123492856Y-128300000D01*
X123607142Y-128228571D01*
X123778570Y-128228571D01*
X123892856Y-128300000D01*
X123949999Y-128371429D01*
X124007142Y-128514286D01*
X124007142Y-128942857D01*
X123949999Y-129085714D01*
X123892856Y-129157143D01*
X123778570Y-129228571D01*
X123607142Y-129228571D01*
X124521427Y-129228571D02*
X124521427Y-128228571D01*
X124521427Y-128371429D02*
X124578570Y-128300000D01*
X124692856Y-128228571D01*
X124864284Y-128228571D01*
X124978570Y-128300000D01*
X125035713Y-128442857D01*
X125035713Y-129228571D01*
X125035713Y-128442857D02*
X125092856Y-128300000D01*
X125207142Y-128228571D01*
X125378570Y-128228571D01*
X125492856Y-128300000D01*
X125549999Y-128442857D01*
X125549999Y-129228571D01*
X126978570Y-127871429D02*
X127035713Y-127800000D01*
X127149999Y-127728571D01*
X127435713Y-127728571D01*
X127549999Y-127800000D01*
X127607142Y-127871429D01*
X127664285Y-128014286D01*
X127664285Y-128157143D01*
X127607142Y-128371429D01*
X126921428Y-129228571D01*
X127664285Y-129228571D01*
X128407142Y-127728571D02*
X128521427Y-127728571D01*
X128635713Y-127800000D01*
X128692856Y-127871429D01*
X128749999Y-128014286D01*
X128807142Y-128300000D01*
X128807142Y-128657143D01*
X128749999Y-128942857D01*
X128692856Y-129085714D01*
X128635713Y-129157143D01*
X128521427Y-129228571D01*
X128407142Y-129228571D01*
X128292856Y-129157143D01*
X128235713Y-129085714D01*
X128178570Y-128942857D01*
X128121427Y-128657143D01*
X128121427Y-128300000D01*
X128178570Y-128014286D01*
X128235713Y-127871429D01*
X128292856Y-127800000D01*
X128407142Y-127728571D01*
X129949999Y-129228571D02*
X129264284Y-129228571D01*
X129607142Y-129228571D02*
X129607142Y-127728571D01*
X129492856Y-127942857D01*
X129378570Y-128085714D01*
X129264284Y-128157143D01*
X130635713Y-128371429D02*
X130521427Y-128300000D01*
X130464284Y-128228571D01*
X130407141Y-128085714D01*
X130407141Y-128014286D01*
X130464284Y-127871429D01*
X130521427Y-127800000D01*
X130635713Y-127728571D01*
X130864284Y-127728571D01*
X130978570Y-127800000D01*
X131035713Y-127871429D01*
X131092856Y-128014286D01*
X131092856Y-128085714D01*
X131035713Y-128228571D01*
X130978570Y-128300000D01*
X130864284Y-128371429D01*
X130635713Y-128371429D01*
X130521427Y-128442857D01*
X130464284Y-128514286D01*
X130407141Y-128657143D01*
X130407141Y-128942857D01*
X130464284Y-129085714D01*
X130521427Y-129157143D01*
X130635713Y-129228571D01*
X130864284Y-129228571D01*
X130978570Y-129157143D01*
X131035713Y-129085714D01*
X131092856Y-128942857D01*
X131092856Y-128657143D01*
X131035713Y-128514286D01*
X130978570Y-128442857D01*
X130864284Y-128371429D01*
D14*
X106311905Y-58192857D02*
X106678571Y-58192857D01*
X106835714Y-58978571D02*
X106311905Y-58978571D01*
X106311905Y-57478571D01*
X106835714Y-57478571D01*
X107150000Y-57978571D02*
X107569048Y-57978571D01*
X107307143Y-57478571D02*
X107307143Y-58764286D01*
X107359524Y-58907143D01*
X107464286Y-58978571D01*
X107569048Y-58978571D01*
X107935714Y-58978571D02*
X107935714Y-57478571D01*
X108407142Y-58978571D02*
X108407142Y-58192857D01*
X108354761Y-58050000D01*
X108249999Y-57978571D01*
X108092857Y-57978571D01*
X107988095Y-58050000D01*
X107935714Y-58121429D01*
X109349999Y-58907143D02*
X109245237Y-58978571D01*
X109035714Y-58978571D01*
X108930952Y-58907143D01*
X108878571Y-58764286D01*
X108878571Y-58192857D01*
X108930952Y-58050000D01*
X109035714Y-57978571D01*
X109245237Y-57978571D01*
X109349999Y-58050000D01*
X109402380Y-58192857D01*
X109402380Y-58335714D01*
X108878571Y-58478571D01*
X109873809Y-58978571D02*
X109873809Y-57978571D01*
X109873809Y-58264286D02*
X109926190Y-58121429D01*
X109978571Y-58050000D01*
X110083333Y-57978571D01*
X110188094Y-57978571D01*
X110554761Y-58978571D02*
X110554761Y-57478571D01*
X110659523Y-58407143D02*
X110973808Y-58978571D01*
X110973808Y-57978571D02*
X110554761Y-58550000D01*
X111445237Y-58978571D02*
X111445237Y-57978571D01*
X111445237Y-57478571D02*
X111392856Y-57550000D01*
X111445237Y-57621429D01*
X111497618Y-57550000D01*
X111445237Y-57478571D01*
X111445237Y-57621429D01*
X111811904Y-57978571D02*
X112230952Y-57978571D01*
X111969047Y-57478571D02*
X111969047Y-58764286D01*
X112021428Y-58907143D01*
X112126190Y-58978571D01*
X112230952Y-58978571D01*
X113959522Y-58978571D02*
X113435713Y-58978571D01*
X113435713Y-57478571D01*
X114483332Y-58978571D02*
X114378570Y-58907143D01*
X114326189Y-58835714D01*
X114273808Y-58692857D01*
X114273808Y-58264286D01*
X114326189Y-58121429D01*
X114378570Y-58050000D01*
X114483332Y-57978571D01*
X114640474Y-57978571D01*
X114745236Y-58050000D01*
X114797617Y-58121429D01*
X114849998Y-58264286D01*
X114849998Y-58692857D01*
X114797617Y-58835714D01*
X114745236Y-58907143D01*
X114640474Y-58978571D01*
X114483332Y-58978571D01*
X115216665Y-57978571D02*
X115426189Y-58978571D01*
X115635712Y-58264286D01*
X115845236Y-58978571D01*
X116054760Y-57978571D01*
X116473808Y-58407143D02*
X117311903Y-58407143D01*
X117835713Y-58978571D02*
X117835713Y-57478571D01*
X118254760Y-57478571D01*
X118359522Y-57550000D01*
X118411903Y-57621429D01*
X118464284Y-57764286D01*
X118464284Y-57978571D01*
X118411903Y-58121429D01*
X118359522Y-58192857D01*
X118254760Y-58264286D01*
X117835713Y-58264286D01*
X119407141Y-58978571D02*
X119407141Y-58192857D01*
X119354760Y-58050000D01*
X119249998Y-57978571D01*
X119040475Y-57978571D01*
X118935713Y-58050000D01*
X119407141Y-58907143D02*
X119302379Y-58978571D01*
X119040475Y-58978571D01*
X118935713Y-58907143D01*
X118883332Y-58764286D01*
X118883332Y-58621429D01*
X118935713Y-58478571D01*
X119040475Y-58407143D01*
X119302379Y-58407143D01*
X119407141Y-58335714D01*
X119878570Y-58907143D02*
X119983332Y-58978571D01*
X120192856Y-58978571D01*
X120297617Y-58907143D01*
X120349998Y-58764286D01*
X120349998Y-58692857D01*
X120297617Y-58550000D01*
X120192856Y-58478571D01*
X120035713Y-58478571D01*
X119930951Y-58407143D01*
X119878570Y-58264286D01*
X119878570Y-58192857D01*
X119930951Y-58050000D01*
X120035713Y-57978571D01*
X120192856Y-57978571D01*
X120297617Y-58050000D01*
X120769046Y-58907143D02*
X120873808Y-58978571D01*
X121083332Y-58978571D01*
X121188093Y-58907143D01*
X121240474Y-58764286D01*
X121240474Y-58692857D01*
X121188093Y-58550000D01*
X121083332Y-58478571D01*
X120926189Y-58478571D01*
X120821427Y-58407143D01*
X120769046Y-58264286D01*
X120769046Y-58192857D01*
X120821427Y-58050000D01*
X120926189Y-57978571D01*
X121083332Y-57978571D01*
X121188093Y-58050000D01*
X122916664Y-58192857D02*
X122549998Y-58192857D01*
X122549998Y-58978571D02*
X122549998Y-57478571D01*
X123073807Y-57478571D01*
X123492855Y-58978571D02*
X123492855Y-57978571D01*
X123492855Y-57478571D02*
X123440474Y-57550000D01*
X123492855Y-57621429D01*
X123545236Y-57550000D01*
X123492855Y-57478571D01*
X123492855Y-57621429D01*
X124173808Y-58978571D02*
X124069046Y-58907143D01*
X124016665Y-58764286D01*
X124016665Y-57478571D01*
X124435712Y-57978571D02*
X124854760Y-57978571D01*
X124592855Y-57478571D02*
X124592855Y-58764286D01*
X124645236Y-58907143D01*
X124749998Y-58978571D01*
X124854760Y-58978571D01*
X125640473Y-58907143D02*
X125535711Y-58978571D01*
X125326188Y-58978571D01*
X125221426Y-58907143D01*
X125169045Y-58764286D01*
X125169045Y-58192857D01*
X125221426Y-58050000D01*
X125326188Y-57978571D01*
X125535711Y-57978571D01*
X125640473Y-58050000D01*
X125692854Y-58192857D01*
X125692854Y-58335714D01*
X125169045Y-58478571D01*
X126164283Y-58978571D02*
X126164283Y-57978571D01*
X126164283Y-58264286D02*
X126216664Y-58121429D01*
X126269045Y-58050000D01*
X126373807Y-57978571D01*
X126478568Y-57978571D01*
X127683330Y-58978571D02*
X127683330Y-57478571D01*
X128049996Y-58550000D01*
X128416663Y-57478571D01*
X128416663Y-58978571D01*
X129097616Y-58978571D02*
X128992854Y-58907143D01*
X128940473Y-58835714D01*
X128888092Y-58692857D01*
X128888092Y-58264286D01*
X128940473Y-58121429D01*
X128992854Y-58050000D01*
X129097616Y-57978571D01*
X129254758Y-57978571D01*
X129359520Y-58050000D01*
X129411901Y-58121429D01*
X129464282Y-58264286D01*
X129464282Y-58692857D01*
X129411901Y-58835714D01*
X129359520Y-58907143D01*
X129254758Y-58978571D01*
X129097616Y-58978571D01*
X130407139Y-58978571D02*
X130407139Y-57478571D01*
X130407139Y-58907143D02*
X130302377Y-58978571D01*
X130092854Y-58978571D01*
X129988092Y-58907143D01*
X129935711Y-58835714D01*
X129883330Y-58692857D01*
X129883330Y-58264286D01*
X129935711Y-58121429D01*
X129988092Y-58050000D01*
X130092854Y-57978571D01*
X130302377Y-57978571D01*
X130407139Y-58050000D01*
X131402377Y-57978571D02*
X131402377Y-58978571D01*
X130930949Y-57978571D02*
X130930949Y-58764286D01*
X130983330Y-58907143D01*
X131088092Y-58978571D01*
X131245234Y-58978571D01*
X131349996Y-58907143D01*
X131402377Y-58835714D01*
X132083330Y-58978571D02*
X131978568Y-58907143D01*
X131926187Y-58764286D01*
X131926187Y-57478571D01*
X132921424Y-58907143D02*
X132816662Y-58978571D01*
X132607139Y-58978571D01*
X132502377Y-58907143D01*
X132449996Y-58764286D01*
X132449996Y-58192857D01*
X132502377Y-58050000D01*
X132607139Y-57978571D01*
X132816662Y-57978571D01*
X132921424Y-58050000D01*
X132973805Y-58192857D01*
X132973805Y-58335714D01*
X132449996Y-58478571D01*
D15*
X115522620Y-124140476D02*
X115865477Y-124140476D01*
X116023214Y-124250000D01*
X116167262Y-124469048D01*
X116198214Y-124907143D01*
X116102381Y-125673810D01*
X115961905Y-126111905D01*
X115763095Y-126330952D01*
X115577977Y-126440476D01*
X115235120Y-126440476D01*
X115077381Y-126330952D01*
X114933333Y-126111905D01*
X114902381Y-125673810D01*
X114998214Y-124907143D01*
X115138690Y-124469048D01*
X115337500Y-124250000D01*
X115522620Y-124140476D01*
X116969642Y-124907143D02*
X116682142Y-127207143D01*
X116955952Y-125016667D02*
X117141071Y-124907143D01*
X117483928Y-124907143D01*
X117641667Y-125016667D01*
X117713690Y-125126190D01*
X117772023Y-125345238D01*
X117689880Y-126002381D01*
X117576785Y-126221429D01*
X117477381Y-126330952D01*
X117292262Y-126440476D01*
X116949405Y-126440476D01*
X116791666Y-126330952D01*
X119105952Y-126330952D02*
X118920833Y-126440476D01*
X118577976Y-126440476D01*
X118420237Y-126330952D01*
X118361904Y-126111905D01*
X118471428Y-125235714D01*
X118584523Y-125016667D01*
X118769642Y-124907143D01*
X119112499Y-124907143D01*
X119270238Y-125016667D01*
X119328571Y-125235714D01*
X119301190Y-125454762D01*
X118416666Y-125673810D01*
X120141070Y-124907143D02*
X119949404Y-126440476D01*
X120113689Y-125126190D02*
X120213095Y-125016667D01*
X120398213Y-124907143D01*
X120655356Y-124907143D01*
X120813095Y-125016667D01*
X120871428Y-125235714D01*
X120720833Y-126440476D01*
X122328570Y-125235714D02*
X122572022Y-125345238D01*
X122644047Y-125454762D01*
X122702380Y-125673810D01*
X122661308Y-126002381D01*
X122548213Y-126221429D01*
X122448808Y-126330952D01*
X122263690Y-126440476D01*
X121577975Y-126440476D01*
X121865475Y-124140476D01*
X122465475Y-124140476D01*
X122623213Y-124250000D01*
X122695237Y-124359524D01*
X122753571Y-124578571D01*
X122726190Y-124797619D01*
X122613094Y-125016667D01*
X122513689Y-125126190D01*
X122328570Y-125235714D01*
X121728570Y-125235714D01*
X124077380Y-126330952D02*
X123892261Y-126440476D01*
X123549404Y-126440476D01*
X123391665Y-126330952D01*
X123333332Y-126111905D01*
X123442856Y-125235714D01*
X123555951Y-125016667D01*
X123741070Y-124907143D01*
X124083927Y-124907143D01*
X124241666Y-125016667D01*
X124299999Y-125235714D01*
X124272618Y-125454762D01*
X123388094Y-125673810D01*
X125692261Y-126440476D02*
X125842856Y-125235714D01*
X125784523Y-125016667D01*
X125626784Y-124907143D01*
X125283927Y-124907143D01*
X125098808Y-125016667D01*
X125705951Y-126330952D02*
X125520832Y-126440476D01*
X125092261Y-126440476D01*
X124934522Y-126330952D01*
X124876189Y-126111905D01*
X124903570Y-125892857D01*
X125016665Y-125673810D01*
X125201784Y-125564286D01*
X125630355Y-125564286D01*
X125815475Y-125454762D01*
X127334522Y-126330952D02*
X127149403Y-126440476D01*
X126806546Y-126440476D01*
X126648808Y-126330952D01*
X126576783Y-126221429D01*
X126518450Y-126002381D01*
X126600593Y-125345238D01*
X126713688Y-125126190D01*
X126813094Y-125016667D01*
X126998212Y-124907143D01*
X127341069Y-124907143D01*
X127498808Y-125016667D01*
X128349403Y-126440476D02*
X128191665Y-126330952D01*
X128119640Y-126221429D01*
X128061307Y-126002381D01*
X128143450Y-125345238D01*
X128256545Y-125126190D01*
X128355951Y-125016667D01*
X128541069Y-124907143D01*
X128798212Y-124907143D01*
X128955951Y-125016667D01*
X129027974Y-125126190D01*
X129086307Y-125345238D01*
X129004164Y-126002381D01*
X128891069Y-126221429D01*
X128791665Y-126330952D01*
X128606546Y-126440476D01*
X128349403Y-126440476D01*
X129912497Y-124907143D02*
X129720831Y-126440476D01*
X129885116Y-125126190D02*
X129984522Y-125016667D01*
X130169640Y-124907143D01*
X130426783Y-124907143D01*
X130584522Y-125016667D01*
X130642855Y-125235714D01*
X130492260Y-126440476D01*
X132720831Y-126440476D02*
X133008331Y-124140476D01*
X133402973Y-125783333D01*
X134208331Y-124140476D01*
X133920831Y-126440476D01*
X134777974Y-126440476D02*
X134969640Y-124907143D01*
X135065474Y-124140476D02*
X134966069Y-124250000D01*
X135038093Y-124359524D01*
X135137498Y-124250000D01*
X135065474Y-124140476D01*
X135038093Y-124359524D01*
X135826783Y-124907143D02*
X135635117Y-126440476D01*
X135799402Y-125126190D02*
X135898808Y-125016667D01*
X136083926Y-124907143D01*
X136341069Y-124907143D01*
X136498808Y-125016667D01*
X136557141Y-125235714D01*
X136406546Y-126440476D01*
X137263688Y-126440476D02*
X137455354Y-124907143D01*
X137551188Y-124140476D02*
X137451783Y-124250000D01*
X137523807Y-124359524D01*
X137623212Y-124250000D01*
X137551188Y-124140476D01*
X137523807Y-124359524D01*
D11*
X124609523Y-56100000D02*
X124685714Y-56147619D01*
X124799999Y-56147619D01*
X124914285Y-56100000D01*
X124990476Y-56004762D01*
X125028571Y-55909524D01*
X125066666Y-55719048D01*
X125066666Y-55576190D01*
X125028571Y-55385714D01*
X124990476Y-55290476D01*
X124914285Y-55195238D01*
X124799999Y-55147619D01*
X124723809Y-55147619D01*
X124609523Y-55195238D01*
X124571428Y-55242857D01*
X124571428Y-55576190D01*
X124723809Y-55576190D01*
X124228571Y-55147619D02*
X124228571Y-56147619D01*
X123771428Y-55147619D01*
X123771428Y-56147619D01*
X123390476Y-55147619D02*
X123390476Y-56147619D01*
X123200000Y-56147619D01*
X123085714Y-56100000D01*
X123009523Y-56004762D01*
X122971428Y-55909524D01*
X122933333Y-55719048D01*
X122933333Y-55576190D01*
X122971428Y-55385714D01*
X123009523Y-55290476D01*
X123085714Y-55195238D01*
X123200000Y-55147619D01*
X123390476Y-55147619D01*
X129709523Y-56100000D02*
X129785714Y-56147619D01*
X129899999Y-56147619D01*
X130014285Y-56100000D01*
X130090476Y-56004762D01*
X130128571Y-55909524D01*
X130166666Y-55719048D01*
X130166666Y-55576190D01*
X130128571Y-55385714D01*
X130090476Y-55290476D01*
X130014285Y-55195238D01*
X129899999Y-55147619D01*
X129823809Y-55147619D01*
X129709523Y-55195238D01*
X129671428Y-55242857D01*
X129671428Y-55576190D01*
X129823809Y-55576190D01*
X129328571Y-55147619D02*
X129328571Y-56147619D01*
X128871428Y-55147619D01*
X128871428Y-56147619D01*
X128490476Y-55147619D02*
X128490476Y-56147619D01*
X128300000Y-56147619D01*
X128185714Y-56100000D01*
X128109523Y-56004762D01*
X128071428Y-55909524D01*
X128033333Y-55719048D01*
X128033333Y-55576190D01*
X128071428Y-55385714D01*
X128109523Y-55290476D01*
X128185714Y-55195238D01*
X128300000Y-55147619D01*
X128490476Y-55147619D01*
X134809523Y-56100000D02*
X134885714Y-56147619D01*
X134999999Y-56147619D01*
X135114285Y-56100000D01*
X135190476Y-56004762D01*
X135228571Y-55909524D01*
X135266666Y-55719048D01*
X135266666Y-55576190D01*
X135228571Y-55385714D01*
X135190476Y-55290476D01*
X135114285Y-55195238D01*
X134999999Y-55147619D01*
X134923809Y-55147619D01*
X134809523Y-55195238D01*
X134771428Y-55242857D01*
X134771428Y-55576190D01*
X134923809Y-55576190D01*
X134428571Y-55147619D02*
X134428571Y-56147619D01*
X133971428Y-55147619D01*
X133971428Y-56147619D01*
X133590476Y-55147619D02*
X133590476Y-56147619D01*
X133400000Y-56147619D01*
X133285714Y-56100000D01*
X133209523Y-56004762D01*
X133171428Y-55909524D01*
X133133333Y-55719048D01*
X133133333Y-55576190D01*
X133171428Y-55385714D01*
X133209523Y-55290476D01*
X133285714Y-55195238D01*
X133400000Y-55147619D01*
X133590476Y-55147619D01*
X194000000Y-63409523D02*
X193952381Y-63485714D01*
X193952381Y-63599999D01*
X194000000Y-63714285D01*
X194095238Y-63790476D01*
X194190476Y-63828571D01*
X194380952Y-63866666D01*
X194523810Y-63866666D01*
X194714286Y-63828571D01*
X194809524Y-63790476D01*
X194904762Y-63714285D01*
X194952381Y-63599999D01*
X194952381Y-63523809D01*
X194904762Y-63409523D01*
X194857143Y-63371428D01*
X194523810Y-63371428D01*
X194523810Y-63523809D01*
X194952381Y-63028571D02*
X193952381Y-63028571D01*
X194952381Y-62571428D01*
X193952381Y-62571428D01*
X194952381Y-62190476D02*
X193952381Y-62190476D01*
X193952381Y-62000000D01*
X194000000Y-61885714D01*
X194095238Y-61809523D01*
X194190476Y-61771428D01*
X194380952Y-61733333D01*
X194523810Y-61733333D01*
X194714286Y-61771428D01*
X194809524Y-61809523D01*
X194904762Y-61885714D01*
X194952381Y-62000000D01*
X194952381Y-62190476D01*
X194000000Y-73609523D02*
X193952381Y-73685714D01*
X193952381Y-73799999D01*
X194000000Y-73914285D01*
X194095238Y-73990476D01*
X194190476Y-74028571D01*
X194380952Y-74066666D01*
X194523810Y-74066666D01*
X194714286Y-74028571D01*
X194809524Y-73990476D01*
X194904762Y-73914285D01*
X194952381Y-73799999D01*
X194952381Y-73723809D01*
X194904762Y-73609523D01*
X194857143Y-73571428D01*
X194523810Y-73571428D01*
X194523810Y-73723809D01*
X194952381Y-73228571D02*
X193952381Y-73228571D01*
X194952381Y-72771428D01*
X193952381Y-72771428D01*
X194952381Y-72390476D02*
X193952381Y-72390476D01*
X193952381Y-72200000D01*
X194000000Y-72085714D01*
X194095238Y-72009523D01*
X194190476Y-71971428D01*
X194380952Y-71933333D01*
X194523810Y-71933333D01*
X194714286Y-71971428D01*
X194809524Y-72009523D01*
X194904762Y-72085714D01*
X194952381Y-72200000D01*
X194952381Y-72390476D01*
X194000000Y-68509523D02*
X193952381Y-68585714D01*
X193952381Y-68699999D01*
X194000000Y-68814285D01*
X194095238Y-68890476D01*
X194190476Y-68928571D01*
X194380952Y-68966666D01*
X194523810Y-68966666D01*
X194714286Y-68928571D01*
X194809524Y-68890476D01*
X194904762Y-68814285D01*
X194952381Y-68699999D01*
X194952381Y-68623809D01*
X194904762Y-68509523D01*
X194857143Y-68471428D01*
X194523810Y-68471428D01*
X194523810Y-68623809D01*
X194952381Y-68128571D02*
X193952381Y-68128571D01*
X194952381Y-67671428D01*
X193952381Y-67671428D01*
X194952381Y-67290476D02*
X193952381Y-67290476D01*
X193952381Y-67100000D01*
X194000000Y-66985714D01*
X194095238Y-66909523D01*
X194190476Y-66871428D01*
X194380952Y-66833333D01*
X194523810Y-66833333D01*
X194714286Y-66871428D01*
X194809524Y-66909523D01*
X194904762Y-66985714D01*
X194952381Y-67100000D01*
X194952381Y-67290476D01*
X150309523Y-56100000D02*
X150385714Y-56147619D01*
X150499999Y-56147619D01*
X150614285Y-56100000D01*
X150690476Y-56004762D01*
X150728571Y-55909524D01*
X150766666Y-55719048D01*
X150766666Y-55576190D01*
X150728571Y-55385714D01*
X150690476Y-55290476D01*
X150614285Y-55195238D01*
X150499999Y-55147619D01*
X150423809Y-55147619D01*
X150309523Y-55195238D01*
X150271428Y-55242857D01*
X150271428Y-55576190D01*
X150423809Y-55576190D01*
X149928571Y-55147619D02*
X149928571Y-56147619D01*
X149471428Y-55147619D01*
X149471428Y-56147619D01*
X149090476Y-55147619D02*
X149090476Y-56147619D01*
X148900000Y-56147619D01*
X148785714Y-56100000D01*
X148709523Y-56004762D01*
X148671428Y-55909524D01*
X148633333Y-55719048D01*
X148633333Y-55576190D01*
X148671428Y-55385714D01*
X148709523Y-55290476D01*
X148785714Y-55195238D01*
X148900000Y-55147619D01*
X149090476Y-55147619D01*
X148171428Y-55195238D02*
X148057142Y-55147619D01*
X147866666Y-55147619D01*
X147790476Y-55195238D01*
X147752380Y-55242857D01*
X147714285Y-55338095D01*
X147714285Y-55433333D01*
X147752380Y-55528571D01*
X147790476Y-55576190D01*
X147866666Y-55623810D01*
X148019047Y-55671429D01*
X148095238Y-55719048D01*
X148133333Y-55766667D01*
X148171428Y-55861905D01*
X148171428Y-55957143D01*
X148133333Y-56052381D01*
X148095238Y-56100000D01*
X148019047Y-56147619D01*
X147828571Y-56147619D01*
X147714285Y-56100000D01*
X147371428Y-55147619D02*
X147371428Y-56147619D01*
X147180952Y-56147619D01*
X147066666Y-56100000D01*
X146990475Y-56004762D01*
X146952380Y-55909524D01*
X146914285Y-55719048D01*
X146914285Y-55576190D01*
X146952380Y-55385714D01*
X146990475Y-55290476D01*
X147066666Y-55195238D01*
X147180952Y-55147619D01*
X147371428Y-55147619D01*
X146609523Y-55433333D02*
X146228571Y-55433333D01*
X146685714Y-55147619D02*
X146419047Y-56147619D01*
X146152380Y-55147619D01*
X145652381Y-55195238D02*
X145538095Y-55147619D01*
X145347619Y-55147619D01*
X145271429Y-55195238D01*
X145233333Y-55242857D01*
X145195238Y-55338095D01*
X145195238Y-55433333D01*
X145233333Y-55528571D01*
X145271429Y-55576190D01*
X145347619Y-55623810D01*
X145500000Y-55671429D01*
X145576191Y-55719048D01*
X145614286Y-55766667D01*
X145652381Y-55861905D01*
X145652381Y-55957143D01*
X145614286Y-56052381D01*
X145576191Y-56100000D01*
X145500000Y-56147619D01*
X145309524Y-56147619D01*
X145195238Y-56100000D01*
X144395238Y-55242857D02*
X144433333Y-55195238D01*
X144547619Y-55147619D01*
X144623809Y-55147619D01*
X144738095Y-55195238D01*
X144814286Y-55290476D01*
X144852381Y-55385714D01*
X144890476Y-55576190D01*
X144890476Y-55719048D01*
X144852381Y-55909524D01*
X144814286Y-56004762D01*
X144738095Y-56100000D01*
X144623809Y-56147619D01*
X144547619Y-56147619D01*
X144433333Y-56100000D01*
X144395238Y-56052381D01*
X143671428Y-55147619D02*
X144052381Y-55147619D01*
X144052381Y-56147619D01*
X142980952Y-56147619D02*
X142485714Y-56147619D01*
X142752381Y-55766667D01*
X142638095Y-55766667D01*
X142561905Y-55719048D01*
X142523809Y-55671429D01*
X142485714Y-55576190D01*
X142485714Y-55338095D01*
X142523809Y-55242857D01*
X142561905Y-55195238D01*
X142638095Y-55147619D01*
X142866667Y-55147619D01*
X142942857Y-55195238D01*
X142980952Y-55242857D01*
X142142857Y-55242857D02*
X142104762Y-55195238D01*
X142142857Y-55147619D01*
X142180952Y-55195238D01*
X142142857Y-55242857D01*
X142142857Y-55147619D01*
X141838095Y-56147619D02*
X141342857Y-56147619D01*
X141609524Y-55766667D01*
X141495238Y-55766667D01*
X141419048Y-55719048D01*
X141380952Y-55671429D01*
X141342857Y-55576190D01*
X141342857Y-55338095D01*
X141380952Y-55242857D01*
X141419048Y-55195238D01*
X141495238Y-55147619D01*
X141723810Y-55147619D01*
X141800000Y-55195238D01*
X141838095Y-55242857D01*
X141114286Y-56147619D02*
X140847619Y-55147619D01*
X140580952Y-56147619D01*
X194666667Y-65871428D02*
X194666667Y-65490476D01*
X194952381Y-65947619D02*
X193952381Y-65680952D01*
X194952381Y-65414285D01*
X193952381Y-65223809D02*
X193952381Y-64728571D01*
X194333333Y-64995238D01*
X194333333Y-64880952D01*
X194380952Y-64804762D01*
X194428571Y-64766666D01*
X194523810Y-64728571D01*
X194761905Y-64728571D01*
X194857143Y-64766666D01*
X194904762Y-64804762D01*
X194952381Y-64880952D01*
X194952381Y-65109524D01*
X194904762Y-65185714D01*
X194857143Y-65223809D01*
X194666667Y-70971428D02*
X194666667Y-70590476D01*
X194952381Y-71047619D02*
X193952381Y-70780952D01*
X194952381Y-70514285D01*
X194047619Y-70285714D02*
X194000000Y-70247619D01*
X193952381Y-70171428D01*
X193952381Y-69980952D01*
X194000000Y-69904762D01*
X194047619Y-69866666D01*
X194142857Y-69828571D01*
X194238095Y-69828571D01*
X194380952Y-69866666D01*
X194952381Y-70323809D01*
X194952381Y-69828571D01*
X194666667Y-75971428D02*
X194666667Y-75590476D01*
X194952381Y-76047619D02*
X193952381Y-75780952D01*
X194952381Y-75514285D01*
X194952381Y-74828571D02*
X194952381Y-75285714D01*
X194952381Y-75057143D02*
X193952381Y-75057143D01*
X194095238Y-75133333D01*
X194190476Y-75209524D01*
X194238095Y-75285714D01*
X132090476Y-55147619D02*
X132090476Y-56147619D01*
X131900000Y-56147619D01*
X131785714Y-56100000D01*
X131709523Y-56004762D01*
X131671428Y-55909524D01*
X131633333Y-55719048D01*
X131633333Y-55576190D01*
X131671428Y-55385714D01*
X131709523Y-55290476D01*
X131785714Y-55195238D01*
X131900000Y-55147619D01*
X132090476Y-55147619D01*
X131252381Y-55147619D02*
X131100000Y-55147619D01*
X131023809Y-55195238D01*
X130985714Y-55242857D01*
X130909523Y-55385714D01*
X130871428Y-55576190D01*
X130871428Y-55957143D01*
X130909523Y-56052381D01*
X130947619Y-56100000D01*
X131023809Y-56147619D01*
X131176190Y-56147619D01*
X131252381Y-56100000D01*
X131290476Y-56052381D01*
X131328571Y-55957143D01*
X131328571Y-55719048D01*
X131290476Y-55623810D01*
X131252381Y-55576190D01*
X131176190Y-55528571D01*
X131023809Y-55528571D01*
X130947619Y-55576190D01*
X130909523Y-55623810D01*
X130871428Y-55719048D01*
X127090476Y-55147619D02*
X127090476Y-56147619D01*
X126900000Y-56147619D01*
X126785714Y-56100000D01*
X126709523Y-56004762D01*
X126671428Y-55909524D01*
X126633333Y-55719048D01*
X126633333Y-55576190D01*
X126671428Y-55385714D01*
X126709523Y-55290476D01*
X126785714Y-55195238D01*
X126900000Y-55147619D01*
X127090476Y-55147619D01*
X126176190Y-55719048D02*
X126252381Y-55766667D01*
X126290476Y-55814286D01*
X126328571Y-55909524D01*
X126328571Y-55957143D01*
X126290476Y-56052381D01*
X126252381Y-56100000D01*
X126176190Y-56147619D01*
X126023809Y-56147619D01*
X125947619Y-56100000D01*
X125909523Y-56052381D01*
X125871428Y-55957143D01*
X125871428Y-55909524D01*
X125909523Y-55814286D01*
X125947619Y-55766667D01*
X126023809Y-55719048D01*
X126176190Y-55719048D01*
X126252381Y-55671429D01*
X126290476Y-55623810D01*
X126328571Y-55528571D01*
X126328571Y-55338095D01*
X126290476Y-55242857D01*
X126252381Y-55195238D01*
X126176190Y-55147619D01*
X126023809Y-55147619D01*
X125947619Y-55195238D01*
X125909523Y-55242857D01*
X125871428Y-55338095D01*
X125871428Y-55528571D01*
X125909523Y-55623810D01*
X125947619Y-55671429D01*
X126023809Y-55719048D01*
X122090476Y-55147619D02*
X122090476Y-56147619D01*
X121900000Y-56147619D01*
X121785714Y-56100000D01*
X121709523Y-56004762D01*
X121671428Y-55909524D01*
X121633333Y-55719048D01*
X121633333Y-55576190D01*
X121671428Y-55385714D01*
X121709523Y-55290476D01*
X121785714Y-55195238D01*
X121900000Y-55147619D01*
X122090476Y-55147619D01*
X121366666Y-56147619D02*
X120833333Y-56147619D01*
X121176190Y-55147619D01*
X149971429Y-50647619D02*
X149971429Y-51647619D01*
X149628572Y-51552381D02*
X149590477Y-51600000D01*
X149514286Y-51647619D01*
X149323810Y-51647619D01*
X149247620Y-51600000D01*
X149209524Y-51552381D01*
X149171429Y-51457143D01*
X149171429Y-51361905D01*
X149209524Y-51219048D01*
X149666667Y-50647619D01*
X149171429Y-50647619D01*
X148371429Y-50742857D02*
X148409524Y-50695238D01*
X148523810Y-50647619D01*
X148600000Y-50647619D01*
X148714286Y-50695238D01*
X148790477Y-50790476D01*
X148828572Y-50885714D01*
X148866667Y-51076190D01*
X148866667Y-51219048D01*
X148828572Y-51409524D01*
X148790477Y-51504762D01*
X148714286Y-51600000D01*
X148600000Y-51647619D01*
X148523810Y-51647619D01*
X148409524Y-51600000D01*
X148371429Y-51552381D01*
X147152381Y-51171429D02*
X147038095Y-51123810D01*
X147000000Y-51076190D01*
X146961905Y-50980952D01*
X146961905Y-50838095D01*
X147000000Y-50742857D01*
X147038095Y-50695238D01*
X147114286Y-50647619D01*
X147419048Y-50647619D01*
X147419048Y-51647619D01*
X147152381Y-51647619D01*
X147076191Y-51600000D01*
X147038095Y-51552381D01*
X147000000Y-51457143D01*
X147000000Y-51361905D01*
X147038095Y-51266667D01*
X147076191Y-51219048D01*
X147152381Y-51171429D01*
X147419048Y-51171429D01*
X146276191Y-51314286D02*
X146276191Y-50647619D01*
X146619048Y-51314286D02*
X146619048Y-50790476D01*
X146580953Y-50695238D01*
X146504762Y-50647619D01*
X146390476Y-50647619D01*
X146314286Y-50695238D01*
X146276191Y-50742857D01*
X145933333Y-50695238D02*
X145857143Y-50647619D01*
X145704762Y-50647619D01*
X145628571Y-50695238D01*
X145590476Y-50790476D01*
X145590476Y-50838095D01*
X145628571Y-50933333D01*
X145704762Y-50980952D01*
X145819047Y-50980952D01*
X145895238Y-51028571D01*
X145933333Y-51123810D01*
X145933333Y-51171429D01*
X145895238Y-51266667D01*
X145819047Y-51314286D01*
X145704762Y-51314286D01*
X145628571Y-51266667D01*
X199166667Y-76823810D02*
X199166667Y-76442858D01*
X199452381Y-76900001D02*
X198452381Y-76633334D01*
X199452381Y-76366667D01*
X199452381Y-76100001D02*
X198452381Y-76100001D01*
X198452381Y-75909525D01*
X198500000Y-75795239D01*
X198595238Y-75719048D01*
X198690476Y-75680953D01*
X198880952Y-75642858D01*
X199023810Y-75642858D01*
X199214286Y-75680953D01*
X199309524Y-75719048D01*
X199404762Y-75795239D01*
X199452381Y-75909525D01*
X199452381Y-76100001D01*
X199357143Y-74842858D02*
X199404762Y-74880953D01*
X199452381Y-74995239D01*
X199452381Y-75071429D01*
X199404762Y-75185715D01*
X199309524Y-75261906D01*
X199214286Y-75300001D01*
X199023810Y-75338096D01*
X198880952Y-75338096D01*
X198690476Y-75300001D01*
X198595238Y-75261906D01*
X198500000Y-75185715D01*
X198452381Y-75071429D01*
X198452381Y-74995239D01*
X198500000Y-74880953D01*
X198547619Y-74842858D01*
X199452381Y-73890477D02*
X198452381Y-73890477D01*
X198785714Y-73509525D02*
X199452381Y-73509525D01*
X198880952Y-73509525D02*
X198833333Y-73471430D01*
X198785714Y-73395239D01*
X198785714Y-73280953D01*
X198833333Y-73204763D01*
X198928571Y-73166668D01*
X199452381Y-73166668D01*
X198785714Y-72785715D02*
X199785714Y-72785715D01*
X198833333Y-72785715D02*
X198785714Y-72709524D01*
X198785714Y-72557143D01*
X198833333Y-72480953D01*
X198880952Y-72442858D01*
X198976190Y-72404762D01*
X199261905Y-72404762D01*
X199357143Y-72442858D01*
X199404762Y-72480953D01*
X199452381Y-72557143D01*
X199452381Y-72709524D01*
X199404762Y-72785715D01*
X198785714Y-71719048D02*
X199452381Y-71719048D01*
X198785714Y-72061905D02*
X199309524Y-72061905D01*
X199404762Y-72023810D01*
X199452381Y-71947619D01*
X199452381Y-71833333D01*
X199404762Y-71757143D01*
X199357143Y-71719048D01*
X198785714Y-71452381D02*
X198785714Y-71147619D01*
X198452381Y-71338095D02*
X199309524Y-71338095D01*
X199404762Y-71300000D01*
X199452381Y-71223809D01*
X199452381Y-71147619D01*
X199404762Y-70919047D02*
X199452381Y-70842857D01*
X199452381Y-70690476D01*
X199404762Y-70614285D01*
X199309524Y-70576190D01*
X199261905Y-70576190D01*
X199166667Y-70614285D01*
X199119048Y-70690476D01*
X199119048Y-70804761D01*
X199071429Y-70880952D01*
X198976190Y-70919047D01*
X198928571Y-70919047D01*
X198833333Y-70880952D01*
X198785714Y-70804761D01*
X198785714Y-70690476D01*
X198833333Y-70614285D01*
X135466667Y-50647619D02*
X135466667Y-51647619D01*
X135276191Y-51647619D01*
X135161905Y-51600000D01*
X135085714Y-51504762D01*
X135047619Y-51409524D01*
X135009524Y-51219048D01*
X135009524Y-51076190D01*
X135047619Y-50885714D01*
X135085714Y-50790476D01*
X135161905Y-50695238D01*
X135276191Y-50647619D01*
X135466667Y-50647619D01*
X134666667Y-50647619D02*
X134666667Y-51314286D01*
X134666667Y-51647619D02*
X134704762Y-51600000D01*
X134666667Y-51552381D01*
X134628572Y-51600000D01*
X134666667Y-51647619D01*
X134666667Y-51552381D01*
X133942858Y-51314286D02*
X133942858Y-50504762D01*
X133980953Y-50409524D01*
X134019048Y-50361905D01*
X134095239Y-50314286D01*
X134209524Y-50314286D01*
X134285715Y-50361905D01*
X133942858Y-50695238D02*
X134019048Y-50647619D01*
X134171429Y-50647619D01*
X134247620Y-50695238D01*
X134285715Y-50742857D01*
X134323810Y-50838095D01*
X134323810Y-51123810D01*
X134285715Y-51219048D01*
X134247620Y-51266667D01*
X134171429Y-51314286D01*
X134019048Y-51314286D01*
X133942858Y-51266667D01*
X133561905Y-50647619D02*
X133561905Y-51314286D01*
X133561905Y-51647619D02*
X133600000Y-51600000D01*
X133561905Y-51552381D01*
X133523810Y-51600000D01*
X133561905Y-51647619D01*
X133561905Y-51552381D01*
X133295239Y-51314286D02*
X132990477Y-51314286D01*
X133180953Y-51647619D02*
X133180953Y-50790476D01*
X133142858Y-50695238D01*
X133066667Y-50647619D01*
X132990477Y-50647619D01*
X132380953Y-50647619D02*
X132380953Y-51171429D01*
X132419048Y-51266667D01*
X132495238Y-51314286D01*
X132647619Y-51314286D01*
X132723810Y-51266667D01*
X132380953Y-50695238D02*
X132457143Y-50647619D01*
X132647619Y-50647619D01*
X132723810Y-50695238D01*
X132761905Y-50790476D01*
X132761905Y-50885714D01*
X132723810Y-50980952D01*
X132647619Y-51028571D01*
X132457143Y-51028571D01*
X132380953Y-51076190D01*
X131885714Y-50647619D02*
X131961905Y-50695238D01*
X132000000Y-50790476D01*
X132000000Y-51647619D01*
X130971428Y-50647619D02*
X130971428Y-51647619D01*
X130438095Y-51647619D02*
X130285714Y-51647619D01*
X130209523Y-51600000D01*
X130133333Y-51504762D01*
X130095238Y-51314286D01*
X130095238Y-50980952D01*
X130133333Y-50790476D01*
X130209523Y-50695238D01*
X130285714Y-50647619D01*
X130438095Y-50647619D01*
X130514285Y-50695238D01*
X130590476Y-50790476D01*
X130628571Y-50980952D01*
X130628571Y-51314286D01*
X130590476Y-51504762D01*
X130514285Y-51600000D01*
X130438095Y-51647619D01*
D16*
X198286000Y-102000000D02*
G75*
G03X198286000Y-102000000I-2286000J0D01*
G01*
X106286000Y-102000000D02*
G75*
G03X106286000Y-102000000I-2286000J0D01*
G01*
X106286000Y-54000000D02*
G75*
G03X106286000Y-54000000I-2286000J0D01*
G01*
X106286000Y-126000000D02*
G75*
G03X106286000Y-126000000I-2286000J0D01*
G01*
X198286000Y-126000000D02*
G75*
G03X198286000Y-126000000I-2286000J0D01*
G01*
D12*
X137100000Y-88550000D02*
X136100000Y-88550000D01*
X136100000Y-90250000D02*
X137100000Y-90250000D01*
X116300000Y-82950000D02*
X117300000Y-82950000D01*
X117300000Y-81250000D02*
X116300000Y-81250000D01*
X166400000Y-79650000D02*
X165400000Y-79650000D01*
X165400000Y-81350000D02*
X166400000Y-81350000D01*
X166500000Y-83450000D02*
X165500000Y-83450000D01*
X165500000Y-85150000D02*
X166500000Y-85150000D01*
X120400000Y-92050000D02*
X121400000Y-92050000D01*
X121400000Y-90350000D02*
X120400000Y-90350000D01*
X107750000Y-88300000D02*
X107750000Y-89300000D01*
X109450000Y-89300000D02*
X109450000Y-88300000D01*
X143200000Y-91850000D02*
X142200000Y-91850000D01*
X142200000Y-93550000D02*
X143200000Y-93550000D01*
X120700000Y-84250000D02*
X121700000Y-84250000D01*
X121700000Y-82550000D02*
X120700000Y-82550000D01*
X129700000Y-90350000D02*
X128700000Y-90350000D01*
X128700000Y-92050000D02*
X129700000Y-92050000D01*
X123950000Y-95700000D02*
X123950000Y-96700000D01*
X125650000Y-96700000D02*
X125650000Y-95700000D01*
X127050000Y-80800000D02*
X127050000Y-79800000D01*
X125350000Y-79800000D02*
X125350000Y-80800000D01*
X110900000Y-82950000D02*
X111900000Y-82950000D01*
X111900000Y-81250000D02*
X110900000Y-81250000D01*
D17*
X151010000Y-54530000D02*
X151010000Y-51870000D01*
X143330000Y-54530000D02*
X151010000Y-54530000D01*
X143330000Y-51870000D02*
X151010000Y-51870000D01*
X143330000Y-54530000D02*
X143330000Y-51870000D01*
X142060000Y-54530000D02*
X140730000Y-54530000D01*
X140730000Y-54530000D02*
X140730000Y-53200000D01*
D12*
X162000000Y-71200000D02*
X163600000Y-72600000D01*
X158800000Y-71200000D02*
X157200000Y-72600000D01*
X158800000Y-71200000D02*
X162000000Y-71200000D01*
X163900000Y-77800000D02*
X163900000Y-76400000D01*
X156900000Y-77800000D02*
X163900000Y-77800000D01*
X156900000Y-76400000D02*
X156900000Y-77800000D01*
X129500000Y-86500000D02*
G75*
G03X131600000Y-88600000I2100000J0D01*
G01*
X131600000Y-88600000D02*
G75*
G03X133700000Y-86500000I0J2100000D01*
G01*
X129500000Y-83600000D02*
X129500000Y-86500000D01*
X133700000Y-83600000D02*
X133700000Y-86500000D01*
X133700000Y-83600000D02*
G75*
G03X131600000Y-81500000I-2100000J0D01*
G01*
X131600000Y-81500000D02*
G75*
G03X129500000Y-83600000I0J-2100000D01*
G01*
D15*
X106200000Y-59700000D02*
X151200000Y-59700000D01*
X151200000Y-59700000D02*
X151200000Y-77700000D01*
X151200000Y-77700000D02*
X106200000Y-77700000D01*
X106200000Y-77700000D02*
X106200000Y-59700000D01*
D18*
X147887000Y-95535000D02*
X150935000Y-95535000D01*
X150935000Y-95535000D02*
X150935000Y-96297000D01*
X150935000Y-96297000D02*
X147887000Y-96297000D01*
X147887000Y-96297000D02*
X147887000Y-95535000D01*
X135176000Y-93619000D02*
X138224000Y-93619000D01*
X138224000Y-93619000D02*
X138224000Y-94381000D01*
X138224000Y-94381000D02*
X135176000Y-94381000D01*
X135176000Y-94381000D02*
X135176000Y-93619000D01*
D12*
X123849560Y-85199520D02*
X123849560Y-87000380D01*
X123849560Y-85199520D02*
X124499800Y-85199520D01*
X128350440Y-85199520D02*
X128350440Y-87000380D01*
X128350440Y-85199520D02*
X127700200Y-85199520D01*
D18*
X163276000Y-90519000D02*
X166324000Y-90519000D01*
X166324000Y-90519000D02*
X166324000Y-91281000D01*
X166324000Y-91281000D02*
X163276000Y-91281000D01*
X163276000Y-91281000D02*
X163276000Y-90519000D01*
X163276000Y-95819000D02*
X166324000Y-95819000D01*
X166324000Y-95819000D02*
X166324000Y-96581000D01*
X166324000Y-96581000D02*
X163276000Y-96581000D01*
X163276000Y-96581000D02*
X163276000Y-95819000D01*
D12*
X148750000Y-90125000D02*
X149950000Y-90125000D01*
X149950000Y-91875000D02*
X148750000Y-91875000D01*
X145500000Y-97575000D02*
X144300000Y-97575000D01*
X144300000Y-95825000D02*
X145500000Y-95825000D01*
X105400000Y-93600000D02*
X105800000Y-93600000D01*
X106600000Y-94300000D02*
X106600000Y-94500000D01*
X104600000Y-94300000D02*
X104600000Y-94500000D01*
X141150000Y-97575000D02*
X139950000Y-97575000D01*
X139950000Y-95825000D02*
X141150000Y-95825000D01*
X120500000Y-86425000D02*
X121700000Y-86425000D01*
X121700000Y-88175000D02*
X120500000Y-88175000D01*
X143350000Y-89875000D02*
X142150000Y-89875000D01*
X142150000Y-88125000D02*
X143350000Y-88125000D01*
X125500000Y-92075000D02*
X124300000Y-92075000D01*
X124300000Y-90325000D02*
X125500000Y-90325000D01*
X140200000Y-84475000D02*
X139000000Y-84475000D01*
X139000000Y-82725000D02*
X140200000Y-82725000D01*
X161200000Y-97075000D02*
X160000000Y-97075000D01*
X160000000Y-95325000D02*
X161200000Y-95325000D01*
X161200000Y-91575000D02*
X160000000Y-91575000D01*
X160000000Y-89825000D02*
X161200000Y-89825000D01*
X193825000Y-94900000D02*
X193825000Y-93700000D01*
X195575000Y-93700000D02*
X195575000Y-94900000D01*
X195575000Y-89750000D02*
X195575000Y-90950000D01*
X193825000Y-90950000D02*
X193825000Y-89750000D01*
X157000000Y-116000000D02*
X157000000Y-114000000D01*
X163000000Y-116000000D02*
X163000000Y-114000000D01*
X162200000Y-112000000D02*
X157800000Y-112000000D01*
X162200000Y-118000000D02*
X157800000Y-118000000D01*
X116150000Y-120950000D02*
X116150000Y-118950000D01*
X122150000Y-120950000D02*
X122150000Y-118950000D01*
X121350000Y-116950000D02*
X116950000Y-116950000D01*
X121350000Y-122950000D02*
X116950000Y-122950000D01*
X173000000Y-124000000D02*
X173000000Y-126000000D01*
X167000000Y-124000000D02*
X167000000Y-126000000D01*
X167800000Y-128000000D02*
X172200000Y-128000000D01*
X167800000Y-122000000D02*
X172200000Y-122000000D01*
X173000000Y-104000000D02*
X173000000Y-106000000D01*
X167000000Y-104000000D02*
X167000000Y-106000000D01*
X167800000Y-108000000D02*
X172200000Y-108000000D01*
X167800000Y-102000000D02*
X172200000Y-102000000D01*
X135530000Y-119000000D02*
X135530000Y-121000000D01*
X129530000Y-119000000D02*
X129530000Y-121000000D01*
X130330000Y-123000000D02*
X134730000Y-123000000D01*
X130330000Y-117000000D02*
X134730000Y-117000000D01*
X183000000Y-114000000D02*
X183000000Y-116000000D01*
X177000000Y-114000000D02*
X177000000Y-116000000D01*
X177800000Y-118000000D02*
X182200000Y-118000000D01*
X177800000Y-112000000D02*
X182200000Y-112000000D01*
X148900000Y-118900000D02*
X148900000Y-120900000D01*
X142900000Y-118900000D02*
X142900000Y-120900000D01*
X143700000Y-122900000D02*
X148100000Y-122900000D01*
X143700000Y-116900000D02*
X148100000Y-116900000D01*
D11*
X161280000Y-80247500D02*
X159580000Y-80247500D01*
D19*
X161319000Y-82971500D02*
X159541000Y-82971500D01*
X159541000Y-82971500D02*
X159541000Y-79923500D01*
X159541000Y-79923500D02*
X161319000Y-79923500D01*
X161319000Y-79923500D02*
X161319000Y-82971500D01*
D12*
X103685044Y-86800000D02*
G75*
G03X103685044Y-86800000I-285044J0D01*
G01*
X106700000Y-88700000D02*
X106700000Y-89500000D01*
X104100000Y-88700000D02*
X104100000Y-89500000D01*
X105700000Y-90700000D02*
X105100000Y-90700000D01*
X105700000Y-87500000D02*
X105100000Y-87500000D01*
D19*
X117489000Y-87824000D02*
X115711000Y-87824000D01*
X115711000Y-87824000D02*
X115711000Y-84776000D01*
X115711000Y-84776000D02*
X117489000Y-84776000D01*
X117489000Y-84776000D02*
X117489000Y-87824000D01*
D12*
X113400000Y-87900000D02*
X110400000Y-87900000D01*
X110400000Y-87900000D02*
X110400000Y-91100000D01*
X110400000Y-91100000D02*
X113400000Y-91100000D01*
X113400000Y-91100000D02*
X113400000Y-87900000D01*
X111138000Y-90616000D02*
G75*
G03X111138000Y-90616000I-254000J0D01*
G01*
D11*
X129480000Y-95052500D02*
X127780000Y-95052500D01*
D19*
X129519000Y-97776500D02*
X127741000Y-97776500D01*
X127741000Y-97776500D02*
X127741000Y-94728500D01*
X127741000Y-94728500D02*
X129519000Y-94728500D01*
X129519000Y-94728500D02*
X129519000Y-97776500D01*
D12*
X111300000Y-114900000D02*
X111300000Y-102900000D01*
X149300000Y-114900000D02*
X111300000Y-114900000D01*
X149300000Y-102900000D02*
X149300000Y-114900000D01*
X111300000Y-102900000D02*
X149300000Y-102900000D01*
X192700000Y-50070000D02*
X192700000Y-95770000D01*
X174300000Y-50070000D02*
X192700000Y-50070000D01*
X174300000Y-95770000D02*
X174300000Y-50070000D01*
X192700000Y-95770000D02*
X174300000Y-95770000D01*
X157199100Y-50131080D02*
X157199100Y-64230620D01*
X157199100Y-64230620D02*
X171600900Y-64230620D01*
X171600900Y-64230620D02*
X171600900Y-50131080D01*
D16*
X198286000Y-54000000D02*
G75*
G03X198286000Y-54000000I-2286000J0D01*
G01*
D17*
X135510000Y-54530000D02*
X135510000Y-51870000D01*
X122750000Y-54530000D02*
X135510000Y-54530000D01*
X122750000Y-51870000D02*
X135510000Y-51870000D01*
X122750000Y-54530000D02*
X122750000Y-51870000D01*
X121480000Y-54530000D02*
X120150000Y-54530000D01*
X120150000Y-54530000D02*
X120150000Y-53200000D01*
X198030000Y-61450000D02*
X195370000Y-61450000D01*
X198030000Y-74210000D02*
X198030000Y-61450000D01*
X195370000Y-74210000D02*
X195370000Y-61450000D01*
X198030000Y-74210000D02*
X195370000Y-74210000D01*
X198030000Y-75480000D02*
X198030000Y-76810000D01*
X198030000Y-76810000D02*
X196700000Y-76810000D01*
D20*
G36*
X188231660Y-117456040D02*
X188272300Y-117456040D01*
X188399300Y-117453500D01*
X188483120Y-117448420D01*
X188513600Y-117440800D01*
X188508520Y-117420480D01*
X188490740Y-117349360D01*
X188457720Y-117229980D01*
X188417080Y-117075040D01*
X188366280Y-116889620D01*
X188267220Y-116528940D01*
X188213880Y-116338440D01*
X188170700Y-116170800D01*
X188135140Y-116041260D01*
X188112280Y-115952360D01*
X188104660Y-115916800D01*
X188104660Y-115914260D01*
X188132600Y-115873620D01*
X188191020Y-115792340D01*
X188277380Y-115680580D01*
X188384060Y-115545960D01*
X188505980Y-115393560D01*
X188907300Y-114898260D01*
X188394220Y-114898260D01*
X187972580Y-115439280D01*
X187916700Y-115507860D01*
X187799860Y-115657720D01*
X187698260Y-115787260D01*
X187616980Y-115888860D01*
X187566180Y-115952360D01*
X187545860Y-115975220D01*
X187548400Y-115959980D01*
X187561100Y-115888860D01*
X187583960Y-115769480D01*
X187614440Y-115609460D01*
X187652540Y-115411340D01*
X187695720Y-115187820D01*
X187743980Y-114943980D01*
X187777000Y-114771260D01*
X187825260Y-114537580D01*
X187865900Y-114329300D01*
X187898920Y-114151500D01*
X187924320Y-114014340D01*
X187942100Y-113925440D01*
X187947180Y-113887340D01*
X187947180Y-113879720D01*
X187934480Y-113869560D01*
X187896380Y-113864480D01*
X187820180Y-113864480D01*
X187693180Y-113864480D01*
X187439180Y-113869560D01*
X187413780Y-113994020D01*
X187385840Y-114110860D01*
X187345200Y-114194680D01*
X187286780Y-114263260D01*
X187246140Y-114298820D01*
X187175020Y-114336920D01*
X187086120Y-114347080D01*
X187081040Y-114347080D01*
X187009920Y-114336920D01*
X186951500Y-114298820D01*
X186941340Y-114288660D01*
X186903240Y-114240400D01*
X186888000Y-114181980D01*
X186895620Y-114090540D01*
X186918480Y-113955920D01*
X186938800Y-113864480D01*
X186954040Y-113788280D01*
X186959120Y-113757800D01*
X186974360Y-113755260D01*
X187040400Y-113755260D01*
X187114060Y-113752720D01*
X187114060Y-113326000D01*
X187063260Y-113320920D01*
X187045480Y-113313300D01*
X187042940Y-113300600D01*
X187048020Y-113285360D01*
X187063260Y-113219320D01*
X187083580Y-113125340D01*
X187093740Y-113084700D01*
X187121680Y-112985640D01*
X187149620Y-112917060D01*
X187157240Y-112904360D01*
X187228360Y-112825620D01*
X187324880Y-112777360D01*
X187429020Y-112762120D01*
X187517920Y-112782440D01*
X187581420Y-112843400D01*
X187583960Y-112848480D01*
X187601740Y-112937380D01*
X187596660Y-113061840D01*
X187573800Y-113201540D01*
X187545860Y-113318380D01*
X187291860Y-113323460D01*
X187208040Y-113326000D01*
X187114060Y-113326000D01*
X187114060Y-113752720D01*
X187152160Y-113752720D01*
X187296940Y-113752720D01*
X187469660Y-113750180D01*
X187977660Y-113750180D01*
X187987820Y-113714620D01*
X187990360Y-113707000D01*
X188013220Y-113600320D01*
X188038620Y-113460620D01*
X188066560Y-113308220D01*
X188094500Y-113155820D01*
X188114820Y-113021200D01*
X188130060Y-112914520D01*
X188137680Y-112856100D01*
X188135140Y-112825620D01*
X188099580Y-112645280D01*
X188010680Y-112487800D01*
X187883680Y-112360800D01*
X187723660Y-112284600D01*
X187705880Y-112279520D01*
X187586500Y-112261740D01*
X187446800Y-112261740D01*
X187322340Y-112276980D01*
X187202960Y-112312540D01*
X187020080Y-112414140D01*
X186852440Y-112556380D01*
X186715280Y-112724020D01*
X186621300Y-112904360D01*
X186613680Y-112927220D01*
X186593360Y-113016120D01*
X186565420Y-113145660D01*
X186529860Y-113303140D01*
X186494300Y-113478400D01*
X186458740Y-113658740D01*
X186425720Y-113831460D01*
X186397780Y-113981320D01*
X186377460Y-114098160D01*
X186367300Y-114169280D01*
X186367300Y-114270880D01*
X186387620Y-114435980D01*
X186438420Y-114573140D01*
X186458740Y-114606160D01*
X186575580Y-114735700D01*
X186733060Y-114827140D01*
X186915940Y-114872860D01*
X187111520Y-114867780D01*
X187134380Y-114865240D01*
X187205500Y-114855080D01*
X187235980Y-114855080D01*
X187235980Y-114862700D01*
X187225820Y-114923660D01*
X187202960Y-115035420D01*
X187172480Y-115190360D01*
X187134380Y-115388480D01*
X187091200Y-115617080D01*
X187040400Y-115871080D01*
X186956580Y-116287640D01*
X186903240Y-116551800D01*
X186854980Y-116795640D01*
X186814340Y-117009000D01*
X186778780Y-117189340D01*
X186753380Y-117323960D01*
X186738140Y-117412860D01*
X186735600Y-117443340D01*
X186738140Y-117445880D01*
X186783860Y-117450960D01*
X186872760Y-117453500D01*
X186992140Y-117456040D01*
X187096280Y-117456040D01*
X187180100Y-117453500D01*
X187223280Y-117448420D01*
X187243600Y-117438260D01*
X187248680Y-117420480D01*
X187253760Y-117395080D01*
X187271540Y-117316340D01*
X187291860Y-117202040D01*
X187319800Y-117064880D01*
X187327420Y-117024240D01*
X187362980Y-116861680D01*
X187390920Y-116760080D01*
X187411240Y-116711820D01*
X187421400Y-116701660D01*
X187497600Y-116615300D01*
X187576340Y-116526400D01*
X187650000Y-116450200D01*
X187700800Y-116396860D01*
X187721120Y-116376540D01*
X187726200Y-116391780D01*
X187741440Y-116457820D01*
X187764300Y-116569580D01*
X187794780Y-116714360D01*
X187827800Y-116882000D01*
X187853200Y-116998840D01*
X187886220Y-117156320D01*
X187911620Y-117288400D01*
X187931940Y-117379840D01*
X187939560Y-117420480D01*
X187942100Y-117423020D01*
X187947180Y-117438260D01*
X187967500Y-117448420D01*
X188013220Y-117453500D01*
X188097040Y-117456040D01*
X188231660Y-117456040D01*
X188231660Y-117456040D01*
G37*
X188231660Y-117456040D02*
X188272300Y-117456040D01*
X188399300Y-117453500D01*
X188483120Y-117448420D01*
X188513600Y-117440800D01*
X188508520Y-117420480D01*
X188490740Y-117349360D01*
X188457720Y-117229980D01*
X188417080Y-117075040D01*
X188366280Y-116889620D01*
X188267220Y-116528940D01*
X188213880Y-116338440D01*
X188170700Y-116170800D01*
X188135140Y-116041260D01*
X188112280Y-115952360D01*
X188104660Y-115916800D01*
X188104660Y-115914260D01*
X188132600Y-115873620D01*
X188191020Y-115792340D01*
X188277380Y-115680580D01*
X188384060Y-115545960D01*
X188505980Y-115393560D01*
X188907300Y-114898260D01*
X188394220Y-114898260D01*
X187972580Y-115439280D01*
X187916700Y-115507860D01*
X187799860Y-115657720D01*
X187698260Y-115787260D01*
X187616980Y-115888860D01*
X187566180Y-115952360D01*
X187545860Y-115975220D01*
X187548400Y-115959980D01*
X187561100Y-115888860D01*
X187583960Y-115769480D01*
X187614440Y-115609460D01*
X187652540Y-115411340D01*
X187695720Y-115187820D01*
X187743980Y-114943980D01*
X187777000Y-114771260D01*
X187825260Y-114537580D01*
X187865900Y-114329300D01*
X187898920Y-114151500D01*
X187924320Y-114014340D01*
X187942100Y-113925440D01*
X187947180Y-113887340D01*
X187947180Y-113879720D01*
X187934480Y-113869560D01*
X187896380Y-113864480D01*
X187820180Y-113864480D01*
X187693180Y-113864480D01*
X187439180Y-113869560D01*
X187413780Y-113994020D01*
X187385840Y-114110860D01*
X187345200Y-114194680D01*
X187286780Y-114263260D01*
X187246140Y-114298820D01*
X187175020Y-114336920D01*
X187086120Y-114347080D01*
X187081040Y-114347080D01*
X187009920Y-114336920D01*
X186951500Y-114298820D01*
X186941340Y-114288660D01*
X186903240Y-114240400D01*
X186888000Y-114181980D01*
X186895620Y-114090540D01*
X186918480Y-113955920D01*
X186938800Y-113864480D01*
X186954040Y-113788280D01*
X186959120Y-113757800D01*
X186974360Y-113755260D01*
X187040400Y-113755260D01*
X187114060Y-113752720D01*
X187114060Y-113326000D01*
X187063260Y-113320920D01*
X187045480Y-113313300D01*
X187042940Y-113300600D01*
X187048020Y-113285360D01*
X187063260Y-113219320D01*
X187083580Y-113125340D01*
X187093740Y-113084700D01*
X187121680Y-112985640D01*
X187149620Y-112917060D01*
X187157240Y-112904360D01*
X187228360Y-112825620D01*
X187324880Y-112777360D01*
X187429020Y-112762120D01*
X187517920Y-112782440D01*
X187581420Y-112843400D01*
X187583960Y-112848480D01*
X187601740Y-112937380D01*
X187596660Y-113061840D01*
X187573800Y-113201540D01*
X187545860Y-113318380D01*
X187291860Y-113323460D01*
X187208040Y-113326000D01*
X187114060Y-113326000D01*
X187114060Y-113752720D01*
X187152160Y-113752720D01*
X187296940Y-113752720D01*
X187469660Y-113750180D01*
X187977660Y-113750180D01*
X187987820Y-113714620D01*
X187990360Y-113707000D01*
X188013220Y-113600320D01*
X188038620Y-113460620D01*
X188066560Y-113308220D01*
X188094500Y-113155820D01*
X188114820Y-113021200D01*
X188130060Y-112914520D01*
X188137680Y-112856100D01*
X188135140Y-112825620D01*
X188099580Y-112645280D01*
X188010680Y-112487800D01*
X187883680Y-112360800D01*
X187723660Y-112284600D01*
X187705880Y-112279520D01*
X187586500Y-112261740D01*
X187446800Y-112261740D01*
X187322340Y-112276980D01*
X187202960Y-112312540D01*
X187020080Y-112414140D01*
X186852440Y-112556380D01*
X186715280Y-112724020D01*
X186621300Y-112904360D01*
X186613680Y-112927220D01*
X186593360Y-113016120D01*
X186565420Y-113145660D01*
X186529860Y-113303140D01*
X186494300Y-113478400D01*
X186458740Y-113658740D01*
X186425720Y-113831460D01*
X186397780Y-113981320D01*
X186377460Y-114098160D01*
X186367300Y-114169280D01*
X186367300Y-114270880D01*
X186387620Y-114435980D01*
X186438420Y-114573140D01*
X186458740Y-114606160D01*
X186575580Y-114735700D01*
X186733060Y-114827140D01*
X186915940Y-114872860D01*
X187111520Y-114867780D01*
X187134380Y-114865240D01*
X187205500Y-114855080D01*
X187235980Y-114855080D01*
X187235980Y-114862700D01*
X187225820Y-114923660D01*
X187202960Y-115035420D01*
X187172480Y-115190360D01*
X187134380Y-115388480D01*
X187091200Y-115617080D01*
X187040400Y-115871080D01*
X186956580Y-116287640D01*
X186903240Y-116551800D01*
X186854980Y-116795640D01*
X186814340Y-117009000D01*
X186778780Y-117189340D01*
X186753380Y-117323960D01*
X186738140Y-117412860D01*
X186735600Y-117443340D01*
X186738140Y-117445880D01*
X186783860Y-117450960D01*
X186872760Y-117453500D01*
X186992140Y-117456040D01*
X187096280Y-117456040D01*
X187180100Y-117453500D01*
X187223280Y-117448420D01*
X187243600Y-117438260D01*
X187248680Y-117420480D01*
X187253760Y-117395080D01*
X187271540Y-117316340D01*
X187291860Y-117202040D01*
X187319800Y-117064880D01*
X187327420Y-117024240D01*
X187362980Y-116861680D01*
X187390920Y-116760080D01*
X187411240Y-116711820D01*
X187421400Y-116701660D01*
X187497600Y-116615300D01*
X187576340Y-116526400D01*
X187650000Y-116450200D01*
X187700800Y-116396860D01*
X187721120Y-116376540D01*
X187726200Y-116391780D01*
X187741440Y-116457820D01*
X187764300Y-116569580D01*
X187794780Y-116714360D01*
X187827800Y-116882000D01*
X187853200Y-116998840D01*
X187886220Y-117156320D01*
X187911620Y-117288400D01*
X187931940Y-117379840D01*
X187939560Y-117420480D01*
X187942100Y-117423020D01*
X187947180Y-117438260D01*
X187967500Y-117448420D01*
X188013220Y-117453500D01*
X188097040Y-117456040D01*
X188231660Y-117456040D01*
G36*
X192101260Y-117098980D02*
X192124120Y-117086280D01*
X192177460Y-117053260D01*
X192251120Y-117005000D01*
X192340020Y-116946580D01*
X192426380Y-116885620D01*
X192500040Y-116837360D01*
X192550840Y-116804340D01*
X192571160Y-116794180D01*
X192583860Y-116796720D01*
X192624500Y-116817040D01*
X192685460Y-116850060D01*
X192721020Y-116867840D01*
X192776900Y-116890700D01*
X192804840Y-116895780D01*
X192809920Y-116888160D01*
X192830240Y-116847520D01*
X192860720Y-116773860D01*
X192903900Y-116677340D01*
X192952160Y-116563040D01*
X193002960Y-116441120D01*
X193056300Y-116319200D01*
X193104560Y-116199820D01*
X193147740Y-116093140D01*
X193183300Y-116006780D01*
X193206160Y-115945820D01*
X193213780Y-115920420D01*
X193211240Y-115915340D01*
X193183300Y-115887400D01*
X193135040Y-115851840D01*
X193030900Y-115765480D01*
X192926760Y-115635940D01*
X192863260Y-115488620D01*
X192840400Y-115323520D01*
X192858180Y-115173660D01*
X192919140Y-115028880D01*
X193020740Y-114896800D01*
X193145200Y-114800280D01*
X193287440Y-114736780D01*
X193450000Y-114716460D01*
X193604940Y-114734240D01*
X193752260Y-114792660D01*
X193884340Y-114894260D01*
X193940220Y-114957760D01*
X194016420Y-115089840D01*
X194059600Y-115232080D01*
X194064680Y-115267640D01*
X194057060Y-115425120D01*
X194011340Y-115574980D01*
X193930060Y-115707060D01*
X193815760Y-115818820D01*
X193800520Y-115828980D01*
X193747180Y-115867080D01*
X193711620Y-115895020D01*
X193683680Y-115917880D01*
X193881800Y-116397940D01*
X193914820Y-116474140D01*
X193968160Y-116603680D01*
X194016420Y-116717980D01*
X194057060Y-116806880D01*
X194082460Y-116867840D01*
X194095160Y-116890700D01*
X194095160Y-116893240D01*
X194112940Y-116895780D01*
X194148500Y-116883080D01*
X194217080Y-116850060D01*
X194260260Y-116827200D01*
X194311060Y-116801800D01*
X194333920Y-116794180D01*
X194354240Y-116804340D01*
X194402500Y-116834820D01*
X194473620Y-116883080D01*
X194559980Y-116941500D01*
X194641260Y-116997380D01*
X194714920Y-117045640D01*
X194770800Y-117081200D01*
X194796200Y-117096440D01*
X194801280Y-117096440D01*
X194824140Y-117083740D01*
X194867320Y-117045640D01*
X194933360Y-116984680D01*
X195024800Y-116893240D01*
X195040040Y-116880540D01*
X195116240Y-116801800D01*
X195177200Y-116738300D01*
X195217840Y-116692580D01*
X195233080Y-116669720D01*
X195233080Y-116669720D01*
X195220380Y-116644320D01*
X195184820Y-116590980D01*
X195136560Y-116514780D01*
X195075600Y-116425880D01*
X194915580Y-116194740D01*
X195004480Y-115976300D01*
X195029880Y-115910260D01*
X195065440Y-115828980D01*
X195090840Y-115773100D01*
X195103540Y-115747700D01*
X195126400Y-115737540D01*
X195184820Y-115724840D01*
X195271180Y-115707060D01*
X195375320Y-115686740D01*
X195474380Y-115668960D01*
X195560740Y-115651180D01*
X195626780Y-115638480D01*
X195654720Y-115633400D01*
X195662340Y-115630860D01*
X195667420Y-115615620D01*
X195669960Y-115585140D01*
X195672500Y-115531800D01*
X195675040Y-115447980D01*
X195675040Y-115323520D01*
X195675040Y-115310820D01*
X195672500Y-115193980D01*
X195672500Y-115100000D01*
X195667420Y-115041580D01*
X195664880Y-115016180D01*
X195664880Y-115016180D01*
X195636940Y-115011100D01*
X195573440Y-114995860D01*
X195484540Y-114980620D01*
X195380400Y-114960300D01*
X195372780Y-114957760D01*
X195268640Y-114937440D01*
X195179740Y-114919660D01*
X195118780Y-114904420D01*
X195090840Y-114896800D01*
X195085760Y-114889180D01*
X195065440Y-114848540D01*
X195034960Y-114782500D01*
X194999400Y-114703760D01*
X194966380Y-114619940D01*
X194935900Y-114546280D01*
X194915580Y-114490400D01*
X194910500Y-114465000D01*
X194910500Y-114465000D01*
X194925740Y-114439600D01*
X194961300Y-114386260D01*
X195012100Y-114310060D01*
X195075600Y-114221160D01*
X195078140Y-114213540D01*
X195139100Y-114124640D01*
X195189900Y-114048440D01*
X195220380Y-113995100D01*
X195233080Y-113972240D01*
X195233080Y-113969700D01*
X195212760Y-113944300D01*
X195167040Y-113893500D01*
X195103540Y-113824920D01*
X195024800Y-113746180D01*
X194999400Y-113720780D01*
X194913040Y-113636960D01*
X194854620Y-113581080D01*
X194816520Y-113553140D01*
X194798740Y-113545520D01*
X194798740Y-113545520D01*
X194770800Y-113563300D01*
X194714920Y-113598860D01*
X194638720Y-113652200D01*
X194547280Y-113713160D01*
X194542200Y-113715700D01*
X194453300Y-113776660D01*
X194379640Y-113827460D01*
X194326300Y-113863020D01*
X194303440Y-113875720D01*
X194298360Y-113875720D01*
X194262800Y-113865560D01*
X194199300Y-113842700D01*
X194123100Y-113812220D01*
X194039280Y-113779200D01*
X193965620Y-113748720D01*
X193909740Y-113723320D01*
X193881800Y-113708080D01*
X193881800Y-113705540D01*
X193871640Y-113675060D01*
X193856400Y-113609020D01*
X193838620Y-113517580D01*
X193818300Y-113408360D01*
X193813220Y-113390580D01*
X193792900Y-113283900D01*
X193777660Y-113197540D01*
X193764960Y-113136580D01*
X193757340Y-113111180D01*
X193742100Y-113108640D01*
X193691300Y-113103560D01*
X193612560Y-113101020D01*
X193516040Y-113101020D01*
X193416980Y-113101020D01*
X193317920Y-113103560D01*
X193234100Y-113106100D01*
X193175680Y-113111180D01*
X193150280Y-113116260D01*
X193147740Y-113116260D01*
X193140120Y-113149280D01*
X193124880Y-113215320D01*
X193107100Y-113309300D01*
X193084240Y-113418520D01*
X193081700Y-113436300D01*
X193061380Y-113542980D01*
X193043600Y-113629340D01*
X193030900Y-113690300D01*
X193023280Y-113713160D01*
X193015660Y-113718240D01*
X192969940Y-113736020D01*
X192898820Y-113766500D01*
X192812460Y-113802060D01*
X192609260Y-113883340D01*
X192357800Y-113713160D01*
X192334940Y-113697920D01*
X192246040Y-113636960D01*
X192172380Y-113586160D01*
X192121580Y-113553140D01*
X192098720Y-113542980D01*
X192098720Y-113542980D01*
X192073320Y-113565840D01*
X192022520Y-113611560D01*
X191956480Y-113677600D01*
X191877740Y-113756340D01*
X191819320Y-113812220D01*
X191750740Y-113883340D01*
X191705020Y-113931600D01*
X191682160Y-113962080D01*
X191674540Y-113979860D01*
X191677080Y-113992560D01*
X191692320Y-114017960D01*
X191727880Y-114071300D01*
X191781220Y-114147500D01*
X191842180Y-114236400D01*
X191890440Y-114310060D01*
X191946320Y-114393880D01*
X191981880Y-114454840D01*
X191992040Y-114482780D01*
X191989500Y-114495480D01*
X191971720Y-114543740D01*
X191943780Y-114617400D01*
X191905680Y-114706300D01*
X191819320Y-114904420D01*
X191689780Y-114929820D01*
X191611040Y-114942520D01*
X191499280Y-114965380D01*
X191395140Y-114985700D01*
X191230040Y-115016180D01*
X191224960Y-115618160D01*
X191250360Y-115628320D01*
X191275760Y-115635940D01*
X191336720Y-115648640D01*
X191423080Y-115666420D01*
X191524680Y-115686740D01*
X191611040Y-115701980D01*
X191699940Y-115719760D01*
X191763440Y-115732460D01*
X191791380Y-115737540D01*
X191799000Y-115747700D01*
X191819320Y-115788340D01*
X191852340Y-115856920D01*
X191885360Y-115938200D01*
X191920920Y-116022020D01*
X191951400Y-116100760D01*
X191974260Y-116159180D01*
X191981880Y-116192200D01*
X191969180Y-116215060D01*
X191936160Y-116265860D01*
X191887900Y-116339520D01*
X191829480Y-116425880D01*
X191768520Y-116514780D01*
X191717720Y-116588440D01*
X191684700Y-116641780D01*
X191669460Y-116667180D01*
X191677080Y-116684960D01*
X191710100Y-116725600D01*
X191776140Y-116794180D01*
X191875200Y-116890700D01*
X191890440Y-116905940D01*
X191969180Y-116982140D01*
X192035220Y-117043100D01*
X192080940Y-117083740D01*
X192101260Y-117098980D01*
X192101260Y-117098980D01*
G37*
X192101260Y-117098980D02*
X192124120Y-117086280D01*
X192177460Y-117053260D01*
X192251120Y-117005000D01*
X192340020Y-116946580D01*
X192426380Y-116885620D01*
X192500040Y-116837360D01*
X192550840Y-116804340D01*
X192571160Y-116794180D01*
X192583860Y-116796720D01*
X192624500Y-116817040D01*
X192685460Y-116850060D01*
X192721020Y-116867840D01*
X192776900Y-116890700D01*
X192804840Y-116895780D01*
X192809920Y-116888160D01*
X192830240Y-116847520D01*
X192860720Y-116773860D01*
X192903900Y-116677340D01*
X192952160Y-116563040D01*
X193002960Y-116441120D01*
X193056300Y-116319200D01*
X193104560Y-116199820D01*
X193147740Y-116093140D01*
X193183300Y-116006780D01*
X193206160Y-115945820D01*
X193213780Y-115920420D01*
X193211240Y-115915340D01*
X193183300Y-115887400D01*
X193135040Y-115851840D01*
X193030900Y-115765480D01*
X192926760Y-115635940D01*
X192863260Y-115488620D01*
X192840400Y-115323520D01*
X192858180Y-115173660D01*
X192919140Y-115028880D01*
X193020740Y-114896800D01*
X193145200Y-114800280D01*
X193287440Y-114736780D01*
X193450000Y-114716460D01*
X193604940Y-114734240D01*
X193752260Y-114792660D01*
X193884340Y-114894260D01*
X193940220Y-114957760D01*
X194016420Y-115089840D01*
X194059600Y-115232080D01*
X194064680Y-115267640D01*
X194057060Y-115425120D01*
X194011340Y-115574980D01*
X193930060Y-115707060D01*
X193815760Y-115818820D01*
X193800520Y-115828980D01*
X193747180Y-115867080D01*
X193711620Y-115895020D01*
X193683680Y-115917880D01*
X193881800Y-116397940D01*
X193914820Y-116474140D01*
X193968160Y-116603680D01*
X194016420Y-116717980D01*
X194057060Y-116806880D01*
X194082460Y-116867840D01*
X194095160Y-116890700D01*
X194095160Y-116893240D01*
X194112940Y-116895780D01*
X194148500Y-116883080D01*
X194217080Y-116850060D01*
X194260260Y-116827200D01*
X194311060Y-116801800D01*
X194333920Y-116794180D01*
X194354240Y-116804340D01*
X194402500Y-116834820D01*
X194473620Y-116883080D01*
X194559980Y-116941500D01*
X194641260Y-116997380D01*
X194714920Y-117045640D01*
X194770800Y-117081200D01*
X194796200Y-117096440D01*
X194801280Y-117096440D01*
X194824140Y-117083740D01*
X194867320Y-117045640D01*
X194933360Y-116984680D01*
X195024800Y-116893240D01*
X195040040Y-116880540D01*
X195116240Y-116801800D01*
X195177200Y-116738300D01*
X195217840Y-116692580D01*
X195233080Y-116669720D01*
X195233080Y-116669720D01*
X195220380Y-116644320D01*
X195184820Y-116590980D01*
X195136560Y-116514780D01*
X195075600Y-116425880D01*
X194915580Y-116194740D01*
X195004480Y-115976300D01*
X195029880Y-115910260D01*
X195065440Y-115828980D01*
X195090840Y-115773100D01*
X195103540Y-115747700D01*
X195126400Y-115737540D01*
X195184820Y-115724840D01*
X195271180Y-115707060D01*
X195375320Y-115686740D01*
X195474380Y-115668960D01*
X195560740Y-115651180D01*
X195626780Y-115638480D01*
X195654720Y-115633400D01*
X195662340Y-115630860D01*
X195667420Y-115615620D01*
X195669960Y-115585140D01*
X195672500Y-115531800D01*
X195675040Y-115447980D01*
X195675040Y-115323520D01*
X195675040Y-115310820D01*
X195672500Y-115193980D01*
X195672500Y-115100000D01*
X195667420Y-115041580D01*
X195664880Y-115016180D01*
X195664880Y-115016180D01*
X195636940Y-115011100D01*
X195573440Y-114995860D01*
X195484540Y-114980620D01*
X195380400Y-114960300D01*
X195372780Y-114957760D01*
X195268640Y-114937440D01*
X195179740Y-114919660D01*
X195118780Y-114904420D01*
X195090840Y-114896800D01*
X195085760Y-114889180D01*
X195065440Y-114848540D01*
X195034960Y-114782500D01*
X194999400Y-114703760D01*
X194966380Y-114619940D01*
X194935900Y-114546280D01*
X194915580Y-114490400D01*
X194910500Y-114465000D01*
X194910500Y-114465000D01*
X194925740Y-114439600D01*
X194961300Y-114386260D01*
X195012100Y-114310060D01*
X195075600Y-114221160D01*
X195078140Y-114213540D01*
X195139100Y-114124640D01*
X195189900Y-114048440D01*
X195220380Y-113995100D01*
X195233080Y-113972240D01*
X195233080Y-113969700D01*
X195212760Y-113944300D01*
X195167040Y-113893500D01*
X195103540Y-113824920D01*
X195024800Y-113746180D01*
X194999400Y-113720780D01*
X194913040Y-113636960D01*
X194854620Y-113581080D01*
X194816520Y-113553140D01*
X194798740Y-113545520D01*
X194798740Y-113545520D01*
X194770800Y-113563300D01*
X194714920Y-113598860D01*
X194638720Y-113652200D01*
X194547280Y-113713160D01*
X194542200Y-113715700D01*
X194453300Y-113776660D01*
X194379640Y-113827460D01*
X194326300Y-113863020D01*
X194303440Y-113875720D01*
X194298360Y-113875720D01*
X194262800Y-113865560D01*
X194199300Y-113842700D01*
X194123100Y-113812220D01*
X194039280Y-113779200D01*
X193965620Y-113748720D01*
X193909740Y-113723320D01*
X193881800Y-113708080D01*
X193881800Y-113705540D01*
X193871640Y-113675060D01*
X193856400Y-113609020D01*
X193838620Y-113517580D01*
X193818300Y-113408360D01*
X193813220Y-113390580D01*
X193792900Y-113283900D01*
X193777660Y-113197540D01*
X193764960Y-113136580D01*
X193757340Y-113111180D01*
X193742100Y-113108640D01*
X193691300Y-113103560D01*
X193612560Y-113101020D01*
X193516040Y-113101020D01*
X193416980Y-113101020D01*
X193317920Y-113103560D01*
X193234100Y-113106100D01*
X193175680Y-113111180D01*
X193150280Y-113116260D01*
X193147740Y-113116260D01*
X193140120Y-113149280D01*
X193124880Y-113215320D01*
X193107100Y-113309300D01*
X193084240Y-113418520D01*
X193081700Y-113436300D01*
X193061380Y-113542980D01*
X193043600Y-113629340D01*
X193030900Y-113690300D01*
X193023280Y-113713160D01*
X193015660Y-113718240D01*
X192969940Y-113736020D01*
X192898820Y-113766500D01*
X192812460Y-113802060D01*
X192609260Y-113883340D01*
X192357800Y-113713160D01*
X192334940Y-113697920D01*
X192246040Y-113636960D01*
X192172380Y-113586160D01*
X192121580Y-113553140D01*
X192098720Y-113542980D01*
X192098720Y-113542980D01*
X192073320Y-113565840D01*
X192022520Y-113611560D01*
X191956480Y-113677600D01*
X191877740Y-113756340D01*
X191819320Y-113812220D01*
X191750740Y-113883340D01*
X191705020Y-113931600D01*
X191682160Y-113962080D01*
X191674540Y-113979860D01*
X191677080Y-113992560D01*
X191692320Y-114017960D01*
X191727880Y-114071300D01*
X191781220Y-114147500D01*
X191842180Y-114236400D01*
X191890440Y-114310060D01*
X191946320Y-114393880D01*
X191981880Y-114454840D01*
X191992040Y-114482780D01*
X191989500Y-114495480D01*
X191971720Y-114543740D01*
X191943780Y-114617400D01*
X191905680Y-114706300D01*
X191819320Y-114904420D01*
X191689780Y-114929820D01*
X191611040Y-114942520D01*
X191499280Y-114965380D01*
X191395140Y-114985700D01*
X191230040Y-115016180D01*
X191224960Y-115618160D01*
X191250360Y-115628320D01*
X191275760Y-115635940D01*
X191336720Y-115648640D01*
X191423080Y-115666420D01*
X191524680Y-115686740D01*
X191611040Y-115701980D01*
X191699940Y-115719760D01*
X191763440Y-115732460D01*
X191791380Y-115737540D01*
X191799000Y-115747700D01*
X191819320Y-115788340D01*
X191852340Y-115856920D01*
X191885360Y-115938200D01*
X191920920Y-116022020D01*
X191951400Y-116100760D01*
X191974260Y-116159180D01*
X191981880Y-116192200D01*
X191969180Y-116215060D01*
X191936160Y-116265860D01*
X191887900Y-116339520D01*
X191829480Y-116425880D01*
X191768520Y-116514780D01*
X191717720Y-116588440D01*
X191684700Y-116641780D01*
X191669460Y-116667180D01*
X191677080Y-116684960D01*
X191710100Y-116725600D01*
X191776140Y-116794180D01*
X191875200Y-116890700D01*
X191890440Y-116905940D01*
X191969180Y-116982140D01*
X192035220Y-117043100D01*
X192080940Y-117083740D01*
X192101260Y-117098980D01*
D12*
X136433334Y-88007143D02*
X136385715Y-88054762D01*
X136242858Y-88102381D01*
X136147620Y-88102381D01*
X136004762Y-88054762D01*
X135909524Y-87959524D01*
X135861905Y-87864286D01*
X135814286Y-87673810D01*
X135814286Y-87530952D01*
X135861905Y-87340476D01*
X135909524Y-87245238D01*
X136004762Y-87150000D01*
X136147620Y-87102381D01*
X136242858Y-87102381D01*
X136385715Y-87150000D01*
X136433334Y-87197619D01*
X137385715Y-88102381D02*
X136814286Y-88102381D01*
X137100000Y-88102381D02*
X137100000Y-87102381D01*
X137004762Y-87245238D01*
X136909524Y-87340476D01*
X136814286Y-87388095D01*
X116633334Y-84207143D02*
X116585715Y-84254762D01*
X116442858Y-84302381D01*
X116347620Y-84302381D01*
X116204762Y-84254762D01*
X116109524Y-84159524D01*
X116061905Y-84064286D01*
X116014286Y-83873810D01*
X116014286Y-83730952D01*
X116061905Y-83540476D01*
X116109524Y-83445238D01*
X116204762Y-83350000D01*
X116347620Y-83302381D01*
X116442858Y-83302381D01*
X116585715Y-83350000D01*
X116633334Y-83397619D01*
X117014286Y-83397619D02*
X117061905Y-83350000D01*
X117157143Y-83302381D01*
X117395239Y-83302381D01*
X117490477Y-83350000D01*
X117538096Y-83397619D01*
X117585715Y-83492857D01*
X117585715Y-83588095D01*
X117538096Y-83730952D01*
X116966667Y-84302381D01*
X117585715Y-84302381D01*
X165733334Y-79107143D02*
X165685715Y-79154762D01*
X165542858Y-79202381D01*
X165447620Y-79202381D01*
X165304762Y-79154762D01*
X165209524Y-79059524D01*
X165161905Y-78964286D01*
X165114286Y-78773810D01*
X165114286Y-78630952D01*
X165161905Y-78440476D01*
X165209524Y-78345238D01*
X165304762Y-78250000D01*
X165447620Y-78202381D01*
X165542858Y-78202381D01*
X165685715Y-78250000D01*
X165733334Y-78297619D01*
X166066667Y-78202381D02*
X166685715Y-78202381D01*
X166352381Y-78583333D01*
X166495239Y-78583333D01*
X166590477Y-78630952D01*
X166638096Y-78678571D01*
X166685715Y-78773810D01*
X166685715Y-79011905D01*
X166638096Y-79107143D01*
X166590477Y-79154762D01*
X166495239Y-79202381D01*
X166209524Y-79202381D01*
X166114286Y-79154762D01*
X166066667Y-79107143D01*
X165833334Y-82907143D02*
X165785715Y-82954762D01*
X165642858Y-83002381D01*
X165547620Y-83002381D01*
X165404762Y-82954762D01*
X165309524Y-82859524D01*
X165261905Y-82764286D01*
X165214286Y-82573810D01*
X165214286Y-82430952D01*
X165261905Y-82240476D01*
X165309524Y-82145238D01*
X165404762Y-82050000D01*
X165547620Y-82002381D01*
X165642858Y-82002381D01*
X165785715Y-82050000D01*
X165833334Y-82097619D01*
X166690477Y-82335714D02*
X166690477Y-83002381D01*
X166452381Y-81954762D02*
X166214286Y-82669048D01*
X166833334Y-82669048D01*
X120733334Y-93307143D02*
X120685715Y-93354762D01*
X120542858Y-93402381D01*
X120447620Y-93402381D01*
X120304762Y-93354762D01*
X120209524Y-93259524D01*
X120161905Y-93164286D01*
X120114286Y-92973810D01*
X120114286Y-92830952D01*
X120161905Y-92640476D01*
X120209524Y-92545238D01*
X120304762Y-92450000D01*
X120447620Y-92402381D01*
X120542858Y-92402381D01*
X120685715Y-92450000D01*
X120733334Y-92497619D01*
X121638096Y-92402381D02*
X121161905Y-92402381D01*
X121114286Y-92878571D01*
X121161905Y-92830952D01*
X121257143Y-92783333D01*
X121495239Y-92783333D01*
X121590477Y-92830952D01*
X121638096Y-92878571D01*
X121685715Y-92973810D01*
X121685715Y-93211905D01*
X121638096Y-93307143D01*
X121590477Y-93354762D01*
X121495239Y-93402381D01*
X121257143Y-93402381D01*
X121161905Y-93354762D01*
X121114286Y-93307143D01*
X108433334Y-86657143D02*
X108385715Y-86704762D01*
X108242858Y-86752381D01*
X108147620Y-86752381D01*
X108004762Y-86704762D01*
X107909524Y-86609524D01*
X107861905Y-86514286D01*
X107814286Y-86323810D01*
X107814286Y-86180952D01*
X107861905Y-85990476D01*
X107909524Y-85895238D01*
X108004762Y-85800000D01*
X108147620Y-85752381D01*
X108242858Y-85752381D01*
X108385715Y-85800000D01*
X108433334Y-85847619D01*
X109290477Y-85752381D02*
X109100000Y-85752381D01*
X109004762Y-85800000D01*
X108957143Y-85847619D01*
X108861905Y-85990476D01*
X108814286Y-86180952D01*
X108814286Y-86561905D01*
X108861905Y-86657143D01*
X108909524Y-86704762D01*
X109004762Y-86752381D01*
X109195239Y-86752381D01*
X109290477Y-86704762D01*
X109338096Y-86657143D01*
X109385715Y-86561905D01*
X109385715Y-86323810D01*
X109338096Y-86228571D01*
X109290477Y-86180952D01*
X109195239Y-86133333D01*
X109004762Y-86133333D01*
X108909524Y-86180952D01*
X108861905Y-86228571D01*
X108814286Y-86323810D01*
X142533334Y-91307143D02*
X142485715Y-91354762D01*
X142342858Y-91402381D01*
X142247620Y-91402381D01*
X142104762Y-91354762D01*
X142009524Y-91259524D01*
X141961905Y-91164286D01*
X141914286Y-90973810D01*
X141914286Y-90830952D01*
X141961905Y-90640476D01*
X142009524Y-90545238D01*
X142104762Y-90450000D01*
X142247620Y-90402381D01*
X142342858Y-90402381D01*
X142485715Y-90450000D01*
X142533334Y-90497619D01*
X142866667Y-90402381D02*
X143533334Y-90402381D01*
X143104762Y-91402381D01*
X121033334Y-85507143D02*
X120985715Y-85554762D01*
X120842858Y-85602381D01*
X120747620Y-85602381D01*
X120604762Y-85554762D01*
X120509524Y-85459524D01*
X120461905Y-85364286D01*
X120414286Y-85173810D01*
X120414286Y-85030952D01*
X120461905Y-84840476D01*
X120509524Y-84745238D01*
X120604762Y-84650000D01*
X120747620Y-84602381D01*
X120842858Y-84602381D01*
X120985715Y-84650000D01*
X121033334Y-84697619D01*
X121604762Y-85030952D02*
X121509524Y-84983333D01*
X121461905Y-84935714D01*
X121414286Y-84840476D01*
X121414286Y-84792857D01*
X121461905Y-84697619D01*
X121509524Y-84650000D01*
X121604762Y-84602381D01*
X121795239Y-84602381D01*
X121890477Y-84650000D01*
X121938096Y-84697619D01*
X121985715Y-84792857D01*
X121985715Y-84840476D01*
X121938096Y-84935714D01*
X121890477Y-84983333D01*
X121795239Y-85030952D01*
X121604762Y-85030952D01*
X121509524Y-85078571D01*
X121461905Y-85126190D01*
X121414286Y-85221429D01*
X121414286Y-85411905D01*
X121461905Y-85507143D01*
X121509524Y-85554762D01*
X121604762Y-85602381D01*
X121795239Y-85602381D01*
X121890477Y-85554762D01*
X121938096Y-85507143D01*
X121985715Y-85411905D01*
X121985715Y-85221429D01*
X121938096Y-85126190D01*
X121890477Y-85078571D01*
X121795239Y-85030952D01*
X129033334Y-93257143D02*
X128985715Y-93304762D01*
X128842858Y-93352381D01*
X128747620Y-93352381D01*
X128604762Y-93304762D01*
X128509524Y-93209524D01*
X128461905Y-93114286D01*
X128414286Y-92923810D01*
X128414286Y-92780952D01*
X128461905Y-92590476D01*
X128509524Y-92495238D01*
X128604762Y-92400000D01*
X128747620Y-92352381D01*
X128842858Y-92352381D01*
X128985715Y-92400000D01*
X129033334Y-92447619D01*
X129509524Y-93352381D02*
X129700000Y-93352381D01*
X129795239Y-93304762D01*
X129842858Y-93257143D01*
X129938096Y-93114286D01*
X129985715Y-92923810D01*
X129985715Y-92542857D01*
X129938096Y-92447619D01*
X129890477Y-92400000D01*
X129795239Y-92352381D01*
X129604762Y-92352381D01*
X129509524Y-92400000D01*
X129461905Y-92447619D01*
X129414286Y-92542857D01*
X129414286Y-92780952D01*
X129461905Y-92876190D01*
X129509524Y-92923810D01*
X129604762Y-92971429D01*
X129795239Y-92971429D01*
X129890477Y-92923810D01*
X129938096Y-92876190D01*
X129985715Y-92780952D01*
X124157143Y-99057143D02*
X124109524Y-99104762D01*
X123966667Y-99152381D01*
X123871429Y-99152381D01*
X123728571Y-99104762D01*
X123633333Y-99009524D01*
X123585714Y-98914286D01*
X123538095Y-98723810D01*
X123538095Y-98580952D01*
X123585714Y-98390476D01*
X123633333Y-98295238D01*
X123728571Y-98200000D01*
X123871429Y-98152381D01*
X123966667Y-98152381D01*
X124109524Y-98200000D01*
X124157143Y-98247619D01*
X125109524Y-99152381D02*
X124538095Y-99152381D01*
X124823809Y-99152381D02*
X124823809Y-98152381D01*
X124728571Y-98295238D01*
X124633333Y-98390476D01*
X124538095Y-98438095D01*
X125728571Y-98152381D02*
X125823810Y-98152381D01*
X125919048Y-98200000D01*
X125966667Y-98247619D01*
X126014286Y-98342857D01*
X126061905Y-98533333D01*
X126061905Y-98771429D01*
X126014286Y-98961905D01*
X125966667Y-99057143D01*
X125919048Y-99104762D01*
X125823810Y-99152381D01*
X125728571Y-99152381D01*
X125633333Y-99104762D01*
X125585714Y-99057143D01*
X125538095Y-98961905D01*
X125490476Y-98771429D01*
X125490476Y-98533333D01*
X125538095Y-98342857D01*
X125585714Y-98247619D01*
X125633333Y-98200000D01*
X125728571Y-98152381D01*
X123057143Y-80657143D02*
X123009524Y-80704762D01*
X122866667Y-80752381D01*
X122771429Y-80752381D01*
X122628571Y-80704762D01*
X122533333Y-80609524D01*
X122485714Y-80514286D01*
X122438095Y-80323810D01*
X122438095Y-80180952D01*
X122485714Y-79990476D01*
X122533333Y-79895238D01*
X122628571Y-79800000D01*
X122771429Y-79752381D01*
X122866667Y-79752381D01*
X123009524Y-79800000D01*
X123057143Y-79847619D01*
X124009524Y-80752381D02*
X123438095Y-80752381D01*
X123723809Y-80752381D02*
X123723809Y-79752381D01*
X123628571Y-79895238D01*
X123533333Y-79990476D01*
X123438095Y-80038095D01*
X124961905Y-80752381D02*
X124390476Y-80752381D01*
X124676190Y-80752381D02*
X124676190Y-79752381D01*
X124580952Y-79895238D01*
X124485714Y-79990476D01*
X124390476Y-80038095D01*
X110757143Y-84207143D02*
X110709524Y-84254762D01*
X110566667Y-84302381D01*
X110471429Y-84302381D01*
X110328571Y-84254762D01*
X110233333Y-84159524D01*
X110185714Y-84064286D01*
X110138095Y-83873810D01*
X110138095Y-83730952D01*
X110185714Y-83540476D01*
X110233333Y-83445238D01*
X110328571Y-83350000D01*
X110471429Y-83302381D01*
X110566667Y-83302381D01*
X110709524Y-83350000D01*
X110757143Y-83397619D01*
X111709524Y-84302381D02*
X111138095Y-84302381D01*
X111423809Y-84302381D02*
X111423809Y-83302381D01*
X111328571Y-83445238D01*
X111233333Y-83540476D01*
X111138095Y-83588095D01*
X112090476Y-83397619D02*
X112138095Y-83350000D01*
X112233333Y-83302381D01*
X112471429Y-83302381D01*
X112566667Y-83350000D01*
X112614286Y-83397619D01*
X112661905Y-83492857D01*
X112661905Y-83588095D01*
X112614286Y-83730952D01*
X112042857Y-84302381D01*
X112661905Y-84302381D01*
X118466667Y-93952381D02*
X118466667Y-94666667D01*
X118419047Y-94809524D01*
X118323809Y-94904762D01*
X118180952Y-94952381D01*
X118085714Y-94952381D01*
X119466667Y-94952381D02*
X118895238Y-94952381D01*
X119180952Y-94952381D02*
X119180952Y-93952381D01*
X119085714Y-94095238D01*
X118990476Y-94190476D01*
X118895238Y-94238095D01*
X142866667Y-81052381D02*
X142866667Y-81766667D01*
X142819047Y-81909524D01*
X142723809Y-82004762D01*
X142580952Y-82052381D01*
X142485714Y-82052381D01*
X143295238Y-81147619D02*
X143342857Y-81100000D01*
X143438095Y-81052381D01*
X143676191Y-81052381D01*
X143771429Y-81100000D01*
X143819048Y-81147619D01*
X143866667Y-81242857D01*
X143866667Y-81338095D01*
X143819048Y-81480952D01*
X143247619Y-82052381D01*
X143866667Y-82052381D01*
X135966667Y-81052381D02*
X135966667Y-81766667D01*
X135919047Y-81909524D01*
X135823809Y-82004762D01*
X135680952Y-82052381D01*
X135585714Y-82052381D01*
X136347619Y-81052381D02*
X136966667Y-81052381D01*
X136633333Y-81433333D01*
X136776191Y-81433333D01*
X136871429Y-81480952D01*
X136919048Y-81528571D01*
X136966667Y-81623810D01*
X136966667Y-81861905D01*
X136919048Y-81957143D01*
X136871429Y-82004762D01*
X136776191Y-82052381D01*
X136490476Y-82052381D01*
X136395238Y-82004762D01*
X136347619Y-81957143D01*
D11*
X102416667Y-83092857D02*
X102416667Y-83950000D01*
X102369047Y-84121429D01*
X102273809Y-84235714D01*
X102130952Y-84292857D01*
X102035714Y-84292857D01*
X103369048Y-83092857D02*
X102892857Y-83092857D01*
X102845238Y-83664286D01*
X102892857Y-83607143D01*
X102988095Y-83550000D01*
X103226191Y-83550000D01*
X103321429Y-83607143D01*
X103369048Y-83664286D01*
X103416667Y-83778571D01*
X103416667Y-84064286D01*
X103369048Y-84178571D01*
X103321429Y-84235714D01*
X103226191Y-84292857D01*
X102988095Y-84292857D01*
X102892857Y-84235714D01*
X102845238Y-84178571D01*
X102566667Y-67842857D02*
X102566667Y-68700000D01*
X102519047Y-68871429D01*
X102423809Y-68985714D01*
X102280952Y-69042857D01*
X102185714Y-69042857D01*
X103471429Y-67842857D02*
X103280952Y-67842857D01*
X103185714Y-67900000D01*
X103138095Y-67957143D01*
X103042857Y-68128571D01*
X102995238Y-68357143D01*
X102995238Y-68814286D01*
X103042857Y-68928571D01*
X103090476Y-68985714D01*
X103185714Y-69042857D01*
X103376191Y-69042857D01*
X103471429Y-68985714D01*
X103519048Y-68928571D01*
X103566667Y-68814286D01*
X103566667Y-68528571D01*
X103519048Y-68414286D01*
X103471429Y-68357143D01*
X103376191Y-68300000D01*
X103185714Y-68300000D01*
X103090476Y-68357143D01*
X103042857Y-68414286D01*
X102995238Y-68528571D01*
D12*
X139396667Y-52652381D02*
X139396667Y-53366667D01*
X139349047Y-53509524D01*
X139253809Y-53604762D01*
X139110952Y-53652381D01*
X139015714Y-53652381D01*
X139777619Y-52652381D02*
X140444286Y-52652381D01*
X140015714Y-53652381D01*
X114366667Y-93952381D02*
X114366667Y-94666667D01*
X114319047Y-94809524D01*
X114223809Y-94904762D01*
X114080952Y-94952381D01*
X113985714Y-94952381D01*
X114890476Y-94952381D02*
X115080952Y-94952381D01*
X115176191Y-94904762D01*
X115223810Y-94857143D01*
X115319048Y-94714286D01*
X115366667Y-94523810D01*
X115366667Y-94142857D01*
X115319048Y-94047619D01*
X115271429Y-94000000D01*
X115176191Y-93952381D01*
X114985714Y-93952381D01*
X114890476Y-94000000D01*
X114842857Y-94047619D01*
X114795238Y-94142857D01*
X114795238Y-94380952D01*
X114842857Y-94476190D01*
X114890476Y-94523810D01*
X114985714Y-94571429D01*
X115176191Y-94571429D01*
X115271429Y-94523810D01*
X115319048Y-94476190D01*
X115366667Y-94380952D01*
X160233334Y-70752381D02*
X159757143Y-70752381D01*
X159757143Y-69752381D01*
X161090477Y-70752381D02*
X160519048Y-70752381D01*
X160804762Y-70752381D02*
X160804762Y-69752381D01*
X160709524Y-69895238D01*
X160614286Y-69990476D01*
X160519048Y-70038095D01*
X131433334Y-81152381D02*
X130957143Y-81152381D01*
X130957143Y-80152381D01*
X131719048Y-80247619D02*
X131766667Y-80200000D01*
X131861905Y-80152381D01*
X132100001Y-80152381D01*
X132195239Y-80200000D01*
X132242858Y-80247619D01*
X132290477Y-80342857D01*
X132290477Y-80438095D01*
X132242858Y-80580952D01*
X131671429Y-81152381D01*
X132290477Y-81152381D01*
D13*
X149178571Y-58978571D02*
X149178571Y-57478571D01*
X149578571Y-58550000D01*
X149978571Y-57478571D01*
X149978571Y-58978571D01*
X151178572Y-58978571D02*
X150492857Y-58978571D01*
X150835715Y-58978571D02*
X150835715Y-57478571D01*
X150721429Y-57692857D01*
X150607143Y-57835714D01*
X150492857Y-57907143D01*
D12*
X149315762Y-94113619D02*
X149220524Y-94066000D01*
X149125286Y-93970762D01*
X148982429Y-93827905D01*
X148887190Y-93780286D01*
X148791952Y-93780286D01*
X148839571Y-94018381D02*
X148744333Y-93970762D01*
X148649095Y-93875524D01*
X148601476Y-93685048D01*
X148601476Y-93351714D01*
X148649095Y-93161238D01*
X148744333Y-93066000D01*
X148839571Y-93018381D01*
X149030048Y-93018381D01*
X149125286Y-93066000D01*
X149220524Y-93161238D01*
X149268143Y-93351714D01*
X149268143Y-93685048D01*
X149220524Y-93875524D01*
X149125286Y-93970762D01*
X149030048Y-94018381D01*
X148839571Y-94018381D01*
X150220524Y-94018381D02*
X149649095Y-94018381D01*
X149934809Y-94018381D02*
X149934809Y-93018381D01*
X149839571Y-93161238D01*
X149744333Y-93256476D01*
X149649095Y-93304095D01*
D21*
X136604762Y-92197619D02*
X136509524Y-92150000D01*
X136414286Y-92054762D01*
X136271429Y-91911905D01*
X136176190Y-91864286D01*
X136080952Y-91864286D01*
X136128571Y-92102381D02*
X136033333Y-92054762D01*
X135938095Y-91959524D01*
X135890476Y-91769048D01*
X135890476Y-91435714D01*
X135938095Y-91245238D01*
X136033333Y-91150000D01*
X136128571Y-91102381D01*
X136319048Y-91102381D01*
X136414286Y-91150000D01*
X136509524Y-91245238D01*
X136557143Y-91435714D01*
X136557143Y-91769048D01*
X136509524Y-91959524D01*
X136414286Y-92054762D01*
X136319048Y-92102381D01*
X136128571Y-92102381D01*
X136938095Y-91197619D02*
X136985714Y-91150000D01*
X137080952Y-91102381D01*
X137319048Y-91102381D01*
X137414286Y-91150000D01*
X137461905Y-91197619D01*
X137509524Y-91292857D01*
X137509524Y-91388095D01*
X137461905Y-91530952D01*
X136890476Y-92102381D01*
X137509524Y-92102381D01*
D12*
X128304762Y-84847619D02*
X128209524Y-84800000D01*
X128114286Y-84704762D01*
X127971429Y-84561905D01*
X127876190Y-84514286D01*
X127780952Y-84514286D01*
X127828571Y-84752381D02*
X127733333Y-84704762D01*
X127638095Y-84609524D01*
X127590476Y-84419048D01*
X127590476Y-84085714D01*
X127638095Y-83895238D01*
X127733333Y-83800000D01*
X127828571Y-83752381D01*
X128019048Y-83752381D01*
X128114286Y-83800000D01*
X128209524Y-83895238D01*
X128257143Y-84085714D01*
X128257143Y-84419048D01*
X128209524Y-84609524D01*
X128114286Y-84704762D01*
X128019048Y-84752381D01*
X127828571Y-84752381D01*
X128590476Y-83752381D02*
X129209524Y-83752381D01*
X128876190Y-84133333D01*
X129019048Y-84133333D01*
X129114286Y-84180952D01*
X129161905Y-84228571D01*
X129209524Y-84323810D01*
X129209524Y-84561905D01*
X129161905Y-84657143D01*
X129114286Y-84704762D01*
X129019048Y-84752381D01*
X128733333Y-84752381D01*
X128638095Y-84704762D01*
X128590476Y-84657143D01*
X164704762Y-89097619D02*
X164609524Y-89050000D01*
X164514286Y-88954762D01*
X164371429Y-88811905D01*
X164276190Y-88764286D01*
X164180952Y-88764286D01*
X164228571Y-89002381D02*
X164133333Y-88954762D01*
X164038095Y-88859524D01*
X163990476Y-88669048D01*
X163990476Y-88335714D01*
X164038095Y-88145238D01*
X164133333Y-88050000D01*
X164228571Y-88002381D01*
X164419048Y-88002381D01*
X164514286Y-88050000D01*
X164609524Y-88145238D01*
X164657143Y-88335714D01*
X164657143Y-88669048D01*
X164609524Y-88859524D01*
X164514286Y-88954762D01*
X164419048Y-89002381D01*
X164228571Y-89002381D01*
X165514286Y-88335714D02*
X165514286Y-89002381D01*
X165276190Y-87954762D02*
X165038095Y-88669048D01*
X165657143Y-88669048D01*
X164704762Y-94397619D02*
X164609524Y-94350000D01*
X164514286Y-94254762D01*
X164371429Y-94111905D01*
X164276190Y-94064286D01*
X164180952Y-94064286D01*
X164228571Y-94302381D02*
X164133333Y-94254762D01*
X164038095Y-94159524D01*
X163990476Y-93969048D01*
X163990476Y-93635714D01*
X164038095Y-93445238D01*
X164133333Y-93350000D01*
X164228571Y-93302381D01*
X164419048Y-93302381D01*
X164514286Y-93350000D01*
X164609524Y-93445238D01*
X164657143Y-93635714D01*
X164657143Y-93969048D01*
X164609524Y-94159524D01*
X164514286Y-94254762D01*
X164419048Y-94302381D01*
X164228571Y-94302381D01*
X165561905Y-93302381D02*
X165085714Y-93302381D01*
X165038095Y-93778571D01*
X165085714Y-93730952D01*
X165180952Y-93683333D01*
X165419048Y-93683333D01*
X165514286Y-93730952D01*
X165561905Y-93778571D01*
X165609524Y-93873810D01*
X165609524Y-94111905D01*
X165561905Y-94207143D01*
X165514286Y-94254762D01*
X165419048Y-94302381D01*
X165180952Y-94302381D01*
X165085714Y-94254762D01*
X165038095Y-94207143D01*
X149183334Y-89652381D02*
X148850000Y-89176190D01*
X148611905Y-89652381D02*
X148611905Y-88652381D01*
X148992858Y-88652381D01*
X149088096Y-88700000D01*
X149135715Y-88747619D01*
X149183334Y-88842857D01*
X149183334Y-88985714D01*
X149135715Y-89080952D01*
X149088096Y-89128571D01*
X148992858Y-89176190D01*
X148611905Y-89176190D01*
X150135715Y-89652381D02*
X149564286Y-89652381D01*
X149850000Y-89652381D02*
X149850000Y-88652381D01*
X149754762Y-88795238D01*
X149659524Y-88890476D01*
X149564286Y-88938095D01*
X144733334Y-95402381D02*
X144400000Y-94926190D01*
X144161905Y-95402381D02*
X144161905Y-94402381D01*
X144542858Y-94402381D01*
X144638096Y-94450000D01*
X144685715Y-94497619D01*
X144733334Y-94592857D01*
X144733334Y-94735714D01*
X144685715Y-94830952D01*
X144638096Y-94878571D01*
X144542858Y-94926190D01*
X144161905Y-94926190D01*
X145114286Y-94497619D02*
X145161905Y-94450000D01*
X145257143Y-94402381D01*
X145495239Y-94402381D01*
X145590477Y-94450000D01*
X145638096Y-94497619D01*
X145685715Y-94592857D01*
X145685715Y-94688095D01*
X145638096Y-94830952D01*
X145066667Y-95402381D01*
X145685715Y-95402381D01*
X105483334Y-92952381D02*
X105150000Y-92476190D01*
X104911905Y-92952381D02*
X104911905Y-91952381D01*
X105292858Y-91952381D01*
X105388096Y-92000000D01*
X105435715Y-92047619D01*
X105483334Y-92142857D01*
X105483334Y-92285714D01*
X105435715Y-92380952D01*
X105388096Y-92428571D01*
X105292858Y-92476190D01*
X104911905Y-92476190D01*
X105816667Y-91952381D02*
X106435715Y-91952381D01*
X106102381Y-92333333D01*
X106245239Y-92333333D01*
X106340477Y-92380952D01*
X106388096Y-92428571D01*
X106435715Y-92523810D01*
X106435715Y-92761905D01*
X106388096Y-92857143D01*
X106340477Y-92904762D01*
X106245239Y-92952381D01*
X105959524Y-92952381D01*
X105864286Y-92904762D01*
X105816667Y-92857143D01*
X140383334Y-95402381D02*
X140050000Y-94926190D01*
X139811905Y-95402381D02*
X139811905Y-94402381D01*
X140192858Y-94402381D01*
X140288096Y-94450000D01*
X140335715Y-94497619D01*
X140383334Y-94592857D01*
X140383334Y-94735714D01*
X140335715Y-94830952D01*
X140288096Y-94878571D01*
X140192858Y-94926190D01*
X139811905Y-94926190D01*
X141240477Y-94735714D02*
X141240477Y-95402381D01*
X141002381Y-94354762D02*
X140764286Y-95069048D01*
X141383334Y-95069048D01*
X120933334Y-89502381D02*
X120600000Y-89026190D01*
X120361905Y-89502381D02*
X120361905Y-88502381D01*
X120742858Y-88502381D01*
X120838096Y-88550000D01*
X120885715Y-88597619D01*
X120933334Y-88692857D01*
X120933334Y-88835714D01*
X120885715Y-88930952D01*
X120838096Y-88978571D01*
X120742858Y-89026190D01*
X120361905Y-89026190D01*
X121838096Y-88502381D02*
X121361905Y-88502381D01*
X121314286Y-88978571D01*
X121361905Y-88930952D01*
X121457143Y-88883333D01*
X121695239Y-88883333D01*
X121790477Y-88930952D01*
X121838096Y-88978571D01*
X121885715Y-89073810D01*
X121885715Y-89311905D01*
X121838096Y-89407143D01*
X121790477Y-89454762D01*
X121695239Y-89502381D01*
X121457143Y-89502381D01*
X121361905Y-89454762D01*
X121314286Y-89407143D01*
X142583334Y-87702381D02*
X142250000Y-87226190D01*
X142011905Y-87702381D02*
X142011905Y-86702381D01*
X142392858Y-86702381D01*
X142488096Y-86750000D01*
X142535715Y-86797619D01*
X142583334Y-86892857D01*
X142583334Y-87035714D01*
X142535715Y-87130952D01*
X142488096Y-87178571D01*
X142392858Y-87226190D01*
X142011905Y-87226190D01*
X143440477Y-86702381D02*
X143250000Y-86702381D01*
X143154762Y-86750000D01*
X143107143Y-86797619D01*
X143011905Y-86940476D01*
X142964286Y-87130952D01*
X142964286Y-87511905D01*
X143011905Y-87607143D01*
X143059524Y-87654762D01*
X143154762Y-87702381D01*
X143345239Y-87702381D01*
X143440477Y-87654762D01*
X143488096Y-87607143D01*
X143535715Y-87511905D01*
X143535715Y-87273810D01*
X143488096Y-87178571D01*
X143440477Y-87130952D01*
X143345239Y-87083333D01*
X143154762Y-87083333D01*
X143059524Y-87130952D01*
X143011905Y-87178571D01*
X142964286Y-87273810D01*
X124733334Y-93352381D02*
X124400000Y-92876190D01*
X124161905Y-93352381D02*
X124161905Y-92352381D01*
X124542858Y-92352381D01*
X124638096Y-92400000D01*
X124685715Y-92447619D01*
X124733334Y-92542857D01*
X124733334Y-92685714D01*
X124685715Y-92780952D01*
X124638096Y-92828571D01*
X124542858Y-92876190D01*
X124161905Y-92876190D01*
X125066667Y-92352381D02*
X125733334Y-92352381D01*
X125304762Y-93352381D01*
X139433334Y-82302381D02*
X139100000Y-81826190D01*
X138861905Y-82302381D02*
X138861905Y-81302381D01*
X139242858Y-81302381D01*
X139338096Y-81350000D01*
X139385715Y-81397619D01*
X139433334Y-81492857D01*
X139433334Y-81635714D01*
X139385715Y-81730952D01*
X139338096Y-81778571D01*
X139242858Y-81826190D01*
X138861905Y-81826190D01*
X140004762Y-81730952D02*
X139909524Y-81683333D01*
X139861905Y-81635714D01*
X139814286Y-81540476D01*
X139814286Y-81492857D01*
X139861905Y-81397619D01*
X139909524Y-81350000D01*
X140004762Y-81302381D01*
X140195239Y-81302381D01*
X140290477Y-81350000D01*
X140338096Y-81397619D01*
X140385715Y-81492857D01*
X140385715Y-81540476D01*
X140338096Y-81635714D01*
X140290477Y-81683333D01*
X140195239Y-81730952D01*
X140004762Y-81730952D01*
X139909524Y-81778571D01*
X139861905Y-81826190D01*
X139814286Y-81921429D01*
X139814286Y-82111905D01*
X139861905Y-82207143D01*
X139909524Y-82254762D01*
X140004762Y-82302381D01*
X140195239Y-82302381D01*
X140290477Y-82254762D01*
X140338096Y-82207143D01*
X140385715Y-82111905D01*
X140385715Y-81921429D01*
X140338096Y-81826190D01*
X140290477Y-81778571D01*
X140195239Y-81730952D01*
X160433334Y-98402381D02*
X160100000Y-97926190D01*
X159861905Y-98402381D02*
X159861905Y-97402381D01*
X160242858Y-97402381D01*
X160338096Y-97450000D01*
X160385715Y-97497619D01*
X160433334Y-97592857D01*
X160433334Y-97735714D01*
X160385715Y-97830952D01*
X160338096Y-97878571D01*
X160242858Y-97926190D01*
X159861905Y-97926190D01*
X160909524Y-98402381D02*
X161100000Y-98402381D01*
X161195239Y-98354762D01*
X161242858Y-98307143D01*
X161338096Y-98164286D01*
X161385715Y-97973810D01*
X161385715Y-97592857D01*
X161338096Y-97497619D01*
X161290477Y-97450000D01*
X161195239Y-97402381D01*
X161004762Y-97402381D01*
X160909524Y-97450000D01*
X160861905Y-97497619D01*
X160814286Y-97592857D01*
X160814286Y-97830952D01*
X160861905Y-97926190D01*
X160909524Y-97973810D01*
X161004762Y-98021429D01*
X161195239Y-98021429D01*
X161290477Y-97973810D01*
X161338096Y-97926190D01*
X161385715Y-97830952D01*
X159957143Y-92902381D02*
X159623809Y-92426190D01*
X159385714Y-92902381D02*
X159385714Y-91902381D01*
X159766667Y-91902381D01*
X159861905Y-91950000D01*
X159909524Y-91997619D01*
X159957143Y-92092857D01*
X159957143Y-92235714D01*
X159909524Y-92330952D01*
X159861905Y-92378571D01*
X159766667Y-92426190D01*
X159385714Y-92426190D01*
X160909524Y-92902381D02*
X160338095Y-92902381D01*
X160623809Y-92902381D02*
X160623809Y-91902381D01*
X160528571Y-92045238D01*
X160433333Y-92140476D01*
X160338095Y-92188095D01*
X161528571Y-91902381D02*
X161623810Y-91902381D01*
X161719048Y-91950000D01*
X161766667Y-91997619D01*
X161814286Y-92092857D01*
X161861905Y-92283333D01*
X161861905Y-92521429D01*
X161814286Y-92711905D01*
X161766667Y-92807143D01*
X161719048Y-92854762D01*
X161623810Y-92902381D01*
X161528571Y-92902381D01*
X161433333Y-92854762D01*
X161385714Y-92807143D01*
X161338095Y-92711905D01*
X161290476Y-92521429D01*
X161290476Y-92283333D01*
X161338095Y-92092857D01*
X161385714Y-91997619D01*
X161433333Y-91950000D01*
X161528571Y-91902381D01*
X194057143Y-97152381D02*
X193723809Y-96676190D01*
X193485714Y-97152381D02*
X193485714Y-96152381D01*
X193866667Y-96152381D01*
X193961905Y-96200000D01*
X194009524Y-96247619D01*
X194057143Y-96342857D01*
X194057143Y-96485714D01*
X194009524Y-96580952D01*
X193961905Y-96628571D01*
X193866667Y-96676190D01*
X193485714Y-96676190D01*
X195009524Y-97152381D02*
X194438095Y-97152381D01*
X194723809Y-97152381D02*
X194723809Y-96152381D01*
X194628571Y-96295238D01*
X194533333Y-96390476D01*
X194438095Y-96438095D01*
X195961905Y-97152381D02*
X195390476Y-97152381D01*
X195676190Y-97152381D02*
X195676190Y-96152381D01*
X195580952Y-96295238D01*
X195485714Y-96390476D01*
X195390476Y-96438095D01*
X194057143Y-88452381D02*
X193723809Y-87976190D01*
X193485714Y-88452381D02*
X193485714Y-87452381D01*
X193866667Y-87452381D01*
X193961905Y-87500000D01*
X194009524Y-87547619D01*
X194057143Y-87642857D01*
X194057143Y-87785714D01*
X194009524Y-87880952D01*
X193961905Y-87928571D01*
X193866667Y-87976190D01*
X193485714Y-87976190D01*
X195009524Y-88452381D02*
X194438095Y-88452381D01*
X194723809Y-88452381D02*
X194723809Y-87452381D01*
X194628571Y-87595238D01*
X194533333Y-87690476D01*
X194438095Y-87738095D01*
X195390476Y-87547619D02*
X195438095Y-87500000D01*
X195533333Y-87452381D01*
X195771429Y-87452381D01*
X195866667Y-87500000D01*
X195914286Y-87547619D01*
X195961905Y-87642857D01*
X195961905Y-87738095D01*
X195914286Y-87880952D01*
X195342857Y-88452381D01*
X195961905Y-88452381D01*
X159238095Y-111504762D02*
X159380952Y-111552381D01*
X159619048Y-111552381D01*
X159714286Y-111504762D01*
X159761905Y-111457143D01*
X159809524Y-111361905D01*
X159809524Y-111266667D01*
X159761905Y-111171429D01*
X159714286Y-111123810D01*
X159619048Y-111076190D01*
X159428571Y-111028571D01*
X159333333Y-110980952D01*
X159285714Y-110933333D01*
X159238095Y-110838095D01*
X159238095Y-110742857D01*
X159285714Y-110647619D01*
X159333333Y-110600000D01*
X159428571Y-110552381D01*
X159666667Y-110552381D01*
X159809524Y-110600000D01*
X160761905Y-111552381D02*
X160190476Y-111552381D01*
X160476190Y-111552381D02*
X160476190Y-110552381D01*
X160380952Y-110695238D01*
X160285714Y-110790476D01*
X160190476Y-110838095D01*
X118388095Y-116604762D02*
X118530952Y-116652381D01*
X118769048Y-116652381D01*
X118864286Y-116604762D01*
X118911905Y-116557143D01*
X118959524Y-116461905D01*
X118959524Y-116366667D01*
X118911905Y-116271429D01*
X118864286Y-116223810D01*
X118769048Y-116176190D01*
X118578571Y-116128571D01*
X118483333Y-116080952D01*
X118435714Y-116033333D01*
X118388095Y-115938095D01*
X118388095Y-115842857D01*
X118435714Y-115747619D01*
X118483333Y-115700000D01*
X118578571Y-115652381D01*
X118816667Y-115652381D01*
X118959524Y-115700000D01*
X119340476Y-115747619D02*
X119388095Y-115700000D01*
X119483333Y-115652381D01*
X119721429Y-115652381D01*
X119816667Y-115700000D01*
X119864286Y-115747619D01*
X119911905Y-115842857D01*
X119911905Y-115938095D01*
X119864286Y-116080952D01*
X119292857Y-116652381D01*
X119911905Y-116652381D01*
X169238095Y-121504762D02*
X169380952Y-121552381D01*
X169619048Y-121552381D01*
X169714286Y-121504762D01*
X169761905Y-121457143D01*
X169809524Y-121361905D01*
X169809524Y-121266667D01*
X169761905Y-121171429D01*
X169714286Y-121123810D01*
X169619048Y-121076190D01*
X169428571Y-121028571D01*
X169333333Y-120980952D01*
X169285714Y-120933333D01*
X169238095Y-120838095D01*
X169238095Y-120742857D01*
X169285714Y-120647619D01*
X169333333Y-120600000D01*
X169428571Y-120552381D01*
X169666667Y-120552381D01*
X169809524Y-120600000D01*
X170142857Y-120552381D02*
X170761905Y-120552381D01*
X170428571Y-120933333D01*
X170571429Y-120933333D01*
X170666667Y-120980952D01*
X170714286Y-121028571D01*
X170761905Y-121123810D01*
X170761905Y-121361905D01*
X170714286Y-121457143D01*
X170666667Y-121504762D01*
X170571429Y-121552381D01*
X170285714Y-121552381D01*
X170190476Y-121504762D01*
X170142857Y-121457143D01*
X169238095Y-101604762D02*
X169380952Y-101652381D01*
X169619048Y-101652381D01*
X169714286Y-101604762D01*
X169761905Y-101557143D01*
X169809524Y-101461905D01*
X169809524Y-101366667D01*
X169761905Y-101271429D01*
X169714286Y-101223810D01*
X169619048Y-101176190D01*
X169428571Y-101128571D01*
X169333333Y-101080952D01*
X169285714Y-101033333D01*
X169238095Y-100938095D01*
X169238095Y-100842857D01*
X169285714Y-100747619D01*
X169333333Y-100700000D01*
X169428571Y-100652381D01*
X169666667Y-100652381D01*
X169809524Y-100700000D01*
X170666667Y-100985714D02*
X170666667Y-101652381D01*
X170428571Y-100604762D02*
X170190476Y-101319048D01*
X170809524Y-101319048D01*
X131838095Y-116654762D02*
X131980952Y-116702381D01*
X132219048Y-116702381D01*
X132314286Y-116654762D01*
X132361905Y-116607143D01*
X132409524Y-116511905D01*
X132409524Y-116416667D01*
X132361905Y-116321429D01*
X132314286Y-116273810D01*
X132219048Y-116226190D01*
X132028571Y-116178571D01*
X131933333Y-116130952D01*
X131885714Y-116083333D01*
X131838095Y-115988095D01*
X131838095Y-115892857D01*
X131885714Y-115797619D01*
X131933333Y-115750000D01*
X132028571Y-115702381D01*
X132266667Y-115702381D01*
X132409524Y-115750000D01*
X133314286Y-115702381D02*
X132838095Y-115702381D01*
X132790476Y-116178571D01*
X132838095Y-116130952D01*
X132933333Y-116083333D01*
X133171429Y-116083333D01*
X133266667Y-116130952D01*
X133314286Y-116178571D01*
X133361905Y-116273810D01*
X133361905Y-116511905D01*
X133314286Y-116607143D01*
X133266667Y-116654762D01*
X133171429Y-116702381D01*
X132933333Y-116702381D01*
X132838095Y-116654762D01*
X132790476Y-116607143D01*
X179238095Y-111554762D02*
X179380952Y-111602381D01*
X179619048Y-111602381D01*
X179714286Y-111554762D01*
X179761905Y-111507143D01*
X179809524Y-111411905D01*
X179809524Y-111316667D01*
X179761905Y-111221429D01*
X179714286Y-111173810D01*
X179619048Y-111126190D01*
X179428571Y-111078571D01*
X179333333Y-111030952D01*
X179285714Y-110983333D01*
X179238095Y-110888095D01*
X179238095Y-110792857D01*
X179285714Y-110697619D01*
X179333333Y-110650000D01*
X179428571Y-110602381D01*
X179666667Y-110602381D01*
X179809524Y-110650000D01*
X180666667Y-110602381D02*
X180476190Y-110602381D01*
X180380952Y-110650000D01*
X180333333Y-110697619D01*
X180238095Y-110840476D01*
X180190476Y-111030952D01*
X180190476Y-111411905D01*
X180238095Y-111507143D01*
X180285714Y-111554762D01*
X180380952Y-111602381D01*
X180571429Y-111602381D01*
X180666667Y-111554762D01*
X180714286Y-111507143D01*
X180761905Y-111411905D01*
X180761905Y-111173810D01*
X180714286Y-111078571D01*
X180666667Y-111030952D01*
X180571429Y-110983333D01*
X180380952Y-110983333D01*
X180285714Y-111030952D01*
X180238095Y-111078571D01*
X180190476Y-111173810D01*
X145188095Y-116554762D02*
X145330952Y-116602381D01*
X145569048Y-116602381D01*
X145664286Y-116554762D01*
X145711905Y-116507143D01*
X145759524Y-116411905D01*
X145759524Y-116316667D01*
X145711905Y-116221429D01*
X145664286Y-116173810D01*
X145569048Y-116126190D01*
X145378571Y-116078571D01*
X145283333Y-116030952D01*
X145235714Y-115983333D01*
X145188095Y-115888095D01*
X145188095Y-115792857D01*
X145235714Y-115697619D01*
X145283333Y-115650000D01*
X145378571Y-115602381D01*
X145616667Y-115602381D01*
X145759524Y-115650000D01*
X146092857Y-115602381D02*
X146759524Y-115602381D01*
X146330952Y-116602381D01*
X159968095Y-83349881D02*
X159968095Y-84159405D01*
X160015714Y-84254643D01*
X160063333Y-84302262D01*
X160158571Y-84349881D01*
X160349048Y-84349881D01*
X160444286Y-84302262D01*
X160491905Y-84254643D01*
X160539524Y-84159405D01*
X160539524Y-83349881D01*
X161539524Y-84349881D02*
X160968095Y-84349881D01*
X161253809Y-84349881D02*
X161253809Y-83349881D01*
X161158571Y-83492738D01*
X161063333Y-83587976D01*
X160968095Y-83635595D01*
X104638095Y-85552381D02*
X104638095Y-86361905D01*
X104685714Y-86457143D01*
X104733333Y-86504762D01*
X104828571Y-86552381D01*
X105019048Y-86552381D01*
X105114286Y-86504762D01*
X105161905Y-86457143D01*
X105209524Y-86361905D01*
X105209524Y-85552381D01*
X105638095Y-85647619D02*
X105685714Y-85600000D01*
X105780952Y-85552381D01*
X106019048Y-85552381D01*
X106114286Y-85600000D01*
X106161905Y-85647619D01*
X106209524Y-85742857D01*
X106209524Y-85838095D01*
X106161905Y-85980952D01*
X105590476Y-86552381D01*
X106209524Y-86552381D01*
X115908095Y-88099881D02*
X115908095Y-88909405D01*
X115955714Y-89004643D01*
X116003333Y-89052262D01*
X116098571Y-89099881D01*
X116289048Y-89099881D01*
X116384286Y-89052262D01*
X116431905Y-89004643D01*
X116479524Y-88909405D01*
X116479524Y-88099881D01*
X116860476Y-88099881D02*
X117479524Y-88099881D01*
X117146190Y-88480833D01*
X117289048Y-88480833D01*
X117384286Y-88528452D01*
X117431905Y-88576071D01*
X117479524Y-88671310D01*
X117479524Y-88909405D01*
X117431905Y-89004643D01*
X117384286Y-89052262D01*
X117289048Y-89099881D01*
X117003333Y-89099881D01*
X116908095Y-89052262D01*
X116860476Y-89004643D01*
X111138095Y-85202381D02*
X111138095Y-86011905D01*
X111185714Y-86107143D01*
X111233333Y-86154762D01*
X111328571Y-86202381D01*
X111519048Y-86202381D01*
X111614286Y-86154762D01*
X111661905Y-86107143D01*
X111709524Y-86011905D01*
X111709524Y-85202381D01*
X112614286Y-85535714D02*
X112614286Y-86202381D01*
X112376190Y-85154762D02*
X112138095Y-85869048D01*
X112757143Y-85869048D01*
X128168095Y-98154881D02*
X128168095Y-98964405D01*
X128215714Y-99059643D01*
X128263333Y-99107262D01*
X128358571Y-99154881D01*
X128549048Y-99154881D01*
X128644286Y-99107262D01*
X128691905Y-99059643D01*
X128739524Y-98964405D01*
X128739524Y-98154881D01*
X129691905Y-98154881D02*
X129215714Y-98154881D01*
X129168095Y-98631071D01*
X129215714Y-98583452D01*
X129310952Y-98535833D01*
X129549048Y-98535833D01*
X129644286Y-98583452D01*
X129691905Y-98631071D01*
X129739524Y-98726310D01*
X129739524Y-98964405D01*
X129691905Y-99059643D01*
X129644286Y-99107262D01*
X129549048Y-99154881D01*
X129310952Y-99154881D01*
X129215714Y-99107262D01*
X129168095Y-99059643D01*
X112538095Y-101552381D02*
X112538095Y-102361905D01*
X112585714Y-102457143D01*
X112633333Y-102504762D01*
X112728571Y-102552381D01*
X112919048Y-102552381D01*
X113014286Y-102504762D01*
X113061905Y-102457143D01*
X113109524Y-102361905D01*
X113109524Y-101552381D01*
X114014286Y-101552381D02*
X113823809Y-101552381D01*
X113728571Y-101600000D01*
X113680952Y-101647619D01*
X113585714Y-101790476D01*
X113538095Y-101980952D01*
X113538095Y-102361905D01*
X113585714Y-102457143D01*
X113633333Y-102504762D01*
X113728571Y-102552381D01*
X113919048Y-102552381D01*
X114014286Y-102504762D01*
X114061905Y-102457143D01*
X114109524Y-102361905D01*
X114109524Y-102123810D01*
X114061905Y-102028571D01*
X114014286Y-101980952D01*
X113919048Y-101933333D01*
X113728571Y-101933333D01*
X113633333Y-101980952D01*
X113585714Y-102028571D01*
X113538095Y-102123810D01*
X189938095Y-96222381D02*
X189938095Y-97031905D01*
X189985714Y-97127143D01*
X190033333Y-97174762D01*
X190128571Y-97222381D01*
X190319048Y-97222381D01*
X190414286Y-97174762D01*
X190461905Y-97127143D01*
X190509524Y-97031905D01*
X190509524Y-96222381D01*
X190890476Y-96222381D02*
X191557143Y-96222381D01*
X191128571Y-97222381D01*
D11*
X154840477Y-50592857D02*
X154840477Y-51450000D01*
X154792857Y-51621429D01*
X154697619Y-51735714D01*
X154554762Y-51792857D01*
X154459524Y-51792857D01*
X155840477Y-51792857D02*
X155269048Y-51792857D01*
X155554762Y-51792857D02*
X155554762Y-50592857D01*
X155459524Y-50764286D01*
X155364286Y-50878571D01*
X155269048Y-50935714D01*
X156459524Y-50592857D02*
X156554763Y-50592857D01*
X156650001Y-50650000D01*
X156697620Y-50707143D01*
X156745239Y-50821429D01*
X156792858Y-51050000D01*
X156792858Y-51335714D01*
X156745239Y-51564286D01*
X156697620Y-51678571D01*
X156650001Y-51735714D01*
X156554763Y-51792857D01*
X156459524Y-51792857D01*
X156364286Y-51735714D01*
X156316667Y-51678571D01*
X156269048Y-51564286D01*
X156221429Y-51335714D01*
X156221429Y-51050000D01*
X156269048Y-50821429D01*
X156316667Y-50707143D01*
X156364286Y-50650000D01*
X156459524Y-50592857D01*
D12*
X118816667Y-52652381D02*
X118816667Y-53366667D01*
X118769047Y-53509524D01*
X118673809Y-53604762D01*
X118530952Y-53652381D01*
X118435714Y-53652381D01*
X119721429Y-52985714D02*
X119721429Y-53652381D01*
X119483333Y-52604762D02*
X119245238Y-53319048D01*
X119864286Y-53319048D01*
X196152381Y-78143333D02*
X196866667Y-78143333D01*
X197009524Y-78190953D01*
X197104762Y-78286191D01*
X197152381Y-78429048D01*
X197152381Y-78524286D01*
X196580952Y-77524286D02*
X196533333Y-77619524D01*
X196485714Y-77667143D01*
X196390476Y-77714762D01*
X196342857Y-77714762D01*
X196247619Y-77667143D01*
X196200000Y-77619524D01*
X196152381Y-77524286D01*
X196152381Y-77333809D01*
X196200000Y-77238571D01*
X196247619Y-77190952D01*
X196342857Y-77143333D01*
X196390476Y-77143333D01*
X196485714Y-77190952D01*
X196533333Y-77238571D01*
X196580952Y-77333809D01*
X196580952Y-77524286D01*
X196628571Y-77619524D01*
X196676190Y-77667143D01*
X196771429Y-77714762D01*
X196961905Y-77714762D01*
X197057143Y-77667143D01*
X197104762Y-77619524D01*
X197152381Y-77524286D01*
X197152381Y-77333809D01*
X197104762Y-77238571D01*
X197057143Y-77190952D01*
X196961905Y-77143333D01*
X196771429Y-77143333D01*
X196676190Y-77190952D01*
X196628571Y-77238571D01*
X196580952Y-77333809D01*
M02*
