G04 #@! TF.GenerationSoftware,KiCad,Pcbnew,5.1.4-e60b266~84~ubuntu18.04.1*
G04 #@! TF.CreationDate,2019-09-19T09:23:29-07:00*
G04 #@! TF.ProjectId,OpenBeacon2,4f70656e-4265-4616-936f-6e322e6b6963,B*
G04 #@! TF.SameCoordinates,Original*
G04 #@! TF.FileFunction,Paste,Top*
G04 #@! TF.FilePolarity,Positive*
%FSLAX46Y46*%
G04 Gerber Fmt 4.6, Leading zero omitted, Abs format (unit mm)*
G04 Created by KiCad (PCBNEW 5.1.4-e60b266~84~ubuntu18.04.1) date 2019-09-19 09:23:29*
%MOMM*%
%LPD*%
G04 APERTURE LIST*
%ADD10R,1.000760X1.501140*%
%ADD11C,1.000000*%
%ADD12C,0.100000*%
%ADD13R,1.900000X3.000000*%
%ADD14C,0.975000*%
%ADD15R,1.200000X0.900000*%
%ADD16R,0.900000X1.200000*%
%ADD17R,2.400000X0.700000*%
%ADD18R,0.800000X0.700000*%
%ADD19R,0.914400X0.914400*%
%ADD20R,1.060000X0.650000*%
%ADD21R,0.762000X0.508000*%
%ADD22R,1.100000X1.300000*%
%ADD23R,0.200000X0.880000*%
G04 APERTURE END LIST*
D10*
X145298860Y-92548340D03*
X148301140Y-92548340D03*
D11*
X146800000Y-92600000D03*
D12*
G36*
X145785368Y-97073559D02*
G01*
X145771299Y-97069291D01*
X145758332Y-97062360D01*
X145746967Y-97053033D01*
X145737640Y-97041668D01*
X145730709Y-97028701D01*
X145726441Y-97014632D01*
X145725000Y-97000000D01*
X145725000Y-94000000D01*
X145726441Y-93985368D01*
X145730709Y-93971299D01*
X145738970Y-93956407D01*
X146225000Y-93275965D01*
X146225000Y-91800000D01*
X146226441Y-91785368D01*
X146230709Y-91771299D01*
X146237640Y-91758332D01*
X146246967Y-91746967D01*
X146258332Y-91737640D01*
X146271299Y-91730709D01*
X146285368Y-91726441D01*
X146300000Y-91725000D01*
X147300000Y-91725000D01*
X147314632Y-91726441D01*
X147328701Y-91730709D01*
X147341668Y-91737640D01*
X147353033Y-91746967D01*
X147362360Y-91758332D01*
X147369291Y-91771299D01*
X147373559Y-91785368D01*
X147375000Y-91800000D01*
X147375000Y-93275965D01*
X147861030Y-93956407D01*
X147868362Y-93969151D01*
X147873067Y-93983081D01*
X147875000Y-94000000D01*
X147875000Y-97000000D01*
X147873559Y-97014632D01*
X147869291Y-97028701D01*
X147862360Y-97041668D01*
X147853033Y-97053033D01*
X147841668Y-97062360D01*
X147828701Y-97069291D01*
X147814632Y-97073559D01*
X147800000Y-97075000D01*
X145800000Y-97075000D01*
X145785368Y-97073559D01*
X145785368Y-97073559D01*
G37*
D13*
X166300000Y-69300000D03*
X162300000Y-69300000D03*
D12*
G36*
X170805142Y-68101174D02*
G01*
X170828803Y-68104684D01*
X170852007Y-68110496D01*
X170874529Y-68118554D01*
X170896153Y-68128782D01*
X170916670Y-68141079D01*
X170935883Y-68155329D01*
X170953607Y-68171393D01*
X170969671Y-68189117D01*
X170983921Y-68208330D01*
X170996218Y-68228847D01*
X171006446Y-68250471D01*
X171014504Y-68272993D01*
X171020316Y-68296197D01*
X171023826Y-68319858D01*
X171025000Y-68343750D01*
X171025000Y-69256250D01*
X171023826Y-69280142D01*
X171020316Y-69303803D01*
X171014504Y-69327007D01*
X171006446Y-69349529D01*
X170996218Y-69371153D01*
X170983921Y-69391670D01*
X170969671Y-69410883D01*
X170953607Y-69428607D01*
X170935883Y-69444671D01*
X170916670Y-69458921D01*
X170896153Y-69471218D01*
X170874529Y-69481446D01*
X170852007Y-69489504D01*
X170828803Y-69495316D01*
X170805142Y-69498826D01*
X170781250Y-69500000D01*
X170293750Y-69500000D01*
X170269858Y-69498826D01*
X170246197Y-69495316D01*
X170222993Y-69489504D01*
X170200471Y-69481446D01*
X170178847Y-69471218D01*
X170158330Y-69458921D01*
X170139117Y-69444671D01*
X170121393Y-69428607D01*
X170105329Y-69410883D01*
X170091079Y-69391670D01*
X170078782Y-69371153D01*
X170068554Y-69349529D01*
X170060496Y-69327007D01*
X170054684Y-69303803D01*
X170051174Y-69280142D01*
X170050000Y-69256250D01*
X170050000Y-68343750D01*
X170051174Y-68319858D01*
X170054684Y-68296197D01*
X170060496Y-68272993D01*
X170068554Y-68250471D01*
X170078782Y-68228847D01*
X170091079Y-68208330D01*
X170105329Y-68189117D01*
X170121393Y-68171393D01*
X170139117Y-68155329D01*
X170158330Y-68141079D01*
X170178847Y-68128782D01*
X170200471Y-68118554D01*
X170222993Y-68110496D01*
X170246197Y-68104684D01*
X170269858Y-68101174D01*
X170293750Y-68100000D01*
X170781250Y-68100000D01*
X170805142Y-68101174D01*
X170805142Y-68101174D01*
G37*
D14*
X170537500Y-68800000D03*
D12*
G36*
X168930142Y-68101174D02*
G01*
X168953803Y-68104684D01*
X168977007Y-68110496D01*
X168999529Y-68118554D01*
X169021153Y-68128782D01*
X169041670Y-68141079D01*
X169060883Y-68155329D01*
X169078607Y-68171393D01*
X169094671Y-68189117D01*
X169108921Y-68208330D01*
X169121218Y-68228847D01*
X169131446Y-68250471D01*
X169139504Y-68272993D01*
X169145316Y-68296197D01*
X169148826Y-68319858D01*
X169150000Y-68343750D01*
X169150000Y-69256250D01*
X169148826Y-69280142D01*
X169145316Y-69303803D01*
X169139504Y-69327007D01*
X169131446Y-69349529D01*
X169121218Y-69371153D01*
X169108921Y-69391670D01*
X169094671Y-69410883D01*
X169078607Y-69428607D01*
X169060883Y-69444671D01*
X169041670Y-69458921D01*
X169021153Y-69471218D01*
X168999529Y-69481446D01*
X168977007Y-69489504D01*
X168953803Y-69495316D01*
X168930142Y-69498826D01*
X168906250Y-69500000D01*
X168418750Y-69500000D01*
X168394858Y-69498826D01*
X168371197Y-69495316D01*
X168347993Y-69489504D01*
X168325471Y-69481446D01*
X168303847Y-69471218D01*
X168283330Y-69458921D01*
X168264117Y-69444671D01*
X168246393Y-69428607D01*
X168230329Y-69410883D01*
X168216079Y-69391670D01*
X168203782Y-69371153D01*
X168193554Y-69349529D01*
X168185496Y-69327007D01*
X168179684Y-69303803D01*
X168176174Y-69280142D01*
X168175000Y-69256250D01*
X168175000Y-68343750D01*
X168176174Y-68319858D01*
X168179684Y-68296197D01*
X168185496Y-68272993D01*
X168193554Y-68250471D01*
X168203782Y-68228847D01*
X168216079Y-68208330D01*
X168230329Y-68189117D01*
X168246393Y-68171393D01*
X168264117Y-68155329D01*
X168283330Y-68141079D01*
X168303847Y-68128782D01*
X168325471Y-68118554D01*
X168347993Y-68110496D01*
X168371197Y-68104684D01*
X168394858Y-68101174D01*
X168418750Y-68100000D01*
X168906250Y-68100000D01*
X168930142Y-68101174D01*
X168930142Y-68101174D01*
G37*
D14*
X168662500Y-68800000D03*
D12*
G36*
X170005142Y-73901174D02*
G01*
X170028803Y-73904684D01*
X170052007Y-73910496D01*
X170074529Y-73918554D01*
X170096153Y-73928782D01*
X170116670Y-73941079D01*
X170135883Y-73955329D01*
X170153607Y-73971393D01*
X170169671Y-73989117D01*
X170183921Y-74008330D01*
X170196218Y-74028847D01*
X170206446Y-74050471D01*
X170214504Y-74072993D01*
X170220316Y-74096197D01*
X170223826Y-74119858D01*
X170225000Y-74143750D01*
X170225000Y-75056250D01*
X170223826Y-75080142D01*
X170220316Y-75103803D01*
X170214504Y-75127007D01*
X170206446Y-75149529D01*
X170196218Y-75171153D01*
X170183921Y-75191670D01*
X170169671Y-75210883D01*
X170153607Y-75228607D01*
X170135883Y-75244671D01*
X170116670Y-75258921D01*
X170096153Y-75271218D01*
X170074529Y-75281446D01*
X170052007Y-75289504D01*
X170028803Y-75295316D01*
X170005142Y-75298826D01*
X169981250Y-75300000D01*
X169493750Y-75300000D01*
X169469858Y-75298826D01*
X169446197Y-75295316D01*
X169422993Y-75289504D01*
X169400471Y-75281446D01*
X169378847Y-75271218D01*
X169358330Y-75258921D01*
X169339117Y-75244671D01*
X169321393Y-75228607D01*
X169305329Y-75210883D01*
X169291079Y-75191670D01*
X169278782Y-75171153D01*
X169268554Y-75149529D01*
X169260496Y-75127007D01*
X169254684Y-75103803D01*
X169251174Y-75080142D01*
X169250000Y-75056250D01*
X169250000Y-74143750D01*
X169251174Y-74119858D01*
X169254684Y-74096197D01*
X169260496Y-74072993D01*
X169268554Y-74050471D01*
X169278782Y-74028847D01*
X169291079Y-74008330D01*
X169305329Y-73989117D01*
X169321393Y-73971393D01*
X169339117Y-73955329D01*
X169358330Y-73941079D01*
X169378847Y-73928782D01*
X169400471Y-73918554D01*
X169422993Y-73910496D01*
X169446197Y-73904684D01*
X169469858Y-73901174D01*
X169493750Y-73900000D01*
X169981250Y-73900000D01*
X170005142Y-73901174D01*
X170005142Y-73901174D01*
G37*
D14*
X169737500Y-74600000D03*
D12*
G36*
X168130142Y-73901174D02*
G01*
X168153803Y-73904684D01*
X168177007Y-73910496D01*
X168199529Y-73918554D01*
X168221153Y-73928782D01*
X168241670Y-73941079D01*
X168260883Y-73955329D01*
X168278607Y-73971393D01*
X168294671Y-73989117D01*
X168308921Y-74008330D01*
X168321218Y-74028847D01*
X168331446Y-74050471D01*
X168339504Y-74072993D01*
X168345316Y-74096197D01*
X168348826Y-74119858D01*
X168350000Y-74143750D01*
X168350000Y-75056250D01*
X168348826Y-75080142D01*
X168345316Y-75103803D01*
X168339504Y-75127007D01*
X168331446Y-75149529D01*
X168321218Y-75171153D01*
X168308921Y-75191670D01*
X168294671Y-75210883D01*
X168278607Y-75228607D01*
X168260883Y-75244671D01*
X168241670Y-75258921D01*
X168221153Y-75271218D01*
X168199529Y-75281446D01*
X168177007Y-75289504D01*
X168153803Y-75295316D01*
X168130142Y-75298826D01*
X168106250Y-75300000D01*
X167618750Y-75300000D01*
X167594858Y-75298826D01*
X167571197Y-75295316D01*
X167547993Y-75289504D01*
X167525471Y-75281446D01*
X167503847Y-75271218D01*
X167483330Y-75258921D01*
X167464117Y-75244671D01*
X167446393Y-75228607D01*
X167430329Y-75210883D01*
X167416079Y-75191670D01*
X167403782Y-75171153D01*
X167393554Y-75149529D01*
X167385496Y-75127007D01*
X167379684Y-75103803D01*
X167376174Y-75080142D01*
X167375000Y-75056250D01*
X167375000Y-74143750D01*
X167376174Y-74119858D01*
X167379684Y-74096197D01*
X167385496Y-74072993D01*
X167393554Y-74050471D01*
X167403782Y-74028847D01*
X167416079Y-74008330D01*
X167430329Y-73989117D01*
X167446393Y-73971393D01*
X167464117Y-73955329D01*
X167483330Y-73941079D01*
X167503847Y-73928782D01*
X167525471Y-73918554D01*
X167547993Y-73910496D01*
X167571197Y-73904684D01*
X167594858Y-73901174D01*
X167618750Y-73900000D01*
X168106250Y-73900000D01*
X168130142Y-73901174D01*
X168130142Y-73901174D01*
G37*
D14*
X167862500Y-74600000D03*
D12*
G36*
X169980142Y-78976174D02*
G01*
X170003803Y-78979684D01*
X170027007Y-78985496D01*
X170049529Y-78993554D01*
X170071153Y-79003782D01*
X170091670Y-79016079D01*
X170110883Y-79030329D01*
X170128607Y-79046393D01*
X170144671Y-79064117D01*
X170158921Y-79083330D01*
X170171218Y-79103847D01*
X170181446Y-79125471D01*
X170189504Y-79147993D01*
X170195316Y-79171197D01*
X170198826Y-79194858D01*
X170200000Y-79218750D01*
X170200000Y-79706250D01*
X170198826Y-79730142D01*
X170195316Y-79753803D01*
X170189504Y-79777007D01*
X170181446Y-79799529D01*
X170171218Y-79821153D01*
X170158921Y-79841670D01*
X170144671Y-79860883D01*
X170128607Y-79878607D01*
X170110883Y-79894671D01*
X170091670Y-79908921D01*
X170071153Y-79921218D01*
X170049529Y-79931446D01*
X170027007Y-79939504D01*
X170003803Y-79945316D01*
X169980142Y-79948826D01*
X169956250Y-79950000D01*
X169043750Y-79950000D01*
X169019858Y-79948826D01*
X168996197Y-79945316D01*
X168972993Y-79939504D01*
X168950471Y-79931446D01*
X168928847Y-79921218D01*
X168908330Y-79908921D01*
X168889117Y-79894671D01*
X168871393Y-79878607D01*
X168855329Y-79860883D01*
X168841079Y-79841670D01*
X168828782Y-79821153D01*
X168818554Y-79799529D01*
X168810496Y-79777007D01*
X168804684Y-79753803D01*
X168801174Y-79730142D01*
X168800000Y-79706250D01*
X168800000Y-79218750D01*
X168801174Y-79194858D01*
X168804684Y-79171197D01*
X168810496Y-79147993D01*
X168818554Y-79125471D01*
X168828782Y-79103847D01*
X168841079Y-79083330D01*
X168855329Y-79064117D01*
X168871393Y-79046393D01*
X168889117Y-79030329D01*
X168908330Y-79016079D01*
X168928847Y-79003782D01*
X168950471Y-78993554D01*
X168972993Y-78985496D01*
X168996197Y-78979684D01*
X169019858Y-78976174D01*
X169043750Y-78975000D01*
X169956250Y-78975000D01*
X169980142Y-78976174D01*
X169980142Y-78976174D01*
G37*
D14*
X169500000Y-79462500D03*
D12*
G36*
X169980142Y-80851174D02*
G01*
X170003803Y-80854684D01*
X170027007Y-80860496D01*
X170049529Y-80868554D01*
X170071153Y-80878782D01*
X170091670Y-80891079D01*
X170110883Y-80905329D01*
X170128607Y-80921393D01*
X170144671Y-80939117D01*
X170158921Y-80958330D01*
X170171218Y-80978847D01*
X170181446Y-81000471D01*
X170189504Y-81022993D01*
X170195316Y-81046197D01*
X170198826Y-81069858D01*
X170200000Y-81093750D01*
X170200000Y-81581250D01*
X170198826Y-81605142D01*
X170195316Y-81628803D01*
X170189504Y-81652007D01*
X170181446Y-81674529D01*
X170171218Y-81696153D01*
X170158921Y-81716670D01*
X170144671Y-81735883D01*
X170128607Y-81753607D01*
X170110883Y-81769671D01*
X170091670Y-81783921D01*
X170071153Y-81796218D01*
X170049529Y-81806446D01*
X170027007Y-81814504D01*
X170003803Y-81820316D01*
X169980142Y-81823826D01*
X169956250Y-81825000D01*
X169043750Y-81825000D01*
X169019858Y-81823826D01*
X168996197Y-81820316D01*
X168972993Y-81814504D01*
X168950471Y-81806446D01*
X168928847Y-81796218D01*
X168908330Y-81783921D01*
X168889117Y-81769671D01*
X168871393Y-81753607D01*
X168855329Y-81735883D01*
X168841079Y-81716670D01*
X168828782Y-81696153D01*
X168818554Y-81674529D01*
X168810496Y-81652007D01*
X168804684Y-81628803D01*
X168801174Y-81605142D01*
X168800000Y-81581250D01*
X168800000Y-81093750D01*
X168801174Y-81069858D01*
X168804684Y-81046197D01*
X168810496Y-81022993D01*
X168818554Y-81000471D01*
X168828782Y-80978847D01*
X168841079Y-80958330D01*
X168855329Y-80939117D01*
X168871393Y-80921393D01*
X168889117Y-80905329D01*
X168908330Y-80891079D01*
X168928847Y-80878782D01*
X168950471Y-80868554D01*
X168972993Y-80860496D01*
X168996197Y-80854684D01*
X169019858Y-80851174D01*
X169043750Y-80850000D01*
X169956250Y-80850000D01*
X169980142Y-80851174D01*
X169980142Y-80851174D01*
G37*
D14*
X169500000Y-81337500D03*
D12*
G36*
X144030142Y-98001174D02*
G01*
X144053803Y-98004684D01*
X144077007Y-98010496D01*
X144099529Y-98018554D01*
X144121153Y-98028782D01*
X144141670Y-98041079D01*
X144160883Y-98055329D01*
X144178607Y-98071393D01*
X144194671Y-98089117D01*
X144208921Y-98108330D01*
X144221218Y-98128847D01*
X144231446Y-98150471D01*
X144239504Y-98172993D01*
X144245316Y-98196197D01*
X144248826Y-98219858D01*
X144250000Y-98243750D01*
X144250000Y-99156250D01*
X144248826Y-99180142D01*
X144245316Y-99203803D01*
X144239504Y-99227007D01*
X144231446Y-99249529D01*
X144221218Y-99271153D01*
X144208921Y-99291670D01*
X144194671Y-99310883D01*
X144178607Y-99328607D01*
X144160883Y-99344671D01*
X144141670Y-99358921D01*
X144121153Y-99371218D01*
X144099529Y-99381446D01*
X144077007Y-99389504D01*
X144053803Y-99395316D01*
X144030142Y-99398826D01*
X144006250Y-99400000D01*
X143518750Y-99400000D01*
X143494858Y-99398826D01*
X143471197Y-99395316D01*
X143447993Y-99389504D01*
X143425471Y-99381446D01*
X143403847Y-99371218D01*
X143383330Y-99358921D01*
X143364117Y-99344671D01*
X143346393Y-99328607D01*
X143330329Y-99310883D01*
X143316079Y-99291670D01*
X143303782Y-99271153D01*
X143293554Y-99249529D01*
X143285496Y-99227007D01*
X143279684Y-99203803D01*
X143276174Y-99180142D01*
X143275000Y-99156250D01*
X143275000Y-98243750D01*
X143276174Y-98219858D01*
X143279684Y-98196197D01*
X143285496Y-98172993D01*
X143293554Y-98150471D01*
X143303782Y-98128847D01*
X143316079Y-98108330D01*
X143330329Y-98089117D01*
X143346393Y-98071393D01*
X143364117Y-98055329D01*
X143383330Y-98041079D01*
X143403847Y-98028782D01*
X143425471Y-98018554D01*
X143447993Y-98010496D01*
X143471197Y-98004684D01*
X143494858Y-98001174D01*
X143518750Y-98000000D01*
X144006250Y-98000000D01*
X144030142Y-98001174D01*
X144030142Y-98001174D01*
G37*
D14*
X143762500Y-98700000D03*
D12*
G36*
X145905142Y-98001174D02*
G01*
X145928803Y-98004684D01*
X145952007Y-98010496D01*
X145974529Y-98018554D01*
X145996153Y-98028782D01*
X146016670Y-98041079D01*
X146035883Y-98055329D01*
X146053607Y-98071393D01*
X146069671Y-98089117D01*
X146083921Y-98108330D01*
X146096218Y-98128847D01*
X146106446Y-98150471D01*
X146114504Y-98172993D01*
X146120316Y-98196197D01*
X146123826Y-98219858D01*
X146125000Y-98243750D01*
X146125000Y-99156250D01*
X146123826Y-99180142D01*
X146120316Y-99203803D01*
X146114504Y-99227007D01*
X146106446Y-99249529D01*
X146096218Y-99271153D01*
X146083921Y-99291670D01*
X146069671Y-99310883D01*
X146053607Y-99328607D01*
X146035883Y-99344671D01*
X146016670Y-99358921D01*
X145996153Y-99371218D01*
X145974529Y-99381446D01*
X145952007Y-99389504D01*
X145928803Y-99395316D01*
X145905142Y-99398826D01*
X145881250Y-99400000D01*
X145393750Y-99400000D01*
X145369858Y-99398826D01*
X145346197Y-99395316D01*
X145322993Y-99389504D01*
X145300471Y-99381446D01*
X145278847Y-99371218D01*
X145258330Y-99358921D01*
X145239117Y-99344671D01*
X145221393Y-99328607D01*
X145205329Y-99310883D01*
X145191079Y-99291670D01*
X145178782Y-99271153D01*
X145168554Y-99249529D01*
X145160496Y-99227007D01*
X145154684Y-99203803D01*
X145151174Y-99180142D01*
X145150000Y-99156250D01*
X145150000Y-98243750D01*
X145151174Y-98219858D01*
X145154684Y-98196197D01*
X145160496Y-98172993D01*
X145168554Y-98150471D01*
X145178782Y-98128847D01*
X145191079Y-98108330D01*
X145205329Y-98089117D01*
X145221393Y-98071393D01*
X145239117Y-98055329D01*
X145258330Y-98041079D01*
X145278847Y-98028782D01*
X145300471Y-98018554D01*
X145322993Y-98010496D01*
X145346197Y-98004684D01*
X145369858Y-98001174D01*
X145393750Y-98000000D01*
X145881250Y-98000000D01*
X145905142Y-98001174D01*
X145905142Y-98001174D01*
G37*
D14*
X145637500Y-98700000D03*
D12*
G36*
X113580142Y-96376174D02*
G01*
X113603803Y-96379684D01*
X113627007Y-96385496D01*
X113649529Y-96393554D01*
X113671153Y-96403782D01*
X113691670Y-96416079D01*
X113710883Y-96430329D01*
X113728607Y-96446393D01*
X113744671Y-96464117D01*
X113758921Y-96483330D01*
X113771218Y-96503847D01*
X113781446Y-96525471D01*
X113789504Y-96547993D01*
X113795316Y-96571197D01*
X113798826Y-96594858D01*
X113800000Y-96618750D01*
X113800000Y-97106250D01*
X113798826Y-97130142D01*
X113795316Y-97153803D01*
X113789504Y-97177007D01*
X113781446Y-97199529D01*
X113771218Y-97221153D01*
X113758921Y-97241670D01*
X113744671Y-97260883D01*
X113728607Y-97278607D01*
X113710883Y-97294671D01*
X113691670Y-97308921D01*
X113671153Y-97321218D01*
X113649529Y-97331446D01*
X113627007Y-97339504D01*
X113603803Y-97345316D01*
X113580142Y-97348826D01*
X113556250Y-97350000D01*
X112643750Y-97350000D01*
X112619858Y-97348826D01*
X112596197Y-97345316D01*
X112572993Y-97339504D01*
X112550471Y-97331446D01*
X112528847Y-97321218D01*
X112508330Y-97308921D01*
X112489117Y-97294671D01*
X112471393Y-97278607D01*
X112455329Y-97260883D01*
X112441079Y-97241670D01*
X112428782Y-97221153D01*
X112418554Y-97199529D01*
X112410496Y-97177007D01*
X112404684Y-97153803D01*
X112401174Y-97130142D01*
X112400000Y-97106250D01*
X112400000Y-96618750D01*
X112401174Y-96594858D01*
X112404684Y-96571197D01*
X112410496Y-96547993D01*
X112418554Y-96525471D01*
X112428782Y-96503847D01*
X112441079Y-96483330D01*
X112455329Y-96464117D01*
X112471393Y-96446393D01*
X112489117Y-96430329D01*
X112508330Y-96416079D01*
X112528847Y-96403782D01*
X112550471Y-96393554D01*
X112572993Y-96385496D01*
X112596197Y-96379684D01*
X112619858Y-96376174D01*
X112643750Y-96375000D01*
X113556250Y-96375000D01*
X113580142Y-96376174D01*
X113580142Y-96376174D01*
G37*
D14*
X113100000Y-96862500D03*
D12*
G36*
X113580142Y-98251174D02*
G01*
X113603803Y-98254684D01*
X113627007Y-98260496D01*
X113649529Y-98268554D01*
X113671153Y-98278782D01*
X113691670Y-98291079D01*
X113710883Y-98305329D01*
X113728607Y-98321393D01*
X113744671Y-98339117D01*
X113758921Y-98358330D01*
X113771218Y-98378847D01*
X113781446Y-98400471D01*
X113789504Y-98422993D01*
X113795316Y-98446197D01*
X113798826Y-98469858D01*
X113800000Y-98493750D01*
X113800000Y-98981250D01*
X113798826Y-99005142D01*
X113795316Y-99028803D01*
X113789504Y-99052007D01*
X113781446Y-99074529D01*
X113771218Y-99096153D01*
X113758921Y-99116670D01*
X113744671Y-99135883D01*
X113728607Y-99153607D01*
X113710883Y-99169671D01*
X113691670Y-99183921D01*
X113671153Y-99196218D01*
X113649529Y-99206446D01*
X113627007Y-99214504D01*
X113603803Y-99220316D01*
X113580142Y-99223826D01*
X113556250Y-99225000D01*
X112643750Y-99225000D01*
X112619858Y-99223826D01*
X112596197Y-99220316D01*
X112572993Y-99214504D01*
X112550471Y-99206446D01*
X112528847Y-99196218D01*
X112508330Y-99183921D01*
X112489117Y-99169671D01*
X112471393Y-99153607D01*
X112455329Y-99135883D01*
X112441079Y-99116670D01*
X112428782Y-99096153D01*
X112418554Y-99074529D01*
X112410496Y-99052007D01*
X112404684Y-99028803D01*
X112401174Y-99005142D01*
X112400000Y-98981250D01*
X112400000Y-98493750D01*
X112401174Y-98469858D01*
X112404684Y-98446197D01*
X112410496Y-98422993D01*
X112418554Y-98400471D01*
X112428782Y-98378847D01*
X112441079Y-98358330D01*
X112455329Y-98339117D01*
X112471393Y-98321393D01*
X112489117Y-98305329D01*
X112508330Y-98291079D01*
X112528847Y-98278782D01*
X112550471Y-98268554D01*
X112572993Y-98260496D01*
X112596197Y-98254684D01*
X112619858Y-98251174D01*
X112643750Y-98250000D01*
X113556250Y-98250000D01*
X113580142Y-98251174D01*
X113580142Y-98251174D01*
G37*
D14*
X113100000Y-98737500D03*
D12*
G36*
X156505142Y-85501174D02*
G01*
X156528803Y-85504684D01*
X156552007Y-85510496D01*
X156574529Y-85518554D01*
X156596153Y-85528782D01*
X156616670Y-85541079D01*
X156635883Y-85555329D01*
X156653607Y-85571393D01*
X156669671Y-85589117D01*
X156683921Y-85608330D01*
X156696218Y-85628847D01*
X156706446Y-85650471D01*
X156714504Y-85672993D01*
X156720316Y-85696197D01*
X156723826Y-85719858D01*
X156725000Y-85743750D01*
X156725000Y-86656250D01*
X156723826Y-86680142D01*
X156720316Y-86703803D01*
X156714504Y-86727007D01*
X156706446Y-86749529D01*
X156696218Y-86771153D01*
X156683921Y-86791670D01*
X156669671Y-86810883D01*
X156653607Y-86828607D01*
X156635883Y-86844671D01*
X156616670Y-86858921D01*
X156596153Y-86871218D01*
X156574529Y-86881446D01*
X156552007Y-86889504D01*
X156528803Y-86895316D01*
X156505142Y-86898826D01*
X156481250Y-86900000D01*
X155993750Y-86900000D01*
X155969858Y-86898826D01*
X155946197Y-86895316D01*
X155922993Y-86889504D01*
X155900471Y-86881446D01*
X155878847Y-86871218D01*
X155858330Y-86858921D01*
X155839117Y-86844671D01*
X155821393Y-86828607D01*
X155805329Y-86810883D01*
X155791079Y-86791670D01*
X155778782Y-86771153D01*
X155768554Y-86749529D01*
X155760496Y-86727007D01*
X155754684Y-86703803D01*
X155751174Y-86680142D01*
X155750000Y-86656250D01*
X155750000Y-85743750D01*
X155751174Y-85719858D01*
X155754684Y-85696197D01*
X155760496Y-85672993D01*
X155768554Y-85650471D01*
X155778782Y-85628847D01*
X155791079Y-85608330D01*
X155805329Y-85589117D01*
X155821393Y-85571393D01*
X155839117Y-85555329D01*
X155858330Y-85541079D01*
X155878847Y-85528782D01*
X155900471Y-85518554D01*
X155922993Y-85510496D01*
X155946197Y-85504684D01*
X155969858Y-85501174D01*
X155993750Y-85500000D01*
X156481250Y-85500000D01*
X156505142Y-85501174D01*
X156505142Y-85501174D01*
G37*
D14*
X156237500Y-86200000D03*
D12*
G36*
X154630142Y-85501174D02*
G01*
X154653803Y-85504684D01*
X154677007Y-85510496D01*
X154699529Y-85518554D01*
X154721153Y-85528782D01*
X154741670Y-85541079D01*
X154760883Y-85555329D01*
X154778607Y-85571393D01*
X154794671Y-85589117D01*
X154808921Y-85608330D01*
X154821218Y-85628847D01*
X154831446Y-85650471D01*
X154839504Y-85672993D01*
X154845316Y-85696197D01*
X154848826Y-85719858D01*
X154850000Y-85743750D01*
X154850000Y-86656250D01*
X154848826Y-86680142D01*
X154845316Y-86703803D01*
X154839504Y-86727007D01*
X154831446Y-86749529D01*
X154821218Y-86771153D01*
X154808921Y-86791670D01*
X154794671Y-86810883D01*
X154778607Y-86828607D01*
X154760883Y-86844671D01*
X154741670Y-86858921D01*
X154721153Y-86871218D01*
X154699529Y-86881446D01*
X154677007Y-86889504D01*
X154653803Y-86895316D01*
X154630142Y-86898826D01*
X154606250Y-86900000D01*
X154118750Y-86900000D01*
X154094858Y-86898826D01*
X154071197Y-86895316D01*
X154047993Y-86889504D01*
X154025471Y-86881446D01*
X154003847Y-86871218D01*
X153983330Y-86858921D01*
X153964117Y-86844671D01*
X153946393Y-86828607D01*
X153930329Y-86810883D01*
X153916079Y-86791670D01*
X153903782Y-86771153D01*
X153893554Y-86749529D01*
X153885496Y-86727007D01*
X153879684Y-86703803D01*
X153876174Y-86680142D01*
X153875000Y-86656250D01*
X153875000Y-85743750D01*
X153876174Y-85719858D01*
X153879684Y-85696197D01*
X153885496Y-85672993D01*
X153893554Y-85650471D01*
X153903782Y-85628847D01*
X153916079Y-85608330D01*
X153930329Y-85589117D01*
X153946393Y-85571393D01*
X153964117Y-85555329D01*
X153983330Y-85541079D01*
X154003847Y-85528782D01*
X154025471Y-85518554D01*
X154047993Y-85510496D01*
X154071197Y-85504684D01*
X154094858Y-85501174D01*
X154118750Y-85500000D01*
X154606250Y-85500000D01*
X154630142Y-85501174D01*
X154630142Y-85501174D01*
G37*
D14*
X154362500Y-86200000D03*
D12*
G36*
X142380142Y-94051174D02*
G01*
X142403803Y-94054684D01*
X142427007Y-94060496D01*
X142449529Y-94068554D01*
X142471153Y-94078782D01*
X142491670Y-94091079D01*
X142510883Y-94105329D01*
X142528607Y-94121393D01*
X142544671Y-94139117D01*
X142558921Y-94158330D01*
X142571218Y-94178847D01*
X142581446Y-94200471D01*
X142589504Y-94222993D01*
X142595316Y-94246197D01*
X142598826Y-94269858D01*
X142600000Y-94293750D01*
X142600000Y-94781250D01*
X142598826Y-94805142D01*
X142595316Y-94828803D01*
X142589504Y-94852007D01*
X142581446Y-94874529D01*
X142571218Y-94896153D01*
X142558921Y-94916670D01*
X142544671Y-94935883D01*
X142528607Y-94953607D01*
X142510883Y-94969671D01*
X142491670Y-94983921D01*
X142471153Y-94996218D01*
X142449529Y-95006446D01*
X142427007Y-95014504D01*
X142403803Y-95020316D01*
X142380142Y-95023826D01*
X142356250Y-95025000D01*
X141443750Y-95025000D01*
X141419858Y-95023826D01*
X141396197Y-95020316D01*
X141372993Y-95014504D01*
X141350471Y-95006446D01*
X141328847Y-94996218D01*
X141308330Y-94983921D01*
X141289117Y-94969671D01*
X141271393Y-94953607D01*
X141255329Y-94935883D01*
X141241079Y-94916670D01*
X141228782Y-94896153D01*
X141218554Y-94874529D01*
X141210496Y-94852007D01*
X141204684Y-94828803D01*
X141201174Y-94805142D01*
X141200000Y-94781250D01*
X141200000Y-94293750D01*
X141201174Y-94269858D01*
X141204684Y-94246197D01*
X141210496Y-94222993D01*
X141218554Y-94200471D01*
X141228782Y-94178847D01*
X141241079Y-94158330D01*
X141255329Y-94139117D01*
X141271393Y-94121393D01*
X141289117Y-94105329D01*
X141308330Y-94091079D01*
X141328847Y-94078782D01*
X141350471Y-94068554D01*
X141372993Y-94060496D01*
X141396197Y-94054684D01*
X141419858Y-94051174D01*
X141443750Y-94050000D01*
X142356250Y-94050000D01*
X142380142Y-94051174D01*
X142380142Y-94051174D01*
G37*
D14*
X141900000Y-94537500D03*
D12*
G36*
X142380142Y-92176174D02*
G01*
X142403803Y-92179684D01*
X142427007Y-92185496D01*
X142449529Y-92193554D01*
X142471153Y-92203782D01*
X142491670Y-92216079D01*
X142510883Y-92230329D01*
X142528607Y-92246393D01*
X142544671Y-92264117D01*
X142558921Y-92283330D01*
X142571218Y-92303847D01*
X142581446Y-92325471D01*
X142589504Y-92347993D01*
X142595316Y-92371197D01*
X142598826Y-92394858D01*
X142600000Y-92418750D01*
X142600000Y-92906250D01*
X142598826Y-92930142D01*
X142595316Y-92953803D01*
X142589504Y-92977007D01*
X142581446Y-92999529D01*
X142571218Y-93021153D01*
X142558921Y-93041670D01*
X142544671Y-93060883D01*
X142528607Y-93078607D01*
X142510883Y-93094671D01*
X142491670Y-93108921D01*
X142471153Y-93121218D01*
X142449529Y-93131446D01*
X142427007Y-93139504D01*
X142403803Y-93145316D01*
X142380142Y-93148826D01*
X142356250Y-93150000D01*
X141443750Y-93150000D01*
X141419858Y-93148826D01*
X141396197Y-93145316D01*
X141372993Y-93139504D01*
X141350471Y-93131446D01*
X141328847Y-93121218D01*
X141308330Y-93108921D01*
X141289117Y-93094671D01*
X141271393Y-93078607D01*
X141255329Y-93060883D01*
X141241079Y-93041670D01*
X141228782Y-93021153D01*
X141218554Y-92999529D01*
X141210496Y-92977007D01*
X141204684Y-92953803D01*
X141201174Y-92930142D01*
X141200000Y-92906250D01*
X141200000Y-92418750D01*
X141201174Y-92394858D01*
X141204684Y-92371197D01*
X141210496Y-92347993D01*
X141218554Y-92325471D01*
X141228782Y-92303847D01*
X141241079Y-92283330D01*
X141255329Y-92264117D01*
X141271393Y-92246393D01*
X141289117Y-92230329D01*
X141308330Y-92216079D01*
X141328847Y-92203782D01*
X141350471Y-92193554D01*
X141372993Y-92185496D01*
X141396197Y-92179684D01*
X141419858Y-92176174D01*
X141443750Y-92175000D01*
X142356250Y-92175000D01*
X142380142Y-92176174D01*
X142380142Y-92176174D01*
G37*
D14*
X141900000Y-92662500D03*
D12*
G36*
X154080142Y-98251174D02*
G01*
X154103803Y-98254684D01*
X154127007Y-98260496D01*
X154149529Y-98268554D01*
X154171153Y-98278782D01*
X154191670Y-98291079D01*
X154210883Y-98305329D01*
X154228607Y-98321393D01*
X154244671Y-98339117D01*
X154258921Y-98358330D01*
X154271218Y-98378847D01*
X154281446Y-98400471D01*
X154289504Y-98422993D01*
X154295316Y-98446197D01*
X154298826Y-98469858D01*
X154300000Y-98493750D01*
X154300000Y-98981250D01*
X154298826Y-99005142D01*
X154295316Y-99028803D01*
X154289504Y-99052007D01*
X154281446Y-99074529D01*
X154271218Y-99096153D01*
X154258921Y-99116670D01*
X154244671Y-99135883D01*
X154228607Y-99153607D01*
X154210883Y-99169671D01*
X154191670Y-99183921D01*
X154171153Y-99196218D01*
X154149529Y-99206446D01*
X154127007Y-99214504D01*
X154103803Y-99220316D01*
X154080142Y-99223826D01*
X154056250Y-99225000D01*
X153143750Y-99225000D01*
X153119858Y-99223826D01*
X153096197Y-99220316D01*
X153072993Y-99214504D01*
X153050471Y-99206446D01*
X153028847Y-99196218D01*
X153008330Y-99183921D01*
X152989117Y-99169671D01*
X152971393Y-99153607D01*
X152955329Y-99135883D01*
X152941079Y-99116670D01*
X152928782Y-99096153D01*
X152918554Y-99074529D01*
X152910496Y-99052007D01*
X152904684Y-99028803D01*
X152901174Y-99005142D01*
X152900000Y-98981250D01*
X152900000Y-98493750D01*
X152901174Y-98469858D01*
X152904684Y-98446197D01*
X152910496Y-98422993D01*
X152918554Y-98400471D01*
X152928782Y-98378847D01*
X152941079Y-98358330D01*
X152955329Y-98339117D01*
X152971393Y-98321393D01*
X152989117Y-98305329D01*
X153008330Y-98291079D01*
X153028847Y-98278782D01*
X153050471Y-98268554D01*
X153072993Y-98260496D01*
X153096197Y-98254684D01*
X153119858Y-98251174D01*
X153143750Y-98250000D01*
X154056250Y-98250000D01*
X154080142Y-98251174D01*
X154080142Y-98251174D01*
G37*
D14*
X153600000Y-98737500D03*
D12*
G36*
X154080142Y-96376174D02*
G01*
X154103803Y-96379684D01*
X154127007Y-96385496D01*
X154149529Y-96393554D01*
X154171153Y-96403782D01*
X154191670Y-96416079D01*
X154210883Y-96430329D01*
X154228607Y-96446393D01*
X154244671Y-96464117D01*
X154258921Y-96483330D01*
X154271218Y-96503847D01*
X154281446Y-96525471D01*
X154289504Y-96547993D01*
X154295316Y-96571197D01*
X154298826Y-96594858D01*
X154300000Y-96618750D01*
X154300000Y-97106250D01*
X154298826Y-97130142D01*
X154295316Y-97153803D01*
X154289504Y-97177007D01*
X154281446Y-97199529D01*
X154271218Y-97221153D01*
X154258921Y-97241670D01*
X154244671Y-97260883D01*
X154228607Y-97278607D01*
X154210883Y-97294671D01*
X154191670Y-97308921D01*
X154171153Y-97321218D01*
X154149529Y-97331446D01*
X154127007Y-97339504D01*
X154103803Y-97345316D01*
X154080142Y-97348826D01*
X154056250Y-97350000D01*
X153143750Y-97350000D01*
X153119858Y-97348826D01*
X153096197Y-97345316D01*
X153072993Y-97339504D01*
X153050471Y-97331446D01*
X153028847Y-97321218D01*
X153008330Y-97308921D01*
X152989117Y-97294671D01*
X152971393Y-97278607D01*
X152955329Y-97260883D01*
X152941079Y-97241670D01*
X152928782Y-97221153D01*
X152918554Y-97199529D01*
X152910496Y-97177007D01*
X152904684Y-97153803D01*
X152901174Y-97130142D01*
X152900000Y-97106250D01*
X152900000Y-96618750D01*
X152901174Y-96594858D01*
X152904684Y-96571197D01*
X152910496Y-96547993D01*
X152918554Y-96525471D01*
X152928782Y-96503847D01*
X152941079Y-96483330D01*
X152955329Y-96464117D01*
X152971393Y-96446393D01*
X152989117Y-96430329D01*
X153008330Y-96416079D01*
X153028847Y-96403782D01*
X153050471Y-96393554D01*
X153072993Y-96385496D01*
X153096197Y-96379684D01*
X153119858Y-96376174D01*
X153143750Y-96375000D01*
X154056250Y-96375000D01*
X154080142Y-96376174D01*
X154080142Y-96376174D01*
G37*
D14*
X153600000Y-96862500D03*
D12*
G36*
X156580142Y-96426174D02*
G01*
X156603803Y-96429684D01*
X156627007Y-96435496D01*
X156649529Y-96443554D01*
X156671153Y-96453782D01*
X156691670Y-96466079D01*
X156710883Y-96480329D01*
X156728607Y-96496393D01*
X156744671Y-96514117D01*
X156758921Y-96533330D01*
X156771218Y-96553847D01*
X156781446Y-96575471D01*
X156789504Y-96597993D01*
X156795316Y-96621197D01*
X156798826Y-96644858D01*
X156800000Y-96668750D01*
X156800000Y-97156250D01*
X156798826Y-97180142D01*
X156795316Y-97203803D01*
X156789504Y-97227007D01*
X156781446Y-97249529D01*
X156771218Y-97271153D01*
X156758921Y-97291670D01*
X156744671Y-97310883D01*
X156728607Y-97328607D01*
X156710883Y-97344671D01*
X156691670Y-97358921D01*
X156671153Y-97371218D01*
X156649529Y-97381446D01*
X156627007Y-97389504D01*
X156603803Y-97395316D01*
X156580142Y-97398826D01*
X156556250Y-97400000D01*
X155643750Y-97400000D01*
X155619858Y-97398826D01*
X155596197Y-97395316D01*
X155572993Y-97389504D01*
X155550471Y-97381446D01*
X155528847Y-97371218D01*
X155508330Y-97358921D01*
X155489117Y-97344671D01*
X155471393Y-97328607D01*
X155455329Y-97310883D01*
X155441079Y-97291670D01*
X155428782Y-97271153D01*
X155418554Y-97249529D01*
X155410496Y-97227007D01*
X155404684Y-97203803D01*
X155401174Y-97180142D01*
X155400000Y-97156250D01*
X155400000Y-96668750D01*
X155401174Y-96644858D01*
X155404684Y-96621197D01*
X155410496Y-96597993D01*
X155418554Y-96575471D01*
X155428782Y-96553847D01*
X155441079Y-96533330D01*
X155455329Y-96514117D01*
X155471393Y-96496393D01*
X155489117Y-96480329D01*
X155508330Y-96466079D01*
X155528847Y-96453782D01*
X155550471Y-96443554D01*
X155572993Y-96435496D01*
X155596197Y-96429684D01*
X155619858Y-96426174D01*
X155643750Y-96425000D01*
X156556250Y-96425000D01*
X156580142Y-96426174D01*
X156580142Y-96426174D01*
G37*
D14*
X156100000Y-96912500D03*
D12*
G36*
X156580142Y-98301174D02*
G01*
X156603803Y-98304684D01*
X156627007Y-98310496D01*
X156649529Y-98318554D01*
X156671153Y-98328782D01*
X156691670Y-98341079D01*
X156710883Y-98355329D01*
X156728607Y-98371393D01*
X156744671Y-98389117D01*
X156758921Y-98408330D01*
X156771218Y-98428847D01*
X156781446Y-98450471D01*
X156789504Y-98472993D01*
X156795316Y-98496197D01*
X156798826Y-98519858D01*
X156800000Y-98543750D01*
X156800000Y-99031250D01*
X156798826Y-99055142D01*
X156795316Y-99078803D01*
X156789504Y-99102007D01*
X156781446Y-99124529D01*
X156771218Y-99146153D01*
X156758921Y-99166670D01*
X156744671Y-99185883D01*
X156728607Y-99203607D01*
X156710883Y-99219671D01*
X156691670Y-99233921D01*
X156671153Y-99246218D01*
X156649529Y-99256446D01*
X156627007Y-99264504D01*
X156603803Y-99270316D01*
X156580142Y-99273826D01*
X156556250Y-99275000D01*
X155643750Y-99275000D01*
X155619858Y-99273826D01*
X155596197Y-99270316D01*
X155572993Y-99264504D01*
X155550471Y-99256446D01*
X155528847Y-99246218D01*
X155508330Y-99233921D01*
X155489117Y-99219671D01*
X155471393Y-99203607D01*
X155455329Y-99185883D01*
X155441079Y-99166670D01*
X155428782Y-99146153D01*
X155418554Y-99124529D01*
X155410496Y-99102007D01*
X155404684Y-99078803D01*
X155401174Y-99055142D01*
X155400000Y-99031250D01*
X155400000Y-98543750D01*
X155401174Y-98519858D01*
X155404684Y-98496197D01*
X155410496Y-98472993D01*
X155418554Y-98450471D01*
X155428782Y-98428847D01*
X155441079Y-98408330D01*
X155455329Y-98389117D01*
X155471393Y-98371393D01*
X155489117Y-98355329D01*
X155508330Y-98341079D01*
X155528847Y-98328782D01*
X155550471Y-98318554D01*
X155572993Y-98310496D01*
X155596197Y-98304684D01*
X155619858Y-98301174D01*
X155643750Y-98300000D01*
X156556250Y-98300000D01*
X156580142Y-98301174D01*
X156580142Y-98301174D01*
G37*
D14*
X156100000Y-98787500D03*
D12*
G36*
X130205142Y-91901174D02*
G01*
X130228803Y-91904684D01*
X130252007Y-91910496D01*
X130274529Y-91918554D01*
X130296153Y-91928782D01*
X130316670Y-91941079D01*
X130335883Y-91955329D01*
X130353607Y-91971393D01*
X130369671Y-91989117D01*
X130383921Y-92008330D01*
X130396218Y-92028847D01*
X130406446Y-92050471D01*
X130414504Y-92072993D01*
X130420316Y-92096197D01*
X130423826Y-92119858D01*
X130425000Y-92143750D01*
X130425000Y-93056250D01*
X130423826Y-93080142D01*
X130420316Y-93103803D01*
X130414504Y-93127007D01*
X130406446Y-93149529D01*
X130396218Y-93171153D01*
X130383921Y-93191670D01*
X130369671Y-93210883D01*
X130353607Y-93228607D01*
X130335883Y-93244671D01*
X130316670Y-93258921D01*
X130296153Y-93271218D01*
X130274529Y-93281446D01*
X130252007Y-93289504D01*
X130228803Y-93295316D01*
X130205142Y-93298826D01*
X130181250Y-93300000D01*
X129693750Y-93300000D01*
X129669858Y-93298826D01*
X129646197Y-93295316D01*
X129622993Y-93289504D01*
X129600471Y-93281446D01*
X129578847Y-93271218D01*
X129558330Y-93258921D01*
X129539117Y-93244671D01*
X129521393Y-93228607D01*
X129505329Y-93210883D01*
X129491079Y-93191670D01*
X129478782Y-93171153D01*
X129468554Y-93149529D01*
X129460496Y-93127007D01*
X129454684Y-93103803D01*
X129451174Y-93080142D01*
X129450000Y-93056250D01*
X129450000Y-92143750D01*
X129451174Y-92119858D01*
X129454684Y-92096197D01*
X129460496Y-92072993D01*
X129468554Y-92050471D01*
X129478782Y-92028847D01*
X129491079Y-92008330D01*
X129505329Y-91989117D01*
X129521393Y-91971393D01*
X129539117Y-91955329D01*
X129558330Y-91941079D01*
X129578847Y-91928782D01*
X129600471Y-91918554D01*
X129622993Y-91910496D01*
X129646197Y-91904684D01*
X129669858Y-91901174D01*
X129693750Y-91900000D01*
X130181250Y-91900000D01*
X130205142Y-91901174D01*
X130205142Y-91901174D01*
G37*
D14*
X129937500Y-92600000D03*
D12*
G36*
X128330142Y-91901174D02*
G01*
X128353803Y-91904684D01*
X128377007Y-91910496D01*
X128399529Y-91918554D01*
X128421153Y-91928782D01*
X128441670Y-91941079D01*
X128460883Y-91955329D01*
X128478607Y-91971393D01*
X128494671Y-91989117D01*
X128508921Y-92008330D01*
X128521218Y-92028847D01*
X128531446Y-92050471D01*
X128539504Y-92072993D01*
X128545316Y-92096197D01*
X128548826Y-92119858D01*
X128550000Y-92143750D01*
X128550000Y-93056250D01*
X128548826Y-93080142D01*
X128545316Y-93103803D01*
X128539504Y-93127007D01*
X128531446Y-93149529D01*
X128521218Y-93171153D01*
X128508921Y-93191670D01*
X128494671Y-93210883D01*
X128478607Y-93228607D01*
X128460883Y-93244671D01*
X128441670Y-93258921D01*
X128421153Y-93271218D01*
X128399529Y-93281446D01*
X128377007Y-93289504D01*
X128353803Y-93295316D01*
X128330142Y-93298826D01*
X128306250Y-93300000D01*
X127818750Y-93300000D01*
X127794858Y-93298826D01*
X127771197Y-93295316D01*
X127747993Y-93289504D01*
X127725471Y-93281446D01*
X127703847Y-93271218D01*
X127683330Y-93258921D01*
X127664117Y-93244671D01*
X127646393Y-93228607D01*
X127630329Y-93210883D01*
X127616079Y-93191670D01*
X127603782Y-93171153D01*
X127593554Y-93149529D01*
X127585496Y-93127007D01*
X127579684Y-93103803D01*
X127576174Y-93080142D01*
X127575000Y-93056250D01*
X127575000Y-92143750D01*
X127576174Y-92119858D01*
X127579684Y-92096197D01*
X127585496Y-92072993D01*
X127593554Y-92050471D01*
X127603782Y-92028847D01*
X127616079Y-92008330D01*
X127630329Y-91989117D01*
X127646393Y-91971393D01*
X127664117Y-91955329D01*
X127683330Y-91941079D01*
X127703847Y-91928782D01*
X127725471Y-91918554D01*
X127747993Y-91910496D01*
X127771197Y-91904684D01*
X127794858Y-91901174D01*
X127818750Y-91900000D01*
X128306250Y-91900000D01*
X128330142Y-91901174D01*
X128330142Y-91901174D01*
G37*
D14*
X128062500Y-92600000D03*
D12*
G36*
X108180142Y-59926174D02*
G01*
X108203803Y-59929684D01*
X108227007Y-59935496D01*
X108249529Y-59943554D01*
X108271153Y-59953782D01*
X108291670Y-59966079D01*
X108310883Y-59980329D01*
X108328607Y-59996393D01*
X108344671Y-60014117D01*
X108358921Y-60033330D01*
X108371218Y-60053847D01*
X108381446Y-60075471D01*
X108389504Y-60097993D01*
X108395316Y-60121197D01*
X108398826Y-60144858D01*
X108400000Y-60168750D01*
X108400000Y-60656250D01*
X108398826Y-60680142D01*
X108395316Y-60703803D01*
X108389504Y-60727007D01*
X108381446Y-60749529D01*
X108371218Y-60771153D01*
X108358921Y-60791670D01*
X108344671Y-60810883D01*
X108328607Y-60828607D01*
X108310883Y-60844671D01*
X108291670Y-60858921D01*
X108271153Y-60871218D01*
X108249529Y-60881446D01*
X108227007Y-60889504D01*
X108203803Y-60895316D01*
X108180142Y-60898826D01*
X108156250Y-60900000D01*
X107243750Y-60900000D01*
X107219858Y-60898826D01*
X107196197Y-60895316D01*
X107172993Y-60889504D01*
X107150471Y-60881446D01*
X107128847Y-60871218D01*
X107108330Y-60858921D01*
X107089117Y-60844671D01*
X107071393Y-60828607D01*
X107055329Y-60810883D01*
X107041079Y-60791670D01*
X107028782Y-60771153D01*
X107018554Y-60749529D01*
X107010496Y-60727007D01*
X107004684Y-60703803D01*
X107001174Y-60680142D01*
X107000000Y-60656250D01*
X107000000Y-60168750D01*
X107001174Y-60144858D01*
X107004684Y-60121197D01*
X107010496Y-60097993D01*
X107018554Y-60075471D01*
X107028782Y-60053847D01*
X107041079Y-60033330D01*
X107055329Y-60014117D01*
X107071393Y-59996393D01*
X107089117Y-59980329D01*
X107108330Y-59966079D01*
X107128847Y-59953782D01*
X107150471Y-59943554D01*
X107172993Y-59935496D01*
X107196197Y-59929684D01*
X107219858Y-59926174D01*
X107243750Y-59925000D01*
X108156250Y-59925000D01*
X108180142Y-59926174D01*
X108180142Y-59926174D01*
G37*
D14*
X107700000Y-60412500D03*
D12*
G36*
X108180142Y-61801174D02*
G01*
X108203803Y-61804684D01*
X108227007Y-61810496D01*
X108249529Y-61818554D01*
X108271153Y-61828782D01*
X108291670Y-61841079D01*
X108310883Y-61855329D01*
X108328607Y-61871393D01*
X108344671Y-61889117D01*
X108358921Y-61908330D01*
X108371218Y-61928847D01*
X108381446Y-61950471D01*
X108389504Y-61972993D01*
X108395316Y-61996197D01*
X108398826Y-62019858D01*
X108400000Y-62043750D01*
X108400000Y-62531250D01*
X108398826Y-62555142D01*
X108395316Y-62578803D01*
X108389504Y-62602007D01*
X108381446Y-62624529D01*
X108371218Y-62646153D01*
X108358921Y-62666670D01*
X108344671Y-62685883D01*
X108328607Y-62703607D01*
X108310883Y-62719671D01*
X108291670Y-62733921D01*
X108271153Y-62746218D01*
X108249529Y-62756446D01*
X108227007Y-62764504D01*
X108203803Y-62770316D01*
X108180142Y-62773826D01*
X108156250Y-62775000D01*
X107243750Y-62775000D01*
X107219858Y-62773826D01*
X107196197Y-62770316D01*
X107172993Y-62764504D01*
X107150471Y-62756446D01*
X107128847Y-62746218D01*
X107108330Y-62733921D01*
X107089117Y-62719671D01*
X107071393Y-62703607D01*
X107055329Y-62685883D01*
X107041079Y-62666670D01*
X107028782Y-62646153D01*
X107018554Y-62624529D01*
X107010496Y-62602007D01*
X107004684Y-62578803D01*
X107001174Y-62555142D01*
X107000000Y-62531250D01*
X107000000Y-62043750D01*
X107001174Y-62019858D01*
X107004684Y-61996197D01*
X107010496Y-61972993D01*
X107018554Y-61950471D01*
X107028782Y-61928847D01*
X107041079Y-61908330D01*
X107055329Y-61889117D01*
X107071393Y-61871393D01*
X107089117Y-61855329D01*
X107108330Y-61841079D01*
X107128847Y-61828782D01*
X107150471Y-61818554D01*
X107172993Y-61810496D01*
X107196197Y-61804684D01*
X107219858Y-61801174D01*
X107243750Y-61800000D01*
X108156250Y-61800000D01*
X108180142Y-61801174D01*
X108180142Y-61801174D01*
G37*
D14*
X107700000Y-62287500D03*
D12*
G36*
X107680142Y-85001174D02*
G01*
X107703803Y-85004684D01*
X107727007Y-85010496D01*
X107749529Y-85018554D01*
X107771153Y-85028782D01*
X107791670Y-85041079D01*
X107810883Y-85055329D01*
X107828607Y-85071393D01*
X107844671Y-85089117D01*
X107858921Y-85108330D01*
X107871218Y-85128847D01*
X107881446Y-85150471D01*
X107889504Y-85172993D01*
X107895316Y-85196197D01*
X107898826Y-85219858D01*
X107900000Y-85243750D01*
X107900000Y-85731250D01*
X107898826Y-85755142D01*
X107895316Y-85778803D01*
X107889504Y-85802007D01*
X107881446Y-85824529D01*
X107871218Y-85846153D01*
X107858921Y-85866670D01*
X107844671Y-85885883D01*
X107828607Y-85903607D01*
X107810883Y-85919671D01*
X107791670Y-85933921D01*
X107771153Y-85946218D01*
X107749529Y-85956446D01*
X107727007Y-85964504D01*
X107703803Y-85970316D01*
X107680142Y-85973826D01*
X107656250Y-85975000D01*
X106743750Y-85975000D01*
X106719858Y-85973826D01*
X106696197Y-85970316D01*
X106672993Y-85964504D01*
X106650471Y-85956446D01*
X106628847Y-85946218D01*
X106608330Y-85933921D01*
X106589117Y-85919671D01*
X106571393Y-85903607D01*
X106555329Y-85885883D01*
X106541079Y-85866670D01*
X106528782Y-85846153D01*
X106518554Y-85824529D01*
X106510496Y-85802007D01*
X106504684Y-85778803D01*
X106501174Y-85755142D01*
X106500000Y-85731250D01*
X106500000Y-85243750D01*
X106501174Y-85219858D01*
X106504684Y-85196197D01*
X106510496Y-85172993D01*
X106518554Y-85150471D01*
X106528782Y-85128847D01*
X106541079Y-85108330D01*
X106555329Y-85089117D01*
X106571393Y-85071393D01*
X106589117Y-85055329D01*
X106608330Y-85041079D01*
X106628847Y-85028782D01*
X106650471Y-85018554D01*
X106672993Y-85010496D01*
X106696197Y-85004684D01*
X106719858Y-85001174D01*
X106743750Y-85000000D01*
X107656250Y-85000000D01*
X107680142Y-85001174D01*
X107680142Y-85001174D01*
G37*
D14*
X107200000Y-85487500D03*
D12*
G36*
X107680142Y-83126174D02*
G01*
X107703803Y-83129684D01*
X107727007Y-83135496D01*
X107749529Y-83143554D01*
X107771153Y-83153782D01*
X107791670Y-83166079D01*
X107810883Y-83180329D01*
X107828607Y-83196393D01*
X107844671Y-83214117D01*
X107858921Y-83233330D01*
X107871218Y-83253847D01*
X107881446Y-83275471D01*
X107889504Y-83297993D01*
X107895316Y-83321197D01*
X107898826Y-83344858D01*
X107900000Y-83368750D01*
X107900000Y-83856250D01*
X107898826Y-83880142D01*
X107895316Y-83903803D01*
X107889504Y-83927007D01*
X107881446Y-83949529D01*
X107871218Y-83971153D01*
X107858921Y-83991670D01*
X107844671Y-84010883D01*
X107828607Y-84028607D01*
X107810883Y-84044671D01*
X107791670Y-84058921D01*
X107771153Y-84071218D01*
X107749529Y-84081446D01*
X107727007Y-84089504D01*
X107703803Y-84095316D01*
X107680142Y-84098826D01*
X107656250Y-84100000D01*
X106743750Y-84100000D01*
X106719858Y-84098826D01*
X106696197Y-84095316D01*
X106672993Y-84089504D01*
X106650471Y-84081446D01*
X106628847Y-84071218D01*
X106608330Y-84058921D01*
X106589117Y-84044671D01*
X106571393Y-84028607D01*
X106555329Y-84010883D01*
X106541079Y-83991670D01*
X106528782Y-83971153D01*
X106518554Y-83949529D01*
X106510496Y-83927007D01*
X106504684Y-83903803D01*
X106501174Y-83880142D01*
X106500000Y-83856250D01*
X106500000Y-83368750D01*
X106501174Y-83344858D01*
X106504684Y-83321197D01*
X106510496Y-83297993D01*
X106518554Y-83275471D01*
X106528782Y-83253847D01*
X106541079Y-83233330D01*
X106555329Y-83214117D01*
X106571393Y-83196393D01*
X106589117Y-83180329D01*
X106608330Y-83166079D01*
X106628847Y-83153782D01*
X106650471Y-83143554D01*
X106672993Y-83135496D01*
X106696197Y-83129684D01*
X106719858Y-83126174D01*
X106743750Y-83125000D01*
X107656250Y-83125000D01*
X107680142Y-83126174D01*
X107680142Y-83126174D01*
G37*
D14*
X107200000Y-83612500D03*
D12*
G36*
X120280142Y-97151174D02*
G01*
X120303803Y-97154684D01*
X120327007Y-97160496D01*
X120349529Y-97168554D01*
X120371153Y-97178782D01*
X120391670Y-97191079D01*
X120410883Y-97205329D01*
X120428607Y-97221393D01*
X120444671Y-97239117D01*
X120458921Y-97258330D01*
X120471218Y-97278847D01*
X120481446Y-97300471D01*
X120489504Y-97322993D01*
X120495316Y-97346197D01*
X120498826Y-97369858D01*
X120500000Y-97393750D01*
X120500000Y-97881250D01*
X120498826Y-97905142D01*
X120495316Y-97928803D01*
X120489504Y-97952007D01*
X120481446Y-97974529D01*
X120471218Y-97996153D01*
X120458921Y-98016670D01*
X120444671Y-98035883D01*
X120428607Y-98053607D01*
X120410883Y-98069671D01*
X120391670Y-98083921D01*
X120371153Y-98096218D01*
X120349529Y-98106446D01*
X120327007Y-98114504D01*
X120303803Y-98120316D01*
X120280142Y-98123826D01*
X120256250Y-98125000D01*
X119343750Y-98125000D01*
X119319858Y-98123826D01*
X119296197Y-98120316D01*
X119272993Y-98114504D01*
X119250471Y-98106446D01*
X119228847Y-98096218D01*
X119208330Y-98083921D01*
X119189117Y-98069671D01*
X119171393Y-98053607D01*
X119155329Y-98035883D01*
X119141079Y-98016670D01*
X119128782Y-97996153D01*
X119118554Y-97974529D01*
X119110496Y-97952007D01*
X119104684Y-97928803D01*
X119101174Y-97905142D01*
X119100000Y-97881250D01*
X119100000Y-97393750D01*
X119101174Y-97369858D01*
X119104684Y-97346197D01*
X119110496Y-97322993D01*
X119118554Y-97300471D01*
X119128782Y-97278847D01*
X119141079Y-97258330D01*
X119155329Y-97239117D01*
X119171393Y-97221393D01*
X119189117Y-97205329D01*
X119208330Y-97191079D01*
X119228847Y-97178782D01*
X119250471Y-97168554D01*
X119272993Y-97160496D01*
X119296197Y-97154684D01*
X119319858Y-97151174D01*
X119343750Y-97150000D01*
X120256250Y-97150000D01*
X120280142Y-97151174D01*
X120280142Y-97151174D01*
G37*
D14*
X119800000Y-97637500D03*
D12*
G36*
X120280142Y-95276174D02*
G01*
X120303803Y-95279684D01*
X120327007Y-95285496D01*
X120349529Y-95293554D01*
X120371153Y-95303782D01*
X120391670Y-95316079D01*
X120410883Y-95330329D01*
X120428607Y-95346393D01*
X120444671Y-95364117D01*
X120458921Y-95383330D01*
X120471218Y-95403847D01*
X120481446Y-95425471D01*
X120489504Y-95447993D01*
X120495316Y-95471197D01*
X120498826Y-95494858D01*
X120500000Y-95518750D01*
X120500000Y-96006250D01*
X120498826Y-96030142D01*
X120495316Y-96053803D01*
X120489504Y-96077007D01*
X120481446Y-96099529D01*
X120471218Y-96121153D01*
X120458921Y-96141670D01*
X120444671Y-96160883D01*
X120428607Y-96178607D01*
X120410883Y-96194671D01*
X120391670Y-96208921D01*
X120371153Y-96221218D01*
X120349529Y-96231446D01*
X120327007Y-96239504D01*
X120303803Y-96245316D01*
X120280142Y-96248826D01*
X120256250Y-96250000D01*
X119343750Y-96250000D01*
X119319858Y-96248826D01*
X119296197Y-96245316D01*
X119272993Y-96239504D01*
X119250471Y-96231446D01*
X119228847Y-96221218D01*
X119208330Y-96208921D01*
X119189117Y-96194671D01*
X119171393Y-96178607D01*
X119155329Y-96160883D01*
X119141079Y-96141670D01*
X119128782Y-96121153D01*
X119118554Y-96099529D01*
X119110496Y-96077007D01*
X119104684Y-96053803D01*
X119101174Y-96030142D01*
X119100000Y-96006250D01*
X119100000Y-95518750D01*
X119101174Y-95494858D01*
X119104684Y-95471197D01*
X119110496Y-95447993D01*
X119118554Y-95425471D01*
X119128782Y-95403847D01*
X119141079Y-95383330D01*
X119155329Y-95364117D01*
X119171393Y-95346393D01*
X119189117Y-95330329D01*
X119208330Y-95316079D01*
X119228847Y-95303782D01*
X119250471Y-95293554D01*
X119272993Y-95285496D01*
X119296197Y-95279684D01*
X119319858Y-95276174D01*
X119343750Y-95275000D01*
X120256250Y-95275000D01*
X120280142Y-95276174D01*
X120280142Y-95276174D01*
G37*
D14*
X119800000Y-95762500D03*
D12*
G36*
X151805142Y-81301174D02*
G01*
X151828803Y-81304684D01*
X151852007Y-81310496D01*
X151874529Y-81318554D01*
X151896153Y-81328782D01*
X151916670Y-81341079D01*
X151935883Y-81355329D01*
X151953607Y-81371393D01*
X151969671Y-81389117D01*
X151983921Y-81408330D01*
X151996218Y-81428847D01*
X152006446Y-81450471D01*
X152014504Y-81472993D01*
X152020316Y-81496197D01*
X152023826Y-81519858D01*
X152025000Y-81543750D01*
X152025000Y-82456250D01*
X152023826Y-82480142D01*
X152020316Y-82503803D01*
X152014504Y-82527007D01*
X152006446Y-82549529D01*
X151996218Y-82571153D01*
X151983921Y-82591670D01*
X151969671Y-82610883D01*
X151953607Y-82628607D01*
X151935883Y-82644671D01*
X151916670Y-82658921D01*
X151896153Y-82671218D01*
X151874529Y-82681446D01*
X151852007Y-82689504D01*
X151828803Y-82695316D01*
X151805142Y-82698826D01*
X151781250Y-82700000D01*
X151293750Y-82700000D01*
X151269858Y-82698826D01*
X151246197Y-82695316D01*
X151222993Y-82689504D01*
X151200471Y-82681446D01*
X151178847Y-82671218D01*
X151158330Y-82658921D01*
X151139117Y-82644671D01*
X151121393Y-82628607D01*
X151105329Y-82610883D01*
X151091079Y-82591670D01*
X151078782Y-82571153D01*
X151068554Y-82549529D01*
X151060496Y-82527007D01*
X151054684Y-82503803D01*
X151051174Y-82480142D01*
X151050000Y-82456250D01*
X151050000Y-81543750D01*
X151051174Y-81519858D01*
X151054684Y-81496197D01*
X151060496Y-81472993D01*
X151068554Y-81450471D01*
X151078782Y-81428847D01*
X151091079Y-81408330D01*
X151105329Y-81389117D01*
X151121393Y-81371393D01*
X151139117Y-81355329D01*
X151158330Y-81341079D01*
X151178847Y-81328782D01*
X151200471Y-81318554D01*
X151222993Y-81310496D01*
X151246197Y-81304684D01*
X151269858Y-81301174D01*
X151293750Y-81300000D01*
X151781250Y-81300000D01*
X151805142Y-81301174D01*
X151805142Y-81301174D01*
G37*
D14*
X151537500Y-82000000D03*
D12*
G36*
X149930142Y-81301174D02*
G01*
X149953803Y-81304684D01*
X149977007Y-81310496D01*
X149999529Y-81318554D01*
X150021153Y-81328782D01*
X150041670Y-81341079D01*
X150060883Y-81355329D01*
X150078607Y-81371393D01*
X150094671Y-81389117D01*
X150108921Y-81408330D01*
X150121218Y-81428847D01*
X150131446Y-81450471D01*
X150139504Y-81472993D01*
X150145316Y-81496197D01*
X150148826Y-81519858D01*
X150150000Y-81543750D01*
X150150000Y-82456250D01*
X150148826Y-82480142D01*
X150145316Y-82503803D01*
X150139504Y-82527007D01*
X150131446Y-82549529D01*
X150121218Y-82571153D01*
X150108921Y-82591670D01*
X150094671Y-82610883D01*
X150078607Y-82628607D01*
X150060883Y-82644671D01*
X150041670Y-82658921D01*
X150021153Y-82671218D01*
X149999529Y-82681446D01*
X149977007Y-82689504D01*
X149953803Y-82695316D01*
X149930142Y-82698826D01*
X149906250Y-82700000D01*
X149418750Y-82700000D01*
X149394858Y-82698826D01*
X149371197Y-82695316D01*
X149347993Y-82689504D01*
X149325471Y-82681446D01*
X149303847Y-82671218D01*
X149283330Y-82658921D01*
X149264117Y-82644671D01*
X149246393Y-82628607D01*
X149230329Y-82610883D01*
X149216079Y-82591670D01*
X149203782Y-82571153D01*
X149193554Y-82549529D01*
X149185496Y-82527007D01*
X149179684Y-82503803D01*
X149176174Y-82480142D01*
X149175000Y-82456250D01*
X149175000Y-81543750D01*
X149176174Y-81519858D01*
X149179684Y-81496197D01*
X149185496Y-81472993D01*
X149193554Y-81450471D01*
X149203782Y-81428847D01*
X149216079Y-81408330D01*
X149230329Y-81389117D01*
X149246393Y-81371393D01*
X149264117Y-81355329D01*
X149283330Y-81341079D01*
X149303847Y-81328782D01*
X149325471Y-81318554D01*
X149347993Y-81310496D01*
X149371197Y-81304684D01*
X149394858Y-81301174D01*
X149418750Y-81300000D01*
X149906250Y-81300000D01*
X149930142Y-81301174D01*
X149930142Y-81301174D01*
G37*
D14*
X149662500Y-82000000D03*
D12*
G36*
X152105142Y-60001174D02*
G01*
X152128803Y-60004684D01*
X152152007Y-60010496D01*
X152174529Y-60018554D01*
X152196153Y-60028782D01*
X152216670Y-60041079D01*
X152235883Y-60055329D01*
X152253607Y-60071393D01*
X152269671Y-60089117D01*
X152283921Y-60108330D01*
X152296218Y-60128847D01*
X152306446Y-60150471D01*
X152314504Y-60172993D01*
X152320316Y-60196197D01*
X152323826Y-60219858D01*
X152325000Y-60243750D01*
X152325000Y-61156250D01*
X152323826Y-61180142D01*
X152320316Y-61203803D01*
X152314504Y-61227007D01*
X152306446Y-61249529D01*
X152296218Y-61271153D01*
X152283921Y-61291670D01*
X152269671Y-61310883D01*
X152253607Y-61328607D01*
X152235883Y-61344671D01*
X152216670Y-61358921D01*
X152196153Y-61371218D01*
X152174529Y-61381446D01*
X152152007Y-61389504D01*
X152128803Y-61395316D01*
X152105142Y-61398826D01*
X152081250Y-61400000D01*
X151593750Y-61400000D01*
X151569858Y-61398826D01*
X151546197Y-61395316D01*
X151522993Y-61389504D01*
X151500471Y-61381446D01*
X151478847Y-61371218D01*
X151458330Y-61358921D01*
X151439117Y-61344671D01*
X151421393Y-61328607D01*
X151405329Y-61310883D01*
X151391079Y-61291670D01*
X151378782Y-61271153D01*
X151368554Y-61249529D01*
X151360496Y-61227007D01*
X151354684Y-61203803D01*
X151351174Y-61180142D01*
X151350000Y-61156250D01*
X151350000Y-60243750D01*
X151351174Y-60219858D01*
X151354684Y-60196197D01*
X151360496Y-60172993D01*
X151368554Y-60150471D01*
X151378782Y-60128847D01*
X151391079Y-60108330D01*
X151405329Y-60089117D01*
X151421393Y-60071393D01*
X151439117Y-60055329D01*
X151458330Y-60041079D01*
X151478847Y-60028782D01*
X151500471Y-60018554D01*
X151522993Y-60010496D01*
X151546197Y-60004684D01*
X151569858Y-60001174D01*
X151593750Y-60000000D01*
X152081250Y-60000000D01*
X152105142Y-60001174D01*
X152105142Y-60001174D01*
G37*
D14*
X151837500Y-60700000D03*
D12*
G36*
X150230142Y-60001174D02*
G01*
X150253803Y-60004684D01*
X150277007Y-60010496D01*
X150299529Y-60018554D01*
X150321153Y-60028782D01*
X150341670Y-60041079D01*
X150360883Y-60055329D01*
X150378607Y-60071393D01*
X150394671Y-60089117D01*
X150408921Y-60108330D01*
X150421218Y-60128847D01*
X150431446Y-60150471D01*
X150439504Y-60172993D01*
X150445316Y-60196197D01*
X150448826Y-60219858D01*
X150450000Y-60243750D01*
X150450000Y-61156250D01*
X150448826Y-61180142D01*
X150445316Y-61203803D01*
X150439504Y-61227007D01*
X150431446Y-61249529D01*
X150421218Y-61271153D01*
X150408921Y-61291670D01*
X150394671Y-61310883D01*
X150378607Y-61328607D01*
X150360883Y-61344671D01*
X150341670Y-61358921D01*
X150321153Y-61371218D01*
X150299529Y-61381446D01*
X150277007Y-61389504D01*
X150253803Y-61395316D01*
X150230142Y-61398826D01*
X150206250Y-61400000D01*
X149718750Y-61400000D01*
X149694858Y-61398826D01*
X149671197Y-61395316D01*
X149647993Y-61389504D01*
X149625471Y-61381446D01*
X149603847Y-61371218D01*
X149583330Y-61358921D01*
X149564117Y-61344671D01*
X149546393Y-61328607D01*
X149530329Y-61310883D01*
X149516079Y-61291670D01*
X149503782Y-61271153D01*
X149493554Y-61249529D01*
X149485496Y-61227007D01*
X149479684Y-61203803D01*
X149476174Y-61180142D01*
X149475000Y-61156250D01*
X149475000Y-60243750D01*
X149476174Y-60219858D01*
X149479684Y-60196197D01*
X149485496Y-60172993D01*
X149493554Y-60150471D01*
X149503782Y-60128847D01*
X149516079Y-60108330D01*
X149530329Y-60089117D01*
X149546393Y-60071393D01*
X149564117Y-60055329D01*
X149583330Y-60041079D01*
X149603847Y-60028782D01*
X149625471Y-60018554D01*
X149647993Y-60010496D01*
X149671197Y-60004684D01*
X149694858Y-60001174D01*
X149718750Y-60000000D01*
X150206250Y-60000000D01*
X150230142Y-60001174D01*
X150230142Y-60001174D01*
G37*
D14*
X149962500Y-60700000D03*
D12*
G36*
X113580142Y-120551174D02*
G01*
X113603803Y-120554684D01*
X113627007Y-120560496D01*
X113649529Y-120568554D01*
X113671153Y-120578782D01*
X113691670Y-120591079D01*
X113710883Y-120605329D01*
X113728607Y-120621393D01*
X113744671Y-120639117D01*
X113758921Y-120658330D01*
X113771218Y-120678847D01*
X113781446Y-120700471D01*
X113789504Y-120722993D01*
X113795316Y-120746197D01*
X113798826Y-120769858D01*
X113800000Y-120793750D01*
X113800000Y-121281250D01*
X113798826Y-121305142D01*
X113795316Y-121328803D01*
X113789504Y-121352007D01*
X113781446Y-121374529D01*
X113771218Y-121396153D01*
X113758921Y-121416670D01*
X113744671Y-121435883D01*
X113728607Y-121453607D01*
X113710883Y-121469671D01*
X113691670Y-121483921D01*
X113671153Y-121496218D01*
X113649529Y-121506446D01*
X113627007Y-121514504D01*
X113603803Y-121520316D01*
X113580142Y-121523826D01*
X113556250Y-121525000D01*
X112643750Y-121525000D01*
X112619858Y-121523826D01*
X112596197Y-121520316D01*
X112572993Y-121514504D01*
X112550471Y-121506446D01*
X112528847Y-121496218D01*
X112508330Y-121483921D01*
X112489117Y-121469671D01*
X112471393Y-121453607D01*
X112455329Y-121435883D01*
X112441079Y-121416670D01*
X112428782Y-121396153D01*
X112418554Y-121374529D01*
X112410496Y-121352007D01*
X112404684Y-121328803D01*
X112401174Y-121305142D01*
X112400000Y-121281250D01*
X112400000Y-120793750D01*
X112401174Y-120769858D01*
X112404684Y-120746197D01*
X112410496Y-120722993D01*
X112418554Y-120700471D01*
X112428782Y-120678847D01*
X112441079Y-120658330D01*
X112455329Y-120639117D01*
X112471393Y-120621393D01*
X112489117Y-120605329D01*
X112508330Y-120591079D01*
X112528847Y-120578782D01*
X112550471Y-120568554D01*
X112572993Y-120560496D01*
X112596197Y-120554684D01*
X112619858Y-120551174D01*
X112643750Y-120550000D01*
X113556250Y-120550000D01*
X113580142Y-120551174D01*
X113580142Y-120551174D01*
G37*
D14*
X113100000Y-121037500D03*
D12*
G36*
X113580142Y-118676174D02*
G01*
X113603803Y-118679684D01*
X113627007Y-118685496D01*
X113649529Y-118693554D01*
X113671153Y-118703782D01*
X113691670Y-118716079D01*
X113710883Y-118730329D01*
X113728607Y-118746393D01*
X113744671Y-118764117D01*
X113758921Y-118783330D01*
X113771218Y-118803847D01*
X113781446Y-118825471D01*
X113789504Y-118847993D01*
X113795316Y-118871197D01*
X113798826Y-118894858D01*
X113800000Y-118918750D01*
X113800000Y-119406250D01*
X113798826Y-119430142D01*
X113795316Y-119453803D01*
X113789504Y-119477007D01*
X113781446Y-119499529D01*
X113771218Y-119521153D01*
X113758921Y-119541670D01*
X113744671Y-119560883D01*
X113728607Y-119578607D01*
X113710883Y-119594671D01*
X113691670Y-119608921D01*
X113671153Y-119621218D01*
X113649529Y-119631446D01*
X113627007Y-119639504D01*
X113603803Y-119645316D01*
X113580142Y-119648826D01*
X113556250Y-119650000D01*
X112643750Y-119650000D01*
X112619858Y-119648826D01*
X112596197Y-119645316D01*
X112572993Y-119639504D01*
X112550471Y-119631446D01*
X112528847Y-119621218D01*
X112508330Y-119608921D01*
X112489117Y-119594671D01*
X112471393Y-119578607D01*
X112455329Y-119560883D01*
X112441079Y-119541670D01*
X112428782Y-119521153D01*
X112418554Y-119499529D01*
X112410496Y-119477007D01*
X112404684Y-119453803D01*
X112401174Y-119430142D01*
X112400000Y-119406250D01*
X112400000Y-118918750D01*
X112401174Y-118894858D01*
X112404684Y-118871197D01*
X112410496Y-118847993D01*
X112418554Y-118825471D01*
X112428782Y-118803847D01*
X112441079Y-118783330D01*
X112455329Y-118764117D01*
X112471393Y-118746393D01*
X112489117Y-118730329D01*
X112508330Y-118716079D01*
X112528847Y-118703782D01*
X112550471Y-118693554D01*
X112572993Y-118685496D01*
X112596197Y-118679684D01*
X112619858Y-118676174D01*
X112643750Y-118675000D01*
X113556250Y-118675000D01*
X113580142Y-118676174D01*
X113580142Y-118676174D01*
G37*
D14*
X113100000Y-119162500D03*
D12*
G36*
X154380142Y-115451174D02*
G01*
X154403803Y-115454684D01*
X154427007Y-115460496D01*
X154449529Y-115468554D01*
X154471153Y-115478782D01*
X154491670Y-115491079D01*
X154510883Y-115505329D01*
X154528607Y-115521393D01*
X154544671Y-115539117D01*
X154558921Y-115558330D01*
X154571218Y-115578847D01*
X154581446Y-115600471D01*
X154589504Y-115622993D01*
X154595316Y-115646197D01*
X154598826Y-115669858D01*
X154600000Y-115693750D01*
X154600000Y-116181250D01*
X154598826Y-116205142D01*
X154595316Y-116228803D01*
X154589504Y-116252007D01*
X154581446Y-116274529D01*
X154571218Y-116296153D01*
X154558921Y-116316670D01*
X154544671Y-116335883D01*
X154528607Y-116353607D01*
X154510883Y-116369671D01*
X154491670Y-116383921D01*
X154471153Y-116396218D01*
X154449529Y-116406446D01*
X154427007Y-116414504D01*
X154403803Y-116420316D01*
X154380142Y-116423826D01*
X154356250Y-116425000D01*
X153443750Y-116425000D01*
X153419858Y-116423826D01*
X153396197Y-116420316D01*
X153372993Y-116414504D01*
X153350471Y-116406446D01*
X153328847Y-116396218D01*
X153308330Y-116383921D01*
X153289117Y-116369671D01*
X153271393Y-116353607D01*
X153255329Y-116335883D01*
X153241079Y-116316670D01*
X153228782Y-116296153D01*
X153218554Y-116274529D01*
X153210496Y-116252007D01*
X153204684Y-116228803D01*
X153201174Y-116205142D01*
X153200000Y-116181250D01*
X153200000Y-115693750D01*
X153201174Y-115669858D01*
X153204684Y-115646197D01*
X153210496Y-115622993D01*
X153218554Y-115600471D01*
X153228782Y-115578847D01*
X153241079Y-115558330D01*
X153255329Y-115539117D01*
X153271393Y-115521393D01*
X153289117Y-115505329D01*
X153308330Y-115491079D01*
X153328847Y-115478782D01*
X153350471Y-115468554D01*
X153372993Y-115460496D01*
X153396197Y-115454684D01*
X153419858Y-115451174D01*
X153443750Y-115450000D01*
X154356250Y-115450000D01*
X154380142Y-115451174D01*
X154380142Y-115451174D01*
G37*
D14*
X153900000Y-115937500D03*
D12*
G36*
X154380142Y-113576174D02*
G01*
X154403803Y-113579684D01*
X154427007Y-113585496D01*
X154449529Y-113593554D01*
X154471153Y-113603782D01*
X154491670Y-113616079D01*
X154510883Y-113630329D01*
X154528607Y-113646393D01*
X154544671Y-113664117D01*
X154558921Y-113683330D01*
X154571218Y-113703847D01*
X154581446Y-113725471D01*
X154589504Y-113747993D01*
X154595316Y-113771197D01*
X154598826Y-113794858D01*
X154600000Y-113818750D01*
X154600000Y-114306250D01*
X154598826Y-114330142D01*
X154595316Y-114353803D01*
X154589504Y-114377007D01*
X154581446Y-114399529D01*
X154571218Y-114421153D01*
X154558921Y-114441670D01*
X154544671Y-114460883D01*
X154528607Y-114478607D01*
X154510883Y-114494671D01*
X154491670Y-114508921D01*
X154471153Y-114521218D01*
X154449529Y-114531446D01*
X154427007Y-114539504D01*
X154403803Y-114545316D01*
X154380142Y-114548826D01*
X154356250Y-114550000D01*
X153443750Y-114550000D01*
X153419858Y-114548826D01*
X153396197Y-114545316D01*
X153372993Y-114539504D01*
X153350471Y-114531446D01*
X153328847Y-114521218D01*
X153308330Y-114508921D01*
X153289117Y-114494671D01*
X153271393Y-114478607D01*
X153255329Y-114460883D01*
X153241079Y-114441670D01*
X153228782Y-114421153D01*
X153218554Y-114399529D01*
X153210496Y-114377007D01*
X153204684Y-114353803D01*
X153201174Y-114330142D01*
X153200000Y-114306250D01*
X153200000Y-113818750D01*
X153201174Y-113794858D01*
X153204684Y-113771197D01*
X153210496Y-113747993D01*
X153218554Y-113725471D01*
X153228782Y-113703847D01*
X153241079Y-113683330D01*
X153255329Y-113664117D01*
X153271393Y-113646393D01*
X153289117Y-113630329D01*
X153308330Y-113616079D01*
X153328847Y-113603782D01*
X153350471Y-113593554D01*
X153372993Y-113585496D01*
X153396197Y-113579684D01*
X153419858Y-113576174D01*
X153443750Y-113575000D01*
X154356250Y-113575000D01*
X154380142Y-113576174D01*
X154380142Y-113576174D01*
G37*
D14*
X153900000Y-114062500D03*
D12*
G36*
X127080142Y-120451174D02*
G01*
X127103803Y-120454684D01*
X127127007Y-120460496D01*
X127149529Y-120468554D01*
X127171153Y-120478782D01*
X127191670Y-120491079D01*
X127210883Y-120505329D01*
X127228607Y-120521393D01*
X127244671Y-120539117D01*
X127258921Y-120558330D01*
X127271218Y-120578847D01*
X127281446Y-120600471D01*
X127289504Y-120622993D01*
X127295316Y-120646197D01*
X127298826Y-120669858D01*
X127300000Y-120693750D01*
X127300000Y-121181250D01*
X127298826Y-121205142D01*
X127295316Y-121228803D01*
X127289504Y-121252007D01*
X127281446Y-121274529D01*
X127271218Y-121296153D01*
X127258921Y-121316670D01*
X127244671Y-121335883D01*
X127228607Y-121353607D01*
X127210883Y-121369671D01*
X127191670Y-121383921D01*
X127171153Y-121396218D01*
X127149529Y-121406446D01*
X127127007Y-121414504D01*
X127103803Y-121420316D01*
X127080142Y-121423826D01*
X127056250Y-121425000D01*
X126143750Y-121425000D01*
X126119858Y-121423826D01*
X126096197Y-121420316D01*
X126072993Y-121414504D01*
X126050471Y-121406446D01*
X126028847Y-121396218D01*
X126008330Y-121383921D01*
X125989117Y-121369671D01*
X125971393Y-121353607D01*
X125955329Y-121335883D01*
X125941079Y-121316670D01*
X125928782Y-121296153D01*
X125918554Y-121274529D01*
X125910496Y-121252007D01*
X125904684Y-121228803D01*
X125901174Y-121205142D01*
X125900000Y-121181250D01*
X125900000Y-120693750D01*
X125901174Y-120669858D01*
X125904684Y-120646197D01*
X125910496Y-120622993D01*
X125918554Y-120600471D01*
X125928782Y-120578847D01*
X125941079Y-120558330D01*
X125955329Y-120539117D01*
X125971393Y-120521393D01*
X125989117Y-120505329D01*
X126008330Y-120491079D01*
X126028847Y-120478782D01*
X126050471Y-120468554D01*
X126072993Y-120460496D01*
X126096197Y-120454684D01*
X126119858Y-120451174D01*
X126143750Y-120450000D01*
X127056250Y-120450000D01*
X127080142Y-120451174D01*
X127080142Y-120451174D01*
G37*
D14*
X126600000Y-120937500D03*
D12*
G36*
X127080142Y-118576174D02*
G01*
X127103803Y-118579684D01*
X127127007Y-118585496D01*
X127149529Y-118593554D01*
X127171153Y-118603782D01*
X127191670Y-118616079D01*
X127210883Y-118630329D01*
X127228607Y-118646393D01*
X127244671Y-118664117D01*
X127258921Y-118683330D01*
X127271218Y-118703847D01*
X127281446Y-118725471D01*
X127289504Y-118747993D01*
X127295316Y-118771197D01*
X127298826Y-118794858D01*
X127300000Y-118818750D01*
X127300000Y-119306250D01*
X127298826Y-119330142D01*
X127295316Y-119353803D01*
X127289504Y-119377007D01*
X127281446Y-119399529D01*
X127271218Y-119421153D01*
X127258921Y-119441670D01*
X127244671Y-119460883D01*
X127228607Y-119478607D01*
X127210883Y-119494671D01*
X127191670Y-119508921D01*
X127171153Y-119521218D01*
X127149529Y-119531446D01*
X127127007Y-119539504D01*
X127103803Y-119545316D01*
X127080142Y-119548826D01*
X127056250Y-119550000D01*
X126143750Y-119550000D01*
X126119858Y-119548826D01*
X126096197Y-119545316D01*
X126072993Y-119539504D01*
X126050471Y-119531446D01*
X126028847Y-119521218D01*
X126008330Y-119508921D01*
X125989117Y-119494671D01*
X125971393Y-119478607D01*
X125955329Y-119460883D01*
X125941079Y-119441670D01*
X125928782Y-119421153D01*
X125918554Y-119399529D01*
X125910496Y-119377007D01*
X125904684Y-119353803D01*
X125901174Y-119330142D01*
X125900000Y-119306250D01*
X125900000Y-118818750D01*
X125901174Y-118794858D01*
X125904684Y-118771197D01*
X125910496Y-118747993D01*
X125918554Y-118725471D01*
X125928782Y-118703847D01*
X125941079Y-118683330D01*
X125955329Y-118664117D01*
X125971393Y-118646393D01*
X125989117Y-118630329D01*
X126008330Y-118616079D01*
X126028847Y-118603782D01*
X126050471Y-118593554D01*
X126072993Y-118585496D01*
X126096197Y-118579684D01*
X126119858Y-118576174D01*
X126143750Y-118575000D01*
X127056250Y-118575000D01*
X127080142Y-118576174D01*
X127080142Y-118576174D01*
G37*
D14*
X126600000Y-119062500D03*
D12*
G36*
X164480142Y-125451174D02*
G01*
X164503803Y-125454684D01*
X164527007Y-125460496D01*
X164549529Y-125468554D01*
X164571153Y-125478782D01*
X164591670Y-125491079D01*
X164610883Y-125505329D01*
X164628607Y-125521393D01*
X164644671Y-125539117D01*
X164658921Y-125558330D01*
X164671218Y-125578847D01*
X164681446Y-125600471D01*
X164689504Y-125622993D01*
X164695316Y-125646197D01*
X164698826Y-125669858D01*
X164700000Y-125693750D01*
X164700000Y-126181250D01*
X164698826Y-126205142D01*
X164695316Y-126228803D01*
X164689504Y-126252007D01*
X164681446Y-126274529D01*
X164671218Y-126296153D01*
X164658921Y-126316670D01*
X164644671Y-126335883D01*
X164628607Y-126353607D01*
X164610883Y-126369671D01*
X164591670Y-126383921D01*
X164571153Y-126396218D01*
X164549529Y-126406446D01*
X164527007Y-126414504D01*
X164503803Y-126420316D01*
X164480142Y-126423826D01*
X164456250Y-126425000D01*
X163543750Y-126425000D01*
X163519858Y-126423826D01*
X163496197Y-126420316D01*
X163472993Y-126414504D01*
X163450471Y-126406446D01*
X163428847Y-126396218D01*
X163408330Y-126383921D01*
X163389117Y-126369671D01*
X163371393Y-126353607D01*
X163355329Y-126335883D01*
X163341079Y-126316670D01*
X163328782Y-126296153D01*
X163318554Y-126274529D01*
X163310496Y-126252007D01*
X163304684Y-126228803D01*
X163301174Y-126205142D01*
X163300000Y-126181250D01*
X163300000Y-125693750D01*
X163301174Y-125669858D01*
X163304684Y-125646197D01*
X163310496Y-125622993D01*
X163318554Y-125600471D01*
X163328782Y-125578847D01*
X163341079Y-125558330D01*
X163355329Y-125539117D01*
X163371393Y-125521393D01*
X163389117Y-125505329D01*
X163408330Y-125491079D01*
X163428847Y-125478782D01*
X163450471Y-125468554D01*
X163472993Y-125460496D01*
X163496197Y-125454684D01*
X163519858Y-125451174D01*
X163543750Y-125450000D01*
X164456250Y-125450000D01*
X164480142Y-125451174D01*
X164480142Y-125451174D01*
G37*
D14*
X164000000Y-125937500D03*
D12*
G36*
X164480142Y-123576174D02*
G01*
X164503803Y-123579684D01*
X164527007Y-123585496D01*
X164549529Y-123593554D01*
X164571153Y-123603782D01*
X164591670Y-123616079D01*
X164610883Y-123630329D01*
X164628607Y-123646393D01*
X164644671Y-123664117D01*
X164658921Y-123683330D01*
X164671218Y-123703847D01*
X164681446Y-123725471D01*
X164689504Y-123747993D01*
X164695316Y-123771197D01*
X164698826Y-123794858D01*
X164700000Y-123818750D01*
X164700000Y-124306250D01*
X164698826Y-124330142D01*
X164695316Y-124353803D01*
X164689504Y-124377007D01*
X164681446Y-124399529D01*
X164671218Y-124421153D01*
X164658921Y-124441670D01*
X164644671Y-124460883D01*
X164628607Y-124478607D01*
X164610883Y-124494671D01*
X164591670Y-124508921D01*
X164571153Y-124521218D01*
X164549529Y-124531446D01*
X164527007Y-124539504D01*
X164503803Y-124545316D01*
X164480142Y-124548826D01*
X164456250Y-124550000D01*
X163543750Y-124550000D01*
X163519858Y-124548826D01*
X163496197Y-124545316D01*
X163472993Y-124539504D01*
X163450471Y-124531446D01*
X163428847Y-124521218D01*
X163408330Y-124508921D01*
X163389117Y-124494671D01*
X163371393Y-124478607D01*
X163355329Y-124460883D01*
X163341079Y-124441670D01*
X163328782Y-124421153D01*
X163318554Y-124399529D01*
X163310496Y-124377007D01*
X163304684Y-124353803D01*
X163301174Y-124330142D01*
X163300000Y-124306250D01*
X163300000Y-123818750D01*
X163301174Y-123794858D01*
X163304684Y-123771197D01*
X163310496Y-123747993D01*
X163318554Y-123725471D01*
X163328782Y-123703847D01*
X163341079Y-123683330D01*
X163355329Y-123664117D01*
X163371393Y-123646393D01*
X163389117Y-123630329D01*
X163408330Y-123616079D01*
X163428847Y-123603782D01*
X163450471Y-123593554D01*
X163472993Y-123585496D01*
X163496197Y-123579684D01*
X163519858Y-123576174D01*
X163543750Y-123575000D01*
X164456250Y-123575000D01*
X164480142Y-123576174D01*
X164480142Y-123576174D01*
G37*
D14*
X164000000Y-124062500D03*
D12*
G36*
X164380142Y-105551174D02*
G01*
X164403803Y-105554684D01*
X164427007Y-105560496D01*
X164449529Y-105568554D01*
X164471153Y-105578782D01*
X164491670Y-105591079D01*
X164510883Y-105605329D01*
X164528607Y-105621393D01*
X164544671Y-105639117D01*
X164558921Y-105658330D01*
X164571218Y-105678847D01*
X164581446Y-105700471D01*
X164589504Y-105722993D01*
X164595316Y-105746197D01*
X164598826Y-105769858D01*
X164600000Y-105793750D01*
X164600000Y-106281250D01*
X164598826Y-106305142D01*
X164595316Y-106328803D01*
X164589504Y-106352007D01*
X164581446Y-106374529D01*
X164571218Y-106396153D01*
X164558921Y-106416670D01*
X164544671Y-106435883D01*
X164528607Y-106453607D01*
X164510883Y-106469671D01*
X164491670Y-106483921D01*
X164471153Y-106496218D01*
X164449529Y-106506446D01*
X164427007Y-106514504D01*
X164403803Y-106520316D01*
X164380142Y-106523826D01*
X164356250Y-106525000D01*
X163443750Y-106525000D01*
X163419858Y-106523826D01*
X163396197Y-106520316D01*
X163372993Y-106514504D01*
X163350471Y-106506446D01*
X163328847Y-106496218D01*
X163308330Y-106483921D01*
X163289117Y-106469671D01*
X163271393Y-106453607D01*
X163255329Y-106435883D01*
X163241079Y-106416670D01*
X163228782Y-106396153D01*
X163218554Y-106374529D01*
X163210496Y-106352007D01*
X163204684Y-106328803D01*
X163201174Y-106305142D01*
X163200000Y-106281250D01*
X163200000Y-105793750D01*
X163201174Y-105769858D01*
X163204684Y-105746197D01*
X163210496Y-105722993D01*
X163218554Y-105700471D01*
X163228782Y-105678847D01*
X163241079Y-105658330D01*
X163255329Y-105639117D01*
X163271393Y-105621393D01*
X163289117Y-105605329D01*
X163308330Y-105591079D01*
X163328847Y-105578782D01*
X163350471Y-105568554D01*
X163372993Y-105560496D01*
X163396197Y-105554684D01*
X163419858Y-105551174D01*
X163443750Y-105550000D01*
X164356250Y-105550000D01*
X164380142Y-105551174D01*
X164380142Y-105551174D01*
G37*
D14*
X163900000Y-106037500D03*
D12*
G36*
X164380142Y-103676174D02*
G01*
X164403803Y-103679684D01*
X164427007Y-103685496D01*
X164449529Y-103693554D01*
X164471153Y-103703782D01*
X164491670Y-103716079D01*
X164510883Y-103730329D01*
X164528607Y-103746393D01*
X164544671Y-103764117D01*
X164558921Y-103783330D01*
X164571218Y-103803847D01*
X164581446Y-103825471D01*
X164589504Y-103847993D01*
X164595316Y-103871197D01*
X164598826Y-103894858D01*
X164600000Y-103918750D01*
X164600000Y-104406250D01*
X164598826Y-104430142D01*
X164595316Y-104453803D01*
X164589504Y-104477007D01*
X164581446Y-104499529D01*
X164571218Y-104521153D01*
X164558921Y-104541670D01*
X164544671Y-104560883D01*
X164528607Y-104578607D01*
X164510883Y-104594671D01*
X164491670Y-104608921D01*
X164471153Y-104621218D01*
X164449529Y-104631446D01*
X164427007Y-104639504D01*
X164403803Y-104645316D01*
X164380142Y-104648826D01*
X164356250Y-104650000D01*
X163443750Y-104650000D01*
X163419858Y-104648826D01*
X163396197Y-104645316D01*
X163372993Y-104639504D01*
X163350471Y-104631446D01*
X163328847Y-104621218D01*
X163308330Y-104608921D01*
X163289117Y-104594671D01*
X163271393Y-104578607D01*
X163255329Y-104560883D01*
X163241079Y-104541670D01*
X163228782Y-104521153D01*
X163218554Y-104499529D01*
X163210496Y-104477007D01*
X163204684Y-104453803D01*
X163201174Y-104430142D01*
X163200000Y-104406250D01*
X163200000Y-103918750D01*
X163201174Y-103894858D01*
X163204684Y-103871197D01*
X163210496Y-103847993D01*
X163218554Y-103825471D01*
X163228782Y-103803847D01*
X163241079Y-103783330D01*
X163255329Y-103764117D01*
X163271393Y-103746393D01*
X163289117Y-103730329D01*
X163308330Y-103716079D01*
X163328847Y-103703782D01*
X163350471Y-103693554D01*
X163372993Y-103685496D01*
X163396197Y-103679684D01*
X163419858Y-103676174D01*
X163443750Y-103675000D01*
X164356250Y-103675000D01*
X164380142Y-103676174D01*
X164380142Y-103676174D01*
G37*
D14*
X163900000Y-104162500D03*
D12*
G36*
X164230142Y-87101174D02*
G01*
X164253803Y-87104684D01*
X164277007Y-87110496D01*
X164299529Y-87118554D01*
X164321153Y-87128782D01*
X164341670Y-87141079D01*
X164360883Y-87155329D01*
X164378607Y-87171393D01*
X164394671Y-87189117D01*
X164408921Y-87208330D01*
X164421218Y-87228847D01*
X164431446Y-87250471D01*
X164439504Y-87272993D01*
X164445316Y-87296197D01*
X164448826Y-87319858D01*
X164450000Y-87343750D01*
X164450000Y-88256250D01*
X164448826Y-88280142D01*
X164445316Y-88303803D01*
X164439504Y-88327007D01*
X164431446Y-88349529D01*
X164421218Y-88371153D01*
X164408921Y-88391670D01*
X164394671Y-88410883D01*
X164378607Y-88428607D01*
X164360883Y-88444671D01*
X164341670Y-88458921D01*
X164321153Y-88471218D01*
X164299529Y-88481446D01*
X164277007Y-88489504D01*
X164253803Y-88495316D01*
X164230142Y-88498826D01*
X164206250Y-88500000D01*
X163718750Y-88500000D01*
X163694858Y-88498826D01*
X163671197Y-88495316D01*
X163647993Y-88489504D01*
X163625471Y-88481446D01*
X163603847Y-88471218D01*
X163583330Y-88458921D01*
X163564117Y-88444671D01*
X163546393Y-88428607D01*
X163530329Y-88410883D01*
X163516079Y-88391670D01*
X163503782Y-88371153D01*
X163493554Y-88349529D01*
X163485496Y-88327007D01*
X163479684Y-88303803D01*
X163476174Y-88280142D01*
X163475000Y-88256250D01*
X163475000Y-87343750D01*
X163476174Y-87319858D01*
X163479684Y-87296197D01*
X163485496Y-87272993D01*
X163493554Y-87250471D01*
X163503782Y-87228847D01*
X163516079Y-87208330D01*
X163530329Y-87189117D01*
X163546393Y-87171393D01*
X163564117Y-87155329D01*
X163583330Y-87141079D01*
X163603847Y-87128782D01*
X163625471Y-87118554D01*
X163647993Y-87110496D01*
X163671197Y-87104684D01*
X163694858Y-87101174D01*
X163718750Y-87100000D01*
X164206250Y-87100000D01*
X164230142Y-87101174D01*
X164230142Y-87101174D01*
G37*
D14*
X163962500Y-87800000D03*
D12*
G36*
X166105142Y-87101174D02*
G01*
X166128803Y-87104684D01*
X166152007Y-87110496D01*
X166174529Y-87118554D01*
X166196153Y-87128782D01*
X166216670Y-87141079D01*
X166235883Y-87155329D01*
X166253607Y-87171393D01*
X166269671Y-87189117D01*
X166283921Y-87208330D01*
X166296218Y-87228847D01*
X166306446Y-87250471D01*
X166314504Y-87272993D01*
X166320316Y-87296197D01*
X166323826Y-87319858D01*
X166325000Y-87343750D01*
X166325000Y-88256250D01*
X166323826Y-88280142D01*
X166320316Y-88303803D01*
X166314504Y-88327007D01*
X166306446Y-88349529D01*
X166296218Y-88371153D01*
X166283921Y-88391670D01*
X166269671Y-88410883D01*
X166253607Y-88428607D01*
X166235883Y-88444671D01*
X166216670Y-88458921D01*
X166196153Y-88471218D01*
X166174529Y-88481446D01*
X166152007Y-88489504D01*
X166128803Y-88495316D01*
X166105142Y-88498826D01*
X166081250Y-88500000D01*
X165593750Y-88500000D01*
X165569858Y-88498826D01*
X165546197Y-88495316D01*
X165522993Y-88489504D01*
X165500471Y-88481446D01*
X165478847Y-88471218D01*
X165458330Y-88458921D01*
X165439117Y-88444671D01*
X165421393Y-88428607D01*
X165405329Y-88410883D01*
X165391079Y-88391670D01*
X165378782Y-88371153D01*
X165368554Y-88349529D01*
X165360496Y-88327007D01*
X165354684Y-88303803D01*
X165351174Y-88280142D01*
X165350000Y-88256250D01*
X165350000Y-87343750D01*
X165351174Y-87319858D01*
X165354684Y-87296197D01*
X165360496Y-87272993D01*
X165368554Y-87250471D01*
X165378782Y-87228847D01*
X165391079Y-87208330D01*
X165405329Y-87189117D01*
X165421393Y-87171393D01*
X165439117Y-87155329D01*
X165458330Y-87141079D01*
X165478847Y-87128782D01*
X165500471Y-87118554D01*
X165522993Y-87110496D01*
X165546197Y-87104684D01*
X165569858Y-87101174D01*
X165593750Y-87100000D01*
X166081250Y-87100000D01*
X166105142Y-87101174D01*
X166105142Y-87101174D01*
G37*
D14*
X165837500Y-87800000D03*
D12*
G36*
X140380142Y-120451174D02*
G01*
X140403803Y-120454684D01*
X140427007Y-120460496D01*
X140449529Y-120468554D01*
X140471153Y-120478782D01*
X140491670Y-120491079D01*
X140510883Y-120505329D01*
X140528607Y-120521393D01*
X140544671Y-120539117D01*
X140558921Y-120558330D01*
X140571218Y-120578847D01*
X140581446Y-120600471D01*
X140589504Y-120622993D01*
X140595316Y-120646197D01*
X140598826Y-120669858D01*
X140600000Y-120693750D01*
X140600000Y-121181250D01*
X140598826Y-121205142D01*
X140595316Y-121228803D01*
X140589504Y-121252007D01*
X140581446Y-121274529D01*
X140571218Y-121296153D01*
X140558921Y-121316670D01*
X140544671Y-121335883D01*
X140528607Y-121353607D01*
X140510883Y-121369671D01*
X140491670Y-121383921D01*
X140471153Y-121396218D01*
X140449529Y-121406446D01*
X140427007Y-121414504D01*
X140403803Y-121420316D01*
X140380142Y-121423826D01*
X140356250Y-121425000D01*
X139443750Y-121425000D01*
X139419858Y-121423826D01*
X139396197Y-121420316D01*
X139372993Y-121414504D01*
X139350471Y-121406446D01*
X139328847Y-121396218D01*
X139308330Y-121383921D01*
X139289117Y-121369671D01*
X139271393Y-121353607D01*
X139255329Y-121335883D01*
X139241079Y-121316670D01*
X139228782Y-121296153D01*
X139218554Y-121274529D01*
X139210496Y-121252007D01*
X139204684Y-121228803D01*
X139201174Y-121205142D01*
X139200000Y-121181250D01*
X139200000Y-120693750D01*
X139201174Y-120669858D01*
X139204684Y-120646197D01*
X139210496Y-120622993D01*
X139218554Y-120600471D01*
X139228782Y-120578847D01*
X139241079Y-120558330D01*
X139255329Y-120539117D01*
X139271393Y-120521393D01*
X139289117Y-120505329D01*
X139308330Y-120491079D01*
X139328847Y-120478782D01*
X139350471Y-120468554D01*
X139372993Y-120460496D01*
X139396197Y-120454684D01*
X139419858Y-120451174D01*
X139443750Y-120450000D01*
X140356250Y-120450000D01*
X140380142Y-120451174D01*
X140380142Y-120451174D01*
G37*
D14*
X139900000Y-120937500D03*
D12*
G36*
X140380142Y-118576174D02*
G01*
X140403803Y-118579684D01*
X140427007Y-118585496D01*
X140449529Y-118593554D01*
X140471153Y-118603782D01*
X140491670Y-118616079D01*
X140510883Y-118630329D01*
X140528607Y-118646393D01*
X140544671Y-118664117D01*
X140558921Y-118683330D01*
X140571218Y-118703847D01*
X140581446Y-118725471D01*
X140589504Y-118747993D01*
X140595316Y-118771197D01*
X140598826Y-118794858D01*
X140600000Y-118818750D01*
X140600000Y-119306250D01*
X140598826Y-119330142D01*
X140595316Y-119353803D01*
X140589504Y-119377007D01*
X140581446Y-119399529D01*
X140571218Y-119421153D01*
X140558921Y-119441670D01*
X140544671Y-119460883D01*
X140528607Y-119478607D01*
X140510883Y-119494671D01*
X140491670Y-119508921D01*
X140471153Y-119521218D01*
X140449529Y-119531446D01*
X140427007Y-119539504D01*
X140403803Y-119545316D01*
X140380142Y-119548826D01*
X140356250Y-119550000D01*
X139443750Y-119550000D01*
X139419858Y-119548826D01*
X139396197Y-119545316D01*
X139372993Y-119539504D01*
X139350471Y-119531446D01*
X139328847Y-119521218D01*
X139308330Y-119508921D01*
X139289117Y-119494671D01*
X139271393Y-119478607D01*
X139255329Y-119460883D01*
X139241079Y-119441670D01*
X139228782Y-119421153D01*
X139218554Y-119399529D01*
X139210496Y-119377007D01*
X139204684Y-119353803D01*
X139201174Y-119330142D01*
X139200000Y-119306250D01*
X139200000Y-118818750D01*
X139201174Y-118794858D01*
X139204684Y-118771197D01*
X139210496Y-118747993D01*
X139218554Y-118725471D01*
X139228782Y-118703847D01*
X139241079Y-118683330D01*
X139255329Y-118664117D01*
X139271393Y-118646393D01*
X139289117Y-118630329D01*
X139308330Y-118616079D01*
X139328847Y-118603782D01*
X139350471Y-118593554D01*
X139372993Y-118585496D01*
X139396197Y-118579684D01*
X139419858Y-118576174D01*
X139443750Y-118575000D01*
X140356250Y-118575000D01*
X140380142Y-118576174D01*
X140380142Y-118576174D01*
G37*
D14*
X139900000Y-119062500D03*
D12*
G36*
X174380142Y-115451174D02*
G01*
X174403803Y-115454684D01*
X174427007Y-115460496D01*
X174449529Y-115468554D01*
X174471153Y-115478782D01*
X174491670Y-115491079D01*
X174510883Y-115505329D01*
X174528607Y-115521393D01*
X174544671Y-115539117D01*
X174558921Y-115558330D01*
X174571218Y-115578847D01*
X174581446Y-115600471D01*
X174589504Y-115622993D01*
X174595316Y-115646197D01*
X174598826Y-115669858D01*
X174600000Y-115693750D01*
X174600000Y-116181250D01*
X174598826Y-116205142D01*
X174595316Y-116228803D01*
X174589504Y-116252007D01*
X174581446Y-116274529D01*
X174571218Y-116296153D01*
X174558921Y-116316670D01*
X174544671Y-116335883D01*
X174528607Y-116353607D01*
X174510883Y-116369671D01*
X174491670Y-116383921D01*
X174471153Y-116396218D01*
X174449529Y-116406446D01*
X174427007Y-116414504D01*
X174403803Y-116420316D01*
X174380142Y-116423826D01*
X174356250Y-116425000D01*
X173443750Y-116425000D01*
X173419858Y-116423826D01*
X173396197Y-116420316D01*
X173372993Y-116414504D01*
X173350471Y-116406446D01*
X173328847Y-116396218D01*
X173308330Y-116383921D01*
X173289117Y-116369671D01*
X173271393Y-116353607D01*
X173255329Y-116335883D01*
X173241079Y-116316670D01*
X173228782Y-116296153D01*
X173218554Y-116274529D01*
X173210496Y-116252007D01*
X173204684Y-116228803D01*
X173201174Y-116205142D01*
X173200000Y-116181250D01*
X173200000Y-115693750D01*
X173201174Y-115669858D01*
X173204684Y-115646197D01*
X173210496Y-115622993D01*
X173218554Y-115600471D01*
X173228782Y-115578847D01*
X173241079Y-115558330D01*
X173255329Y-115539117D01*
X173271393Y-115521393D01*
X173289117Y-115505329D01*
X173308330Y-115491079D01*
X173328847Y-115478782D01*
X173350471Y-115468554D01*
X173372993Y-115460496D01*
X173396197Y-115454684D01*
X173419858Y-115451174D01*
X173443750Y-115450000D01*
X174356250Y-115450000D01*
X174380142Y-115451174D01*
X174380142Y-115451174D01*
G37*
D14*
X173900000Y-115937500D03*
D12*
G36*
X174380142Y-113576174D02*
G01*
X174403803Y-113579684D01*
X174427007Y-113585496D01*
X174449529Y-113593554D01*
X174471153Y-113603782D01*
X174491670Y-113616079D01*
X174510883Y-113630329D01*
X174528607Y-113646393D01*
X174544671Y-113664117D01*
X174558921Y-113683330D01*
X174571218Y-113703847D01*
X174581446Y-113725471D01*
X174589504Y-113747993D01*
X174595316Y-113771197D01*
X174598826Y-113794858D01*
X174600000Y-113818750D01*
X174600000Y-114306250D01*
X174598826Y-114330142D01*
X174595316Y-114353803D01*
X174589504Y-114377007D01*
X174581446Y-114399529D01*
X174571218Y-114421153D01*
X174558921Y-114441670D01*
X174544671Y-114460883D01*
X174528607Y-114478607D01*
X174510883Y-114494671D01*
X174491670Y-114508921D01*
X174471153Y-114521218D01*
X174449529Y-114531446D01*
X174427007Y-114539504D01*
X174403803Y-114545316D01*
X174380142Y-114548826D01*
X174356250Y-114550000D01*
X173443750Y-114550000D01*
X173419858Y-114548826D01*
X173396197Y-114545316D01*
X173372993Y-114539504D01*
X173350471Y-114531446D01*
X173328847Y-114521218D01*
X173308330Y-114508921D01*
X173289117Y-114494671D01*
X173271393Y-114478607D01*
X173255329Y-114460883D01*
X173241079Y-114441670D01*
X173228782Y-114421153D01*
X173218554Y-114399529D01*
X173210496Y-114377007D01*
X173204684Y-114353803D01*
X173201174Y-114330142D01*
X173200000Y-114306250D01*
X173200000Y-113818750D01*
X173201174Y-113794858D01*
X173204684Y-113771197D01*
X173210496Y-113747993D01*
X173218554Y-113725471D01*
X173228782Y-113703847D01*
X173241079Y-113683330D01*
X173255329Y-113664117D01*
X173271393Y-113646393D01*
X173289117Y-113630329D01*
X173308330Y-113616079D01*
X173328847Y-113603782D01*
X173350471Y-113593554D01*
X173372993Y-113585496D01*
X173396197Y-113579684D01*
X173419858Y-113576174D01*
X173443750Y-113575000D01*
X174356250Y-113575000D01*
X174380142Y-113576174D01*
X174380142Y-113576174D01*
G37*
D14*
X173900000Y-114062500D03*
D12*
G36*
X134130142Y-95201174D02*
G01*
X134153803Y-95204684D01*
X134177007Y-95210496D01*
X134199529Y-95218554D01*
X134221153Y-95228782D01*
X134241670Y-95241079D01*
X134260883Y-95255329D01*
X134278607Y-95271393D01*
X134294671Y-95289117D01*
X134308921Y-95308330D01*
X134321218Y-95328847D01*
X134331446Y-95350471D01*
X134339504Y-95372993D01*
X134345316Y-95396197D01*
X134348826Y-95419858D01*
X134350000Y-95443750D01*
X134350000Y-96356250D01*
X134348826Y-96380142D01*
X134345316Y-96403803D01*
X134339504Y-96427007D01*
X134331446Y-96449529D01*
X134321218Y-96471153D01*
X134308921Y-96491670D01*
X134294671Y-96510883D01*
X134278607Y-96528607D01*
X134260883Y-96544671D01*
X134241670Y-96558921D01*
X134221153Y-96571218D01*
X134199529Y-96581446D01*
X134177007Y-96589504D01*
X134153803Y-96595316D01*
X134130142Y-96598826D01*
X134106250Y-96600000D01*
X133618750Y-96600000D01*
X133594858Y-96598826D01*
X133571197Y-96595316D01*
X133547993Y-96589504D01*
X133525471Y-96581446D01*
X133503847Y-96571218D01*
X133483330Y-96558921D01*
X133464117Y-96544671D01*
X133446393Y-96528607D01*
X133430329Y-96510883D01*
X133416079Y-96491670D01*
X133403782Y-96471153D01*
X133393554Y-96449529D01*
X133385496Y-96427007D01*
X133379684Y-96403803D01*
X133376174Y-96380142D01*
X133375000Y-96356250D01*
X133375000Y-95443750D01*
X133376174Y-95419858D01*
X133379684Y-95396197D01*
X133385496Y-95372993D01*
X133393554Y-95350471D01*
X133403782Y-95328847D01*
X133416079Y-95308330D01*
X133430329Y-95289117D01*
X133446393Y-95271393D01*
X133464117Y-95255329D01*
X133483330Y-95241079D01*
X133503847Y-95228782D01*
X133525471Y-95218554D01*
X133547993Y-95210496D01*
X133571197Y-95204684D01*
X133594858Y-95201174D01*
X133618750Y-95200000D01*
X134106250Y-95200000D01*
X134130142Y-95201174D01*
X134130142Y-95201174D01*
G37*
D14*
X133862500Y-95900000D03*
D12*
G36*
X136005142Y-95201174D02*
G01*
X136028803Y-95204684D01*
X136052007Y-95210496D01*
X136074529Y-95218554D01*
X136096153Y-95228782D01*
X136116670Y-95241079D01*
X136135883Y-95255329D01*
X136153607Y-95271393D01*
X136169671Y-95289117D01*
X136183921Y-95308330D01*
X136196218Y-95328847D01*
X136206446Y-95350471D01*
X136214504Y-95372993D01*
X136220316Y-95396197D01*
X136223826Y-95419858D01*
X136225000Y-95443750D01*
X136225000Y-96356250D01*
X136223826Y-96380142D01*
X136220316Y-96403803D01*
X136214504Y-96427007D01*
X136206446Y-96449529D01*
X136196218Y-96471153D01*
X136183921Y-96491670D01*
X136169671Y-96510883D01*
X136153607Y-96528607D01*
X136135883Y-96544671D01*
X136116670Y-96558921D01*
X136096153Y-96571218D01*
X136074529Y-96581446D01*
X136052007Y-96589504D01*
X136028803Y-96595316D01*
X136005142Y-96598826D01*
X135981250Y-96600000D01*
X135493750Y-96600000D01*
X135469858Y-96598826D01*
X135446197Y-96595316D01*
X135422993Y-96589504D01*
X135400471Y-96581446D01*
X135378847Y-96571218D01*
X135358330Y-96558921D01*
X135339117Y-96544671D01*
X135321393Y-96528607D01*
X135305329Y-96510883D01*
X135291079Y-96491670D01*
X135278782Y-96471153D01*
X135268554Y-96449529D01*
X135260496Y-96427007D01*
X135254684Y-96403803D01*
X135251174Y-96380142D01*
X135250000Y-96356250D01*
X135250000Y-95443750D01*
X135251174Y-95419858D01*
X135254684Y-95396197D01*
X135260496Y-95372993D01*
X135268554Y-95350471D01*
X135278782Y-95328847D01*
X135291079Y-95308330D01*
X135305329Y-95289117D01*
X135321393Y-95271393D01*
X135339117Y-95255329D01*
X135358330Y-95241079D01*
X135378847Y-95228782D01*
X135400471Y-95218554D01*
X135422993Y-95210496D01*
X135446197Y-95204684D01*
X135469858Y-95201174D01*
X135493750Y-95200000D01*
X135981250Y-95200000D01*
X136005142Y-95201174D01*
X136005142Y-95201174D01*
G37*
D14*
X135737500Y-95900000D03*
D15*
X104800000Y-85550000D03*
X104800000Y-82250000D03*
D16*
X149850000Y-63500000D03*
X153150000Y-63500000D03*
D17*
X112900000Y-95100000D03*
D18*
X113650000Y-93900000D03*
X112150000Y-93900000D03*
D19*
X155200000Y-80784000D03*
X154311000Y-82816000D03*
X156089000Y-82816000D03*
D20*
X166100000Y-83550000D03*
X166100000Y-85450000D03*
X163900000Y-85450000D03*
X163900000Y-84500000D03*
X163900000Y-83550000D03*
D12*
G36*
X170180142Y-89376174D02*
G01*
X170203803Y-89379684D01*
X170227007Y-89385496D01*
X170249529Y-89393554D01*
X170271153Y-89403782D01*
X170291670Y-89416079D01*
X170310883Y-89430329D01*
X170328607Y-89446393D01*
X170344671Y-89464117D01*
X170358921Y-89483330D01*
X170371218Y-89503847D01*
X170381446Y-89525471D01*
X170389504Y-89547993D01*
X170395316Y-89571197D01*
X170398826Y-89594858D01*
X170400000Y-89618750D01*
X170400000Y-90106250D01*
X170398826Y-90130142D01*
X170395316Y-90153803D01*
X170389504Y-90177007D01*
X170381446Y-90199529D01*
X170371218Y-90221153D01*
X170358921Y-90241670D01*
X170344671Y-90260883D01*
X170328607Y-90278607D01*
X170310883Y-90294671D01*
X170291670Y-90308921D01*
X170271153Y-90321218D01*
X170249529Y-90331446D01*
X170227007Y-90339504D01*
X170203803Y-90345316D01*
X170180142Y-90348826D01*
X170156250Y-90350000D01*
X169243750Y-90350000D01*
X169219858Y-90348826D01*
X169196197Y-90345316D01*
X169172993Y-90339504D01*
X169150471Y-90331446D01*
X169128847Y-90321218D01*
X169108330Y-90308921D01*
X169089117Y-90294671D01*
X169071393Y-90278607D01*
X169055329Y-90260883D01*
X169041079Y-90241670D01*
X169028782Y-90221153D01*
X169018554Y-90199529D01*
X169010496Y-90177007D01*
X169004684Y-90153803D01*
X169001174Y-90130142D01*
X169000000Y-90106250D01*
X169000000Y-89618750D01*
X169001174Y-89594858D01*
X169004684Y-89571197D01*
X169010496Y-89547993D01*
X169018554Y-89525471D01*
X169028782Y-89503847D01*
X169041079Y-89483330D01*
X169055329Y-89464117D01*
X169071393Y-89446393D01*
X169089117Y-89430329D01*
X169108330Y-89416079D01*
X169128847Y-89403782D01*
X169150471Y-89393554D01*
X169172993Y-89385496D01*
X169196197Y-89379684D01*
X169219858Y-89376174D01*
X169243750Y-89375000D01*
X170156250Y-89375000D01*
X170180142Y-89376174D01*
X170180142Y-89376174D01*
G37*
D14*
X169700000Y-89862500D03*
D12*
G36*
X170180142Y-91251174D02*
G01*
X170203803Y-91254684D01*
X170227007Y-91260496D01*
X170249529Y-91268554D01*
X170271153Y-91278782D01*
X170291670Y-91291079D01*
X170310883Y-91305329D01*
X170328607Y-91321393D01*
X170344671Y-91339117D01*
X170358921Y-91358330D01*
X170371218Y-91378847D01*
X170381446Y-91400471D01*
X170389504Y-91422993D01*
X170395316Y-91446197D01*
X170398826Y-91469858D01*
X170400000Y-91493750D01*
X170400000Y-91981250D01*
X170398826Y-92005142D01*
X170395316Y-92028803D01*
X170389504Y-92052007D01*
X170381446Y-92074529D01*
X170371218Y-92096153D01*
X170358921Y-92116670D01*
X170344671Y-92135883D01*
X170328607Y-92153607D01*
X170310883Y-92169671D01*
X170291670Y-92183921D01*
X170271153Y-92196218D01*
X170249529Y-92206446D01*
X170227007Y-92214504D01*
X170203803Y-92220316D01*
X170180142Y-92223826D01*
X170156250Y-92225000D01*
X169243750Y-92225000D01*
X169219858Y-92223826D01*
X169196197Y-92220316D01*
X169172993Y-92214504D01*
X169150471Y-92206446D01*
X169128847Y-92196218D01*
X169108330Y-92183921D01*
X169089117Y-92169671D01*
X169071393Y-92153607D01*
X169055329Y-92135883D01*
X169041079Y-92116670D01*
X169028782Y-92096153D01*
X169018554Y-92074529D01*
X169010496Y-92052007D01*
X169004684Y-92028803D01*
X169001174Y-92005142D01*
X169000000Y-91981250D01*
X169000000Y-91493750D01*
X169001174Y-91469858D01*
X169004684Y-91446197D01*
X169010496Y-91422993D01*
X169018554Y-91400471D01*
X169028782Y-91378847D01*
X169041079Y-91358330D01*
X169055329Y-91339117D01*
X169071393Y-91321393D01*
X169089117Y-91305329D01*
X169108330Y-91291079D01*
X169128847Y-91278782D01*
X169150471Y-91268554D01*
X169172993Y-91260496D01*
X169196197Y-91254684D01*
X169219858Y-91251174D01*
X169243750Y-91250000D01*
X170156250Y-91250000D01*
X170180142Y-91251174D01*
X170180142Y-91251174D01*
G37*
D14*
X169700000Y-91737500D03*
D12*
G36*
X149930142Y-84601174D02*
G01*
X149953803Y-84604684D01*
X149977007Y-84610496D01*
X149999529Y-84618554D01*
X150021153Y-84628782D01*
X150041670Y-84641079D01*
X150060883Y-84655329D01*
X150078607Y-84671393D01*
X150094671Y-84689117D01*
X150108921Y-84708330D01*
X150121218Y-84728847D01*
X150131446Y-84750471D01*
X150139504Y-84772993D01*
X150145316Y-84796197D01*
X150148826Y-84819858D01*
X150150000Y-84843750D01*
X150150000Y-85756250D01*
X150148826Y-85780142D01*
X150145316Y-85803803D01*
X150139504Y-85827007D01*
X150131446Y-85849529D01*
X150121218Y-85871153D01*
X150108921Y-85891670D01*
X150094671Y-85910883D01*
X150078607Y-85928607D01*
X150060883Y-85944671D01*
X150041670Y-85958921D01*
X150021153Y-85971218D01*
X149999529Y-85981446D01*
X149977007Y-85989504D01*
X149953803Y-85995316D01*
X149930142Y-85998826D01*
X149906250Y-86000000D01*
X149418750Y-86000000D01*
X149394858Y-85998826D01*
X149371197Y-85995316D01*
X149347993Y-85989504D01*
X149325471Y-85981446D01*
X149303847Y-85971218D01*
X149283330Y-85958921D01*
X149264117Y-85944671D01*
X149246393Y-85928607D01*
X149230329Y-85910883D01*
X149216079Y-85891670D01*
X149203782Y-85871153D01*
X149193554Y-85849529D01*
X149185496Y-85827007D01*
X149179684Y-85803803D01*
X149176174Y-85780142D01*
X149175000Y-85756250D01*
X149175000Y-84843750D01*
X149176174Y-84819858D01*
X149179684Y-84796197D01*
X149185496Y-84772993D01*
X149193554Y-84750471D01*
X149203782Y-84728847D01*
X149216079Y-84708330D01*
X149230329Y-84689117D01*
X149246393Y-84671393D01*
X149264117Y-84655329D01*
X149283330Y-84641079D01*
X149303847Y-84628782D01*
X149325471Y-84618554D01*
X149347993Y-84610496D01*
X149371197Y-84604684D01*
X149394858Y-84601174D01*
X149418750Y-84600000D01*
X149906250Y-84600000D01*
X149930142Y-84601174D01*
X149930142Y-84601174D01*
G37*
D14*
X149662500Y-85300000D03*
D12*
G36*
X151805142Y-84601174D02*
G01*
X151828803Y-84604684D01*
X151852007Y-84610496D01*
X151874529Y-84618554D01*
X151896153Y-84628782D01*
X151916670Y-84641079D01*
X151935883Y-84655329D01*
X151953607Y-84671393D01*
X151969671Y-84689117D01*
X151983921Y-84708330D01*
X151996218Y-84728847D01*
X152006446Y-84750471D01*
X152014504Y-84772993D01*
X152020316Y-84796197D01*
X152023826Y-84819858D01*
X152025000Y-84843750D01*
X152025000Y-85756250D01*
X152023826Y-85780142D01*
X152020316Y-85803803D01*
X152014504Y-85827007D01*
X152006446Y-85849529D01*
X151996218Y-85871153D01*
X151983921Y-85891670D01*
X151969671Y-85910883D01*
X151953607Y-85928607D01*
X151935883Y-85944671D01*
X151916670Y-85958921D01*
X151896153Y-85971218D01*
X151874529Y-85981446D01*
X151852007Y-85989504D01*
X151828803Y-85995316D01*
X151805142Y-85998826D01*
X151781250Y-86000000D01*
X151293750Y-86000000D01*
X151269858Y-85998826D01*
X151246197Y-85995316D01*
X151222993Y-85989504D01*
X151200471Y-85981446D01*
X151178847Y-85971218D01*
X151158330Y-85958921D01*
X151139117Y-85944671D01*
X151121393Y-85928607D01*
X151105329Y-85910883D01*
X151091079Y-85891670D01*
X151078782Y-85871153D01*
X151068554Y-85849529D01*
X151060496Y-85827007D01*
X151054684Y-85803803D01*
X151051174Y-85780142D01*
X151050000Y-85756250D01*
X151050000Y-84843750D01*
X151051174Y-84819858D01*
X151054684Y-84796197D01*
X151060496Y-84772993D01*
X151068554Y-84750471D01*
X151078782Y-84728847D01*
X151091079Y-84708330D01*
X151105329Y-84689117D01*
X151121393Y-84671393D01*
X151139117Y-84655329D01*
X151158330Y-84641079D01*
X151178847Y-84628782D01*
X151200471Y-84618554D01*
X151222993Y-84610496D01*
X151246197Y-84604684D01*
X151269858Y-84601174D01*
X151293750Y-84600000D01*
X151781250Y-84600000D01*
X151805142Y-84601174D01*
X151805142Y-84601174D01*
G37*
D14*
X151537500Y-85300000D03*
D12*
G36*
X164380142Y-96151174D02*
G01*
X164403803Y-96154684D01*
X164427007Y-96160496D01*
X164449529Y-96168554D01*
X164471153Y-96178782D01*
X164491670Y-96191079D01*
X164510883Y-96205329D01*
X164528607Y-96221393D01*
X164544671Y-96239117D01*
X164558921Y-96258330D01*
X164571218Y-96278847D01*
X164581446Y-96300471D01*
X164589504Y-96322993D01*
X164595316Y-96346197D01*
X164598826Y-96369858D01*
X164600000Y-96393750D01*
X164600000Y-96881250D01*
X164598826Y-96905142D01*
X164595316Y-96928803D01*
X164589504Y-96952007D01*
X164581446Y-96974529D01*
X164571218Y-96996153D01*
X164558921Y-97016670D01*
X164544671Y-97035883D01*
X164528607Y-97053607D01*
X164510883Y-97069671D01*
X164491670Y-97083921D01*
X164471153Y-97096218D01*
X164449529Y-97106446D01*
X164427007Y-97114504D01*
X164403803Y-97120316D01*
X164380142Y-97123826D01*
X164356250Y-97125000D01*
X163443750Y-97125000D01*
X163419858Y-97123826D01*
X163396197Y-97120316D01*
X163372993Y-97114504D01*
X163350471Y-97106446D01*
X163328847Y-97096218D01*
X163308330Y-97083921D01*
X163289117Y-97069671D01*
X163271393Y-97053607D01*
X163255329Y-97035883D01*
X163241079Y-97016670D01*
X163228782Y-96996153D01*
X163218554Y-96974529D01*
X163210496Y-96952007D01*
X163204684Y-96928803D01*
X163201174Y-96905142D01*
X163200000Y-96881250D01*
X163200000Y-96393750D01*
X163201174Y-96369858D01*
X163204684Y-96346197D01*
X163210496Y-96322993D01*
X163218554Y-96300471D01*
X163228782Y-96278847D01*
X163241079Y-96258330D01*
X163255329Y-96239117D01*
X163271393Y-96221393D01*
X163289117Y-96205329D01*
X163308330Y-96191079D01*
X163328847Y-96178782D01*
X163350471Y-96168554D01*
X163372993Y-96160496D01*
X163396197Y-96154684D01*
X163419858Y-96151174D01*
X163443750Y-96150000D01*
X164356250Y-96150000D01*
X164380142Y-96151174D01*
X164380142Y-96151174D01*
G37*
D14*
X163900000Y-96637500D03*
D12*
G36*
X164380142Y-94276174D02*
G01*
X164403803Y-94279684D01*
X164427007Y-94285496D01*
X164449529Y-94293554D01*
X164471153Y-94303782D01*
X164491670Y-94316079D01*
X164510883Y-94330329D01*
X164528607Y-94346393D01*
X164544671Y-94364117D01*
X164558921Y-94383330D01*
X164571218Y-94403847D01*
X164581446Y-94425471D01*
X164589504Y-94447993D01*
X164595316Y-94471197D01*
X164598826Y-94494858D01*
X164600000Y-94518750D01*
X164600000Y-95006250D01*
X164598826Y-95030142D01*
X164595316Y-95053803D01*
X164589504Y-95077007D01*
X164581446Y-95099529D01*
X164571218Y-95121153D01*
X164558921Y-95141670D01*
X164544671Y-95160883D01*
X164528607Y-95178607D01*
X164510883Y-95194671D01*
X164491670Y-95208921D01*
X164471153Y-95221218D01*
X164449529Y-95231446D01*
X164427007Y-95239504D01*
X164403803Y-95245316D01*
X164380142Y-95248826D01*
X164356250Y-95250000D01*
X163443750Y-95250000D01*
X163419858Y-95248826D01*
X163396197Y-95245316D01*
X163372993Y-95239504D01*
X163350471Y-95231446D01*
X163328847Y-95221218D01*
X163308330Y-95208921D01*
X163289117Y-95194671D01*
X163271393Y-95178607D01*
X163255329Y-95160883D01*
X163241079Y-95141670D01*
X163228782Y-95121153D01*
X163218554Y-95099529D01*
X163210496Y-95077007D01*
X163204684Y-95053803D01*
X163201174Y-95030142D01*
X163200000Y-95006250D01*
X163200000Y-94518750D01*
X163201174Y-94494858D01*
X163204684Y-94471197D01*
X163210496Y-94447993D01*
X163218554Y-94425471D01*
X163228782Y-94403847D01*
X163241079Y-94383330D01*
X163255329Y-94364117D01*
X163271393Y-94346393D01*
X163289117Y-94330329D01*
X163308330Y-94316079D01*
X163328847Y-94303782D01*
X163350471Y-94293554D01*
X163372993Y-94285496D01*
X163396197Y-94279684D01*
X163419858Y-94276174D01*
X163443750Y-94275000D01*
X164356250Y-94275000D01*
X164380142Y-94276174D01*
X164380142Y-94276174D01*
G37*
D14*
X163900000Y-94762500D03*
D12*
G36*
X164380142Y-89376174D02*
G01*
X164403803Y-89379684D01*
X164427007Y-89385496D01*
X164449529Y-89393554D01*
X164471153Y-89403782D01*
X164491670Y-89416079D01*
X164510883Y-89430329D01*
X164528607Y-89446393D01*
X164544671Y-89464117D01*
X164558921Y-89483330D01*
X164571218Y-89503847D01*
X164581446Y-89525471D01*
X164589504Y-89547993D01*
X164595316Y-89571197D01*
X164598826Y-89594858D01*
X164600000Y-89618750D01*
X164600000Y-90106250D01*
X164598826Y-90130142D01*
X164595316Y-90153803D01*
X164589504Y-90177007D01*
X164581446Y-90199529D01*
X164571218Y-90221153D01*
X164558921Y-90241670D01*
X164544671Y-90260883D01*
X164528607Y-90278607D01*
X164510883Y-90294671D01*
X164491670Y-90308921D01*
X164471153Y-90321218D01*
X164449529Y-90331446D01*
X164427007Y-90339504D01*
X164403803Y-90345316D01*
X164380142Y-90348826D01*
X164356250Y-90350000D01*
X163443750Y-90350000D01*
X163419858Y-90348826D01*
X163396197Y-90345316D01*
X163372993Y-90339504D01*
X163350471Y-90331446D01*
X163328847Y-90321218D01*
X163308330Y-90308921D01*
X163289117Y-90294671D01*
X163271393Y-90278607D01*
X163255329Y-90260883D01*
X163241079Y-90241670D01*
X163228782Y-90221153D01*
X163218554Y-90199529D01*
X163210496Y-90177007D01*
X163204684Y-90153803D01*
X163201174Y-90130142D01*
X163200000Y-90106250D01*
X163200000Y-89618750D01*
X163201174Y-89594858D01*
X163204684Y-89571197D01*
X163210496Y-89547993D01*
X163218554Y-89525471D01*
X163228782Y-89503847D01*
X163241079Y-89483330D01*
X163255329Y-89464117D01*
X163271393Y-89446393D01*
X163289117Y-89430329D01*
X163308330Y-89416079D01*
X163328847Y-89403782D01*
X163350471Y-89393554D01*
X163372993Y-89385496D01*
X163396197Y-89379684D01*
X163419858Y-89376174D01*
X163443750Y-89375000D01*
X164356250Y-89375000D01*
X164380142Y-89376174D01*
X164380142Y-89376174D01*
G37*
D14*
X163900000Y-89862500D03*
D12*
G36*
X164380142Y-91251174D02*
G01*
X164403803Y-91254684D01*
X164427007Y-91260496D01*
X164449529Y-91268554D01*
X164471153Y-91278782D01*
X164491670Y-91291079D01*
X164510883Y-91305329D01*
X164528607Y-91321393D01*
X164544671Y-91339117D01*
X164558921Y-91358330D01*
X164571218Y-91378847D01*
X164581446Y-91400471D01*
X164589504Y-91422993D01*
X164595316Y-91446197D01*
X164598826Y-91469858D01*
X164600000Y-91493750D01*
X164600000Y-91981250D01*
X164598826Y-92005142D01*
X164595316Y-92028803D01*
X164589504Y-92052007D01*
X164581446Y-92074529D01*
X164571218Y-92096153D01*
X164558921Y-92116670D01*
X164544671Y-92135883D01*
X164528607Y-92153607D01*
X164510883Y-92169671D01*
X164491670Y-92183921D01*
X164471153Y-92196218D01*
X164449529Y-92206446D01*
X164427007Y-92214504D01*
X164403803Y-92220316D01*
X164380142Y-92223826D01*
X164356250Y-92225000D01*
X163443750Y-92225000D01*
X163419858Y-92223826D01*
X163396197Y-92220316D01*
X163372993Y-92214504D01*
X163350471Y-92206446D01*
X163328847Y-92196218D01*
X163308330Y-92183921D01*
X163289117Y-92169671D01*
X163271393Y-92153607D01*
X163255329Y-92135883D01*
X163241079Y-92116670D01*
X163228782Y-92096153D01*
X163218554Y-92074529D01*
X163210496Y-92052007D01*
X163204684Y-92028803D01*
X163201174Y-92005142D01*
X163200000Y-91981250D01*
X163200000Y-91493750D01*
X163201174Y-91469858D01*
X163204684Y-91446197D01*
X163210496Y-91422993D01*
X163218554Y-91400471D01*
X163228782Y-91378847D01*
X163241079Y-91358330D01*
X163255329Y-91339117D01*
X163271393Y-91321393D01*
X163289117Y-91305329D01*
X163308330Y-91291079D01*
X163328847Y-91278782D01*
X163350471Y-91268554D01*
X163372993Y-91260496D01*
X163396197Y-91254684D01*
X163419858Y-91251174D01*
X163443750Y-91250000D01*
X164356250Y-91250000D01*
X164380142Y-91251174D01*
X164380142Y-91251174D01*
G37*
D14*
X163900000Y-91737500D03*
D12*
G36*
X109880142Y-85001174D02*
G01*
X109903803Y-85004684D01*
X109927007Y-85010496D01*
X109949529Y-85018554D01*
X109971153Y-85028782D01*
X109991670Y-85041079D01*
X110010883Y-85055329D01*
X110028607Y-85071393D01*
X110044671Y-85089117D01*
X110058921Y-85108330D01*
X110071218Y-85128847D01*
X110081446Y-85150471D01*
X110089504Y-85172993D01*
X110095316Y-85196197D01*
X110098826Y-85219858D01*
X110100000Y-85243750D01*
X110100000Y-85731250D01*
X110098826Y-85755142D01*
X110095316Y-85778803D01*
X110089504Y-85802007D01*
X110081446Y-85824529D01*
X110071218Y-85846153D01*
X110058921Y-85866670D01*
X110044671Y-85885883D01*
X110028607Y-85903607D01*
X110010883Y-85919671D01*
X109991670Y-85933921D01*
X109971153Y-85946218D01*
X109949529Y-85956446D01*
X109927007Y-85964504D01*
X109903803Y-85970316D01*
X109880142Y-85973826D01*
X109856250Y-85975000D01*
X108943750Y-85975000D01*
X108919858Y-85973826D01*
X108896197Y-85970316D01*
X108872993Y-85964504D01*
X108850471Y-85956446D01*
X108828847Y-85946218D01*
X108808330Y-85933921D01*
X108789117Y-85919671D01*
X108771393Y-85903607D01*
X108755329Y-85885883D01*
X108741079Y-85866670D01*
X108728782Y-85846153D01*
X108718554Y-85824529D01*
X108710496Y-85802007D01*
X108704684Y-85778803D01*
X108701174Y-85755142D01*
X108700000Y-85731250D01*
X108700000Y-85243750D01*
X108701174Y-85219858D01*
X108704684Y-85196197D01*
X108710496Y-85172993D01*
X108718554Y-85150471D01*
X108728782Y-85128847D01*
X108741079Y-85108330D01*
X108755329Y-85089117D01*
X108771393Y-85071393D01*
X108789117Y-85055329D01*
X108808330Y-85041079D01*
X108828847Y-85028782D01*
X108850471Y-85018554D01*
X108872993Y-85010496D01*
X108896197Y-85004684D01*
X108919858Y-85001174D01*
X108943750Y-85000000D01*
X109856250Y-85000000D01*
X109880142Y-85001174D01*
X109880142Y-85001174D01*
G37*
D14*
X109400000Y-85487500D03*
D12*
G36*
X109880142Y-83126174D02*
G01*
X109903803Y-83129684D01*
X109927007Y-83135496D01*
X109949529Y-83143554D01*
X109971153Y-83153782D01*
X109991670Y-83166079D01*
X110010883Y-83180329D01*
X110028607Y-83196393D01*
X110044671Y-83214117D01*
X110058921Y-83233330D01*
X110071218Y-83253847D01*
X110081446Y-83275471D01*
X110089504Y-83297993D01*
X110095316Y-83321197D01*
X110098826Y-83344858D01*
X110100000Y-83368750D01*
X110100000Y-83856250D01*
X110098826Y-83880142D01*
X110095316Y-83903803D01*
X110089504Y-83927007D01*
X110081446Y-83949529D01*
X110071218Y-83971153D01*
X110058921Y-83991670D01*
X110044671Y-84010883D01*
X110028607Y-84028607D01*
X110010883Y-84044671D01*
X109991670Y-84058921D01*
X109971153Y-84071218D01*
X109949529Y-84081446D01*
X109927007Y-84089504D01*
X109903803Y-84095316D01*
X109880142Y-84098826D01*
X109856250Y-84100000D01*
X108943750Y-84100000D01*
X108919858Y-84098826D01*
X108896197Y-84095316D01*
X108872993Y-84089504D01*
X108850471Y-84081446D01*
X108828847Y-84071218D01*
X108808330Y-84058921D01*
X108789117Y-84044671D01*
X108771393Y-84028607D01*
X108755329Y-84010883D01*
X108741079Y-83991670D01*
X108728782Y-83971153D01*
X108718554Y-83949529D01*
X108710496Y-83927007D01*
X108704684Y-83903803D01*
X108701174Y-83880142D01*
X108700000Y-83856250D01*
X108700000Y-83368750D01*
X108701174Y-83344858D01*
X108704684Y-83321197D01*
X108710496Y-83297993D01*
X108718554Y-83275471D01*
X108728782Y-83253847D01*
X108741079Y-83233330D01*
X108755329Y-83214117D01*
X108771393Y-83196393D01*
X108789117Y-83180329D01*
X108808330Y-83166079D01*
X108828847Y-83153782D01*
X108850471Y-83143554D01*
X108872993Y-83135496D01*
X108896197Y-83129684D01*
X108919858Y-83126174D01*
X108943750Y-83125000D01*
X109856250Y-83125000D01*
X109880142Y-83126174D01*
X109880142Y-83126174D01*
G37*
D14*
X109400000Y-83612500D03*
D12*
G36*
X110680142Y-59926174D02*
G01*
X110703803Y-59929684D01*
X110727007Y-59935496D01*
X110749529Y-59943554D01*
X110771153Y-59953782D01*
X110791670Y-59966079D01*
X110810883Y-59980329D01*
X110828607Y-59996393D01*
X110844671Y-60014117D01*
X110858921Y-60033330D01*
X110871218Y-60053847D01*
X110881446Y-60075471D01*
X110889504Y-60097993D01*
X110895316Y-60121197D01*
X110898826Y-60144858D01*
X110900000Y-60168750D01*
X110900000Y-60656250D01*
X110898826Y-60680142D01*
X110895316Y-60703803D01*
X110889504Y-60727007D01*
X110881446Y-60749529D01*
X110871218Y-60771153D01*
X110858921Y-60791670D01*
X110844671Y-60810883D01*
X110828607Y-60828607D01*
X110810883Y-60844671D01*
X110791670Y-60858921D01*
X110771153Y-60871218D01*
X110749529Y-60881446D01*
X110727007Y-60889504D01*
X110703803Y-60895316D01*
X110680142Y-60898826D01*
X110656250Y-60900000D01*
X109743750Y-60900000D01*
X109719858Y-60898826D01*
X109696197Y-60895316D01*
X109672993Y-60889504D01*
X109650471Y-60881446D01*
X109628847Y-60871218D01*
X109608330Y-60858921D01*
X109589117Y-60844671D01*
X109571393Y-60828607D01*
X109555329Y-60810883D01*
X109541079Y-60791670D01*
X109528782Y-60771153D01*
X109518554Y-60749529D01*
X109510496Y-60727007D01*
X109504684Y-60703803D01*
X109501174Y-60680142D01*
X109500000Y-60656250D01*
X109500000Y-60168750D01*
X109501174Y-60144858D01*
X109504684Y-60121197D01*
X109510496Y-60097993D01*
X109518554Y-60075471D01*
X109528782Y-60053847D01*
X109541079Y-60033330D01*
X109555329Y-60014117D01*
X109571393Y-59996393D01*
X109589117Y-59980329D01*
X109608330Y-59966079D01*
X109628847Y-59953782D01*
X109650471Y-59943554D01*
X109672993Y-59935496D01*
X109696197Y-59929684D01*
X109719858Y-59926174D01*
X109743750Y-59925000D01*
X110656250Y-59925000D01*
X110680142Y-59926174D01*
X110680142Y-59926174D01*
G37*
D14*
X110200000Y-60412500D03*
D12*
G36*
X110680142Y-61801174D02*
G01*
X110703803Y-61804684D01*
X110727007Y-61810496D01*
X110749529Y-61818554D01*
X110771153Y-61828782D01*
X110791670Y-61841079D01*
X110810883Y-61855329D01*
X110828607Y-61871393D01*
X110844671Y-61889117D01*
X110858921Y-61908330D01*
X110871218Y-61928847D01*
X110881446Y-61950471D01*
X110889504Y-61972993D01*
X110895316Y-61996197D01*
X110898826Y-62019858D01*
X110900000Y-62043750D01*
X110900000Y-62531250D01*
X110898826Y-62555142D01*
X110895316Y-62578803D01*
X110889504Y-62602007D01*
X110881446Y-62624529D01*
X110871218Y-62646153D01*
X110858921Y-62666670D01*
X110844671Y-62685883D01*
X110828607Y-62703607D01*
X110810883Y-62719671D01*
X110791670Y-62733921D01*
X110771153Y-62746218D01*
X110749529Y-62756446D01*
X110727007Y-62764504D01*
X110703803Y-62770316D01*
X110680142Y-62773826D01*
X110656250Y-62775000D01*
X109743750Y-62775000D01*
X109719858Y-62773826D01*
X109696197Y-62770316D01*
X109672993Y-62764504D01*
X109650471Y-62756446D01*
X109628847Y-62746218D01*
X109608330Y-62733921D01*
X109589117Y-62719671D01*
X109571393Y-62703607D01*
X109555329Y-62685883D01*
X109541079Y-62666670D01*
X109528782Y-62646153D01*
X109518554Y-62624529D01*
X109510496Y-62602007D01*
X109504684Y-62578803D01*
X109501174Y-62555142D01*
X109500000Y-62531250D01*
X109500000Y-62043750D01*
X109501174Y-62019858D01*
X109504684Y-61996197D01*
X109510496Y-61972993D01*
X109518554Y-61950471D01*
X109528782Y-61928847D01*
X109541079Y-61908330D01*
X109555329Y-61889117D01*
X109571393Y-61871393D01*
X109589117Y-61855329D01*
X109608330Y-61841079D01*
X109628847Y-61828782D01*
X109650471Y-61818554D01*
X109672993Y-61810496D01*
X109696197Y-61804684D01*
X109719858Y-61801174D01*
X109743750Y-61800000D01*
X110656250Y-61800000D01*
X110680142Y-61801174D01*
X110680142Y-61801174D01*
G37*
D14*
X110200000Y-62287500D03*
D12*
G36*
X158605142Y-92501174D02*
G01*
X158628803Y-92504684D01*
X158652007Y-92510496D01*
X158674529Y-92518554D01*
X158696153Y-92528782D01*
X158716670Y-92541079D01*
X158735883Y-92555329D01*
X158753607Y-92571393D01*
X158769671Y-92589117D01*
X158783921Y-92608330D01*
X158796218Y-92628847D01*
X158806446Y-92650471D01*
X158814504Y-92672993D01*
X158820316Y-92696197D01*
X158823826Y-92719858D01*
X158825000Y-92743750D01*
X158825000Y-93656250D01*
X158823826Y-93680142D01*
X158820316Y-93703803D01*
X158814504Y-93727007D01*
X158806446Y-93749529D01*
X158796218Y-93771153D01*
X158783921Y-93791670D01*
X158769671Y-93810883D01*
X158753607Y-93828607D01*
X158735883Y-93844671D01*
X158716670Y-93858921D01*
X158696153Y-93871218D01*
X158674529Y-93881446D01*
X158652007Y-93889504D01*
X158628803Y-93895316D01*
X158605142Y-93898826D01*
X158581250Y-93900000D01*
X158093750Y-93900000D01*
X158069858Y-93898826D01*
X158046197Y-93895316D01*
X158022993Y-93889504D01*
X158000471Y-93881446D01*
X157978847Y-93871218D01*
X157958330Y-93858921D01*
X157939117Y-93844671D01*
X157921393Y-93828607D01*
X157905329Y-93810883D01*
X157891079Y-93791670D01*
X157878782Y-93771153D01*
X157868554Y-93749529D01*
X157860496Y-93727007D01*
X157854684Y-93703803D01*
X157851174Y-93680142D01*
X157850000Y-93656250D01*
X157850000Y-92743750D01*
X157851174Y-92719858D01*
X157854684Y-92696197D01*
X157860496Y-92672993D01*
X157868554Y-92650471D01*
X157878782Y-92628847D01*
X157891079Y-92608330D01*
X157905329Y-92589117D01*
X157921393Y-92571393D01*
X157939117Y-92555329D01*
X157958330Y-92541079D01*
X157978847Y-92528782D01*
X158000471Y-92518554D01*
X158022993Y-92510496D01*
X158046197Y-92504684D01*
X158069858Y-92501174D01*
X158093750Y-92500000D01*
X158581250Y-92500000D01*
X158605142Y-92501174D01*
X158605142Y-92501174D01*
G37*
D14*
X158337500Y-93200000D03*
D12*
G36*
X156730142Y-92501174D02*
G01*
X156753803Y-92504684D01*
X156777007Y-92510496D01*
X156799529Y-92518554D01*
X156821153Y-92528782D01*
X156841670Y-92541079D01*
X156860883Y-92555329D01*
X156878607Y-92571393D01*
X156894671Y-92589117D01*
X156908921Y-92608330D01*
X156921218Y-92628847D01*
X156931446Y-92650471D01*
X156939504Y-92672993D01*
X156945316Y-92696197D01*
X156948826Y-92719858D01*
X156950000Y-92743750D01*
X156950000Y-93656250D01*
X156948826Y-93680142D01*
X156945316Y-93703803D01*
X156939504Y-93727007D01*
X156931446Y-93749529D01*
X156921218Y-93771153D01*
X156908921Y-93791670D01*
X156894671Y-93810883D01*
X156878607Y-93828607D01*
X156860883Y-93844671D01*
X156841670Y-93858921D01*
X156821153Y-93871218D01*
X156799529Y-93881446D01*
X156777007Y-93889504D01*
X156753803Y-93895316D01*
X156730142Y-93898826D01*
X156706250Y-93900000D01*
X156218750Y-93900000D01*
X156194858Y-93898826D01*
X156171197Y-93895316D01*
X156147993Y-93889504D01*
X156125471Y-93881446D01*
X156103847Y-93871218D01*
X156083330Y-93858921D01*
X156064117Y-93844671D01*
X156046393Y-93828607D01*
X156030329Y-93810883D01*
X156016079Y-93791670D01*
X156003782Y-93771153D01*
X155993554Y-93749529D01*
X155985496Y-93727007D01*
X155979684Y-93703803D01*
X155976174Y-93680142D01*
X155975000Y-93656250D01*
X155975000Y-92743750D01*
X155976174Y-92719858D01*
X155979684Y-92696197D01*
X155985496Y-92672993D01*
X155993554Y-92650471D01*
X156003782Y-92628847D01*
X156016079Y-92608330D01*
X156030329Y-92589117D01*
X156046393Y-92571393D01*
X156064117Y-92555329D01*
X156083330Y-92541079D01*
X156103847Y-92528782D01*
X156125471Y-92518554D01*
X156147993Y-92510496D01*
X156171197Y-92504684D01*
X156194858Y-92501174D01*
X156218750Y-92500000D01*
X156706250Y-92500000D01*
X156730142Y-92501174D01*
X156730142Y-92501174D01*
G37*
D14*
X156462500Y-93200000D03*
D12*
G36*
X156505142Y-88901174D02*
G01*
X156528803Y-88904684D01*
X156552007Y-88910496D01*
X156574529Y-88918554D01*
X156596153Y-88928782D01*
X156616670Y-88941079D01*
X156635883Y-88955329D01*
X156653607Y-88971393D01*
X156669671Y-88989117D01*
X156683921Y-89008330D01*
X156696218Y-89028847D01*
X156706446Y-89050471D01*
X156714504Y-89072993D01*
X156720316Y-89096197D01*
X156723826Y-89119858D01*
X156725000Y-89143750D01*
X156725000Y-90056250D01*
X156723826Y-90080142D01*
X156720316Y-90103803D01*
X156714504Y-90127007D01*
X156706446Y-90149529D01*
X156696218Y-90171153D01*
X156683921Y-90191670D01*
X156669671Y-90210883D01*
X156653607Y-90228607D01*
X156635883Y-90244671D01*
X156616670Y-90258921D01*
X156596153Y-90271218D01*
X156574529Y-90281446D01*
X156552007Y-90289504D01*
X156528803Y-90295316D01*
X156505142Y-90298826D01*
X156481250Y-90300000D01*
X155993750Y-90300000D01*
X155969858Y-90298826D01*
X155946197Y-90295316D01*
X155922993Y-90289504D01*
X155900471Y-90281446D01*
X155878847Y-90271218D01*
X155858330Y-90258921D01*
X155839117Y-90244671D01*
X155821393Y-90228607D01*
X155805329Y-90210883D01*
X155791079Y-90191670D01*
X155778782Y-90171153D01*
X155768554Y-90149529D01*
X155760496Y-90127007D01*
X155754684Y-90103803D01*
X155751174Y-90080142D01*
X155750000Y-90056250D01*
X155750000Y-89143750D01*
X155751174Y-89119858D01*
X155754684Y-89096197D01*
X155760496Y-89072993D01*
X155768554Y-89050471D01*
X155778782Y-89028847D01*
X155791079Y-89008330D01*
X155805329Y-88989117D01*
X155821393Y-88971393D01*
X155839117Y-88955329D01*
X155858330Y-88941079D01*
X155878847Y-88928782D01*
X155900471Y-88918554D01*
X155922993Y-88910496D01*
X155946197Y-88904684D01*
X155969858Y-88901174D01*
X155993750Y-88900000D01*
X156481250Y-88900000D01*
X156505142Y-88901174D01*
X156505142Y-88901174D01*
G37*
D14*
X156237500Y-89600000D03*
D12*
G36*
X154630142Y-88901174D02*
G01*
X154653803Y-88904684D01*
X154677007Y-88910496D01*
X154699529Y-88918554D01*
X154721153Y-88928782D01*
X154741670Y-88941079D01*
X154760883Y-88955329D01*
X154778607Y-88971393D01*
X154794671Y-88989117D01*
X154808921Y-89008330D01*
X154821218Y-89028847D01*
X154831446Y-89050471D01*
X154839504Y-89072993D01*
X154845316Y-89096197D01*
X154848826Y-89119858D01*
X154850000Y-89143750D01*
X154850000Y-90056250D01*
X154848826Y-90080142D01*
X154845316Y-90103803D01*
X154839504Y-90127007D01*
X154831446Y-90149529D01*
X154821218Y-90171153D01*
X154808921Y-90191670D01*
X154794671Y-90210883D01*
X154778607Y-90228607D01*
X154760883Y-90244671D01*
X154741670Y-90258921D01*
X154721153Y-90271218D01*
X154699529Y-90281446D01*
X154677007Y-90289504D01*
X154653803Y-90295316D01*
X154630142Y-90298826D01*
X154606250Y-90300000D01*
X154118750Y-90300000D01*
X154094858Y-90298826D01*
X154071197Y-90295316D01*
X154047993Y-90289504D01*
X154025471Y-90281446D01*
X154003847Y-90271218D01*
X153983330Y-90258921D01*
X153964117Y-90244671D01*
X153946393Y-90228607D01*
X153930329Y-90210883D01*
X153916079Y-90191670D01*
X153903782Y-90171153D01*
X153893554Y-90149529D01*
X153885496Y-90127007D01*
X153879684Y-90103803D01*
X153876174Y-90080142D01*
X153875000Y-90056250D01*
X153875000Y-89143750D01*
X153876174Y-89119858D01*
X153879684Y-89096197D01*
X153885496Y-89072993D01*
X153893554Y-89050471D01*
X153903782Y-89028847D01*
X153916079Y-89008330D01*
X153930329Y-88989117D01*
X153946393Y-88971393D01*
X153964117Y-88955329D01*
X153983330Y-88941079D01*
X154003847Y-88928782D01*
X154025471Y-88918554D01*
X154047993Y-88910496D01*
X154071197Y-88904684D01*
X154094858Y-88901174D01*
X154118750Y-88900000D01*
X154606250Y-88900000D01*
X154630142Y-88901174D01*
X154630142Y-88901174D01*
G37*
D14*
X154362500Y-89600000D03*
D12*
G36*
X142380142Y-98451174D02*
G01*
X142403803Y-98454684D01*
X142427007Y-98460496D01*
X142449529Y-98468554D01*
X142471153Y-98478782D01*
X142491670Y-98491079D01*
X142510883Y-98505329D01*
X142528607Y-98521393D01*
X142544671Y-98539117D01*
X142558921Y-98558330D01*
X142571218Y-98578847D01*
X142581446Y-98600471D01*
X142589504Y-98622993D01*
X142595316Y-98646197D01*
X142598826Y-98669858D01*
X142600000Y-98693750D01*
X142600000Y-99181250D01*
X142598826Y-99205142D01*
X142595316Y-99228803D01*
X142589504Y-99252007D01*
X142581446Y-99274529D01*
X142571218Y-99296153D01*
X142558921Y-99316670D01*
X142544671Y-99335883D01*
X142528607Y-99353607D01*
X142510883Y-99369671D01*
X142491670Y-99383921D01*
X142471153Y-99396218D01*
X142449529Y-99406446D01*
X142427007Y-99414504D01*
X142403803Y-99420316D01*
X142380142Y-99423826D01*
X142356250Y-99425000D01*
X141443750Y-99425000D01*
X141419858Y-99423826D01*
X141396197Y-99420316D01*
X141372993Y-99414504D01*
X141350471Y-99406446D01*
X141328847Y-99396218D01*
X141308330Y-99383921D01*
X141289117Y-99369671D01*
X141271393Y-99353607D01*
X141255329Y-99335883D01*
X141241079Y-99316670D01*
X141228782Y-99296153D01*
X141218554Y-99274529D01*
X141210496Y-99252007D01*
X141204684Y-99228803D01*
X141201174Y-99205142D01*
X141200000Y-99181250D01*
X141200000Y-98693750D01*
X141201174Y-98669858D01*
X141204684Y-98646197D01*
X141210496Y-98622993D01*
X141218554Y-98600471D01*
X141228782Y-98578847D01*
X141241079Y-98558330D01*
X141255329Y-98539117D01*
X141271393Y-98521393D01*
X141289117Y-98505329D01*
X141308330Y-98491079D01*
X141328847Y-98478782D01*
X141350471Y-98468554D01*
X141372993Y-98460496D01*
X141396197Y-98454684D01*
X141419858Y-98451174D01*
X141443750Y-98450000D01*
X142356250Y-98450000D01*
X142380142Y-98451174D01*
X142380142Y-98451174D01*
G37*
D14*
X141900000Y-98937500D03*
D12*
G36*
X142380142Y-96576174D02*
G01*
X142403803Y-96579684D01*
X142427007Y-96585496D01*
X142449529Y-96593554D01*
X142471153Y-96603782D01*
X142491670Y-96616079D01*
X142510883Y-96630329D01*
X142528607Y-96646393D01*
X142544671Y-96664117D01*
X142558921Y-96683330D01*
X142571218Y-96703847D01*
X142581446Y-96725471D01*
X142589504Y-96747993D01*
X142595316Y-96771197D01*
X142598826Y-96794858D01*
X142600000Y-96818750D01*
X142600000Y-97306250D01*
X142598826Y-97330142D01*
X142595316Y-97353803D01*
X142589504Y-97377007D01*
X142581446Y-97399529D01*
X142571218Y-97421153D01*
X142558921Y-97441670D01*
X142544671Y-97460883D01*
X142528607Y-97478607D01*
X142510883Y-97494671D01*
X142491670Y-97508921D01*
X142471153Y-97521218D01*
X142449529Y-97531446D01*
X142427007Y-97539504D01*
X142403803Y-97545316D01*
X142380142Y-97548826D01*
X142356250Y-97550000D01*
X141443750Y-97550000D01*
X141419858Y-97548826D01*
X141396197Y-97545316D01*
X141372993Y-97539504D01*
X141350471Y-97531446D01*
X141328847Y-97521218D01*
X141308330Y-97508921D01*
X141289117Y-97494671D01*
X141271393Y-97478607D01*
X141255329Y-97460883D01*
X141241079Y-97441670D01*
X141228782Y-97421153D01*
X141218554Y-97399529D01*
X141210496Y-97377007D01*
X141204684Y-97353803D01*
X141201174Y-97330142D01*
X141200000Y-97306250D01*
X141200000Y-96818750D01*
X141201174Y-96794858D01*
X141204684Y-96771197D01*
X141210496Y-96747993D01*
X141218554Y-96725471D01*
X141228782Y-96703847D01*
X141241079Y-96683330D01*
X141255329Y-96664117D01*
X141271393Y-96646393D01*
X141289117Y-96630329D01*
X141308330Y-96616079D01*
X141328847Y-96603782D01*
X141350471Y-96593554D01*
X141372993Y-96585496D01*
X141396197Y-96579684D01*
X141419858Y-96576174D01*
X141443750Y-96575000D01*
X142356250Y-96575000D01*
X142380142Y-96576174D01*
X142380142Y-96576174D01*
G37*
D14*
X141900000Y-97062500D03*
D12*
G36*
X167680142Y-80851174D02*
G01*
X167703803Y-80854684D01*
X167727007Y-80860496D01*
X167749529Y-80868554D01*
X167771153Y-80878782D01*
X167791670Y-80891079D01*
X167810883Y-80905329D01*
X167828607Y-80921393D01*
X167844671Y-80939117D01*
X167858921Y-80958330D01*
X167871218Y-80978847D01*
X167881446Y-81000471D01*
X167889504Y-81022993D01*
X167895316Y-81046197D01*
X167898826Y-81069858D01*
X167900000Y-81093750D01*
X167900000Y-81581250D01*
X167898826Y-81605142D01*
X167895316Y-81628803D01*
X167889504Y-81652007D01*
X167881446Y-81674529D01*
X167871218Y-81696153D01*
X167858921Y-81716670D01*
X167844671Y-81735883D01*
X167828607Y-81753607D01*
X167810883Y-81769671D01*
X167791670Y-81783921D01*
X167771153Y-81796218D01*
X167749529Y-81806446D01*
X167727007Y-81814504D01*
X167703803Y-81820316D01*
X167680142Y-81823826D01*
X167656250Y-81825000D01*
X166743750Y-81825000D01*
X166719858Y-81823826D01*
X166696197Y-81820316D01*
X166672993Y-81814504D01*
X166650471Y-81806446D01*
X166628847Y-81796218D01*
X166608330Y-81783921D01*
X166589117Y-81769671D01*
X166571393Y-81753607D01*
X166555329Y-81735883D01*
X166541079Y-81716670D01*
X166528782Y-81696153D01*
X166518554Y-81674529D01*
X166510496Y-81652007D01*
X166504684Y-81628803D01*
X166501174Y-81605142D01*
X166500000Y-81581250D01*
X166500000Y-81093750D01*
X166501174Y-81069858D01*
X166504684Y-81046197D01*
X166510496Y-81022993D01*
X166518554Y-81000471D01*
X166528782Y-80978847D01*
X166541079Y-80958330D01*
X166555329Y-80939117D01*
X166571393Y-80921393D01*
X166589117Y-80905329D01*
X166608330Y-80891079D01*
X166628847Y-80878782D01*
X166650471Y-80868554D01*
X166672993Y-80860496D01*
X166696197Y-80854684D01*
X166719858Y-80851174D01*
X166743750Y-80850000D01*
X167656250Y-80850000D01*
X167680142Y-80851174D01*
X167680142Y-80851174D01*
G37*
D14*
X167200000Y-81337500D03*
D12*
G36*
X167680142Y-78976174D02*
G01*
X167703803Y-78979684D01*
X167727007Y-78985496D01*
X167749529Y-78993554D01*
X167771153Y-79003782D01*
X167791670Y-79016079D01*
X167810883Y-79030329D01*
X167828607Y-79046393D01*
X167844671Y-79064117D01*
X167858921Y-79083330D01*
X167871218Y-79103847D01*
X167881446Y-79125471D01*
X167889504Y-79147993D01*
X167895316Y-79171197D01*
X167898826Y-79194858D01*
X167900000Y-79218750D01*
X167900000Y-79706250D01*
X167898826Y-79730142D01*
X167895316Y-79753803D01*
X167889504Y-79777007D01*
X167881446Y-79799529D01*
X167871218Y-79821153D01*
X167858921Y-79841670D01*
X167844671Y-79860883D01*
X167828607Y-79878607D01*
X167810883Y-79894671D01*
X167791670Y-79908921D01*
X167771153Y-79921218D01*
X167749529Y-79931446D01*
X167727007Y-79939504D01*
X167703803Y-79945316D01*
X167680142Y-79948826D01*
X167656250Y-79950000D01*
X166743750Y-79950000D01*
X166719858Y-79948826D01*
X166696197Y-79945316D01*
X166672993Y-79939504D01*
X166650471Y-79931446D01*
X166628847Y-79921218D01*
X166608330Y-79908921D01*
X166589117Y-79894671D01*
X166571393Y-79878607D01*
X166555329Y-79860883D01*
X166541079Y-79841670D01*
X166528782Y-79821153D01*
X166518554Y-79799529D01*
X166510496Y-79777007D01*
X166504684Y-79753803D01*
X166501174Y-79730142D01*
X166500000Y-79706250D01*
X166500000Y-79218750D01*
X166501174Y-79194858D01*
X166504684Y-79171197D01*
X166510496Y-79147993D01*
X166518554Y-79125471D01*
X166528782Y-79103847D01*
X166541079Y-79083330D01*
X166555329Y-79064117D01*
X166571393Y-79046393D01*
X166589117Y-79030329D01*
X166608330Y-79016079D01*
X166628847Y-79003782D01*
X166650471Y-78993554D01*
X166672993Y-78985496D01*
X166696197Y-78979684D01*
X166719858Y-78976174D01*
X166743750Y-78975000D01*
X167656250Y-78975000D01*
X167680142Y-78976174D01*
X167680142Y-78976174D01*
G37*
D14*
X167200000Y-79462500D03*
D12*
G36*
X165405142Y-76801174D02*
G01*
X165428803Y-76804684D01*
X165452007Y-76810496D01*
X165474529Y-76818554D01*
X165496153Y-76828782D01*
X165516670Y-76841079D01*
X165535883Y-76855329D01*
X165553607Y-76871393D01*
X165569671Y-76889117D01*
X165583921Y-76908330D01*
X165596218Y-76928847D01*
X165606446Y-76950471D01*
X165614504Y-76972993D01*
X165620316Y-76996197D01*
X165623826Y-77019858D01*
X165625000Y-77043750D01*
X165625000Y-77956250D01*
X165623826Y-77980142D01*
X165620316Y-78003803D01*
X165614504Y-78027007D01*
X165606446Y-78049529D01*
X165596218Y-78071153D01*
X165583921Y-78091670D01*
X165569671Y-78110883D01*
X165553607Y-78128607D01*
X165535883Y-78144671D01*
X165516670Y-78158921D01*
X165496153Y-78171218D01*
X165474529Y-78181446D01*
X165452007Y-78189504D01*
X165428803Y-78195316D01*
X165405142Y-78198826D01*
X165381250Y-78200000D01*
X164893750Y-78200000D01*
X164869858Y-78198826D01*
X164846197Y-78195316D01*
X164822993Y-78189504D01*
X164800471Y-78181446D01*
X164778847Y-78171218D01*
X164758330Y-78158921D01*
X164739117Y-78144671D01*
X164721393Y-78128607D01*
X164705329Y-78110883D01*
X164691079Y-78091670D01*
X164678782Y-78071153D01*
X164668554Y-78049529D01*
X164660496Y-78027007D01*
X164654684Y-78003803D01*
X164651174Y-77980142D01*
X164650000Y-77956250D01*
X164650000Y-77043750D01*
X164651174Y-77019858D01*
X164654684Y-76996197D01*
X164660496Y-76972993D01*
X164668554Y-76950471D01*
X164678782Y-76928847D01*
X164691079Y-76908330D01*
X164705329Y-76889117D01*
X164721393Y-76871393D01*
X164739117Y-76855329D01*
X164758330Y-76841079D01*
X164778847Y-76828782D01*
X164800471Y-76818554D01*
X164822993Y-76810496D01*
X164846197Y-76804684D01*
X164869858Y-76801174D01*
X164893750Y-76800000D01*
X165381250Y-76800000D01*
X165405142Y-76801174D01*
X165405142Y-76801174D01*
G37*
D14*
X165137500Y-77500000D03*
D12*
G36*
X163530142Y-76801174D02*
G01*
X163553803Y-76804684D01*
X163577007Y-76810496D01*
X163599529Y-76818554D01*
X163621153Y-76828782D01*
X163641670Y-76841079D01*
X163660883Y-76855329D01*
X163678607Y-76871393D01*
X163694671Y-76889117D01*
X163708921Y-76908330D01*
X163721218Y-76928847D01*
X163731446Y-76950471D01*
X163739504Y-76972993D01*
X163745316Y-76996197D01*
X163748826Y-77019858D01*
X163750000Y-77043750D01*
X163750000Y-77956250D01*
X163748826Y-77980142D01*
X163745316Y-78003803D01*
X163739504Y-78027007D01*
X163731446Y-78049529D01*
X163721218Y-78071153D01*
X163708921Y-78091670D01*
X163694671Y-78110883D01*
X163678607Y-78128607D01*
X163660883Y-78144671D01*
X163641670Y-78158921D01*
X163621153Y-78171218D01*
X163599529Y-78181446D01*
X163577007Y-78189504D01*
X163553803Y-78195316D01*
X163530142Y-78198826D01*
X163506250Y-78200000D01*
X163018750Y-78200000D01*
X162994858Y-78198826D01*
X162971197Y-78195316D01*
X162947993Y-78189504D01*
X162925471Y-78181446D01*
X162903847Y-78171218D01*
X162883330Y-78158921D01*
X162864117Y-78144671D01*
X162846393Y-78128607D01*
X162830329Y-78110883D01*
X162816079Y-78091670D01*
X162803782Y-78071153D01*
X162793554Y-78049529D01*
X162785496Y-78027007D01*
X162779684Y-78003803D01*
X162776174Y-77980142D01*
X162775000Y-77956250D01*
X162775000Y-77043750D01*
X162776174Y-77019858D01*
X162779684Y-76996197D01*
X162785496Y-76972993D01*
X162793554Y-76950471D01*
X162803782Y-76928847D01*
X162816079Y-76908330D01*
X162830329Y-76889117D01*
X162846393Y-76871393D01*
X162864117Y-76855329D01*
X162883330Y-76841079D01*
X162903847Y-76828782D01*
X162925471Y-76818554D01*
X162947993Y-76810496D01*
X162971197Y-76804684D01*
X162994858Y-76801174D01*
X163018750Y-76800000D01*
X163506250Y-76800000D01*
X163530142Y-76801174D01*
X163530142Y-76801174D01*
G37*
D14*
X163262500Y-77500000D03*
D12*
G36*
X158930142Y-79401174D02*
G01*
X158953803Y-79404684D01*
X158977007Y-79410496D01*
X158999529Y-79418554D01*
X159021153Y-79428782D01*
X159041670Y-79441079D01*
X159060883Y-79455329D01*
X159078607Y-79471393D01*
X159094671Y-79489117D01*
X159108921Y-79508330D01*
X159121218Y-79528847D01*
X159131446Y-79550471D01*
X159139504Y-79572993D01*
X159145316Y-79596197D01*
X159148826Y-79619858D01*
X159150000Y-79643750D01*
X159150000Y-80556250D01*
X159148826Y-80580142D01*
X159145316Y-80603803D01*
X159139504Y-80627007D01*
X159131446Y-80649529D01*
X159121218Y-80671153D01*
X159108921Y-80691670D01*
X159094671Y-80710883D01*
X159078607Y-80728607D01*
X159060883Y-80744671D01*
X159041670Y-80758921D01*
X159021153Y-80771218D01*
X158999529Y-80781446D01*
X158977007Y-80789504D01*
X158953803Y-80795316D01*
X158930142Y-80798826D01*
X158906250Y-80800000D01*
X158418750Y-80800000D01*
X158394858Y-80798826D01*
X158371197Y-80795316D01*
X158347993Y-80789504D01*
X158325471Y-80781446D01*
X158303847Y-80771218D01*
X158283330Y-80758921D01*
X158264117Y-80744671D01*
X158246393Y-80728607D01*
X158230329Y-80710883D01*
X158216079Y-80691670D01*
X158203782Y-80671153D01*
X158193554Y-80649529D01*
X158185496Y-80627007D01*
X158179684Y-80603803D01*
X158176174Y-80580142D01*
X158175000Y-80556250D01*
X158175000Y-79643750D01*
X158176174Y-79619858D01*
X158179684Y-79596197D01*
X158185496Y-79572993D01*
X158193554Y-79550471D01*
X158203782Y-79528847D01*
X158216079Y-79508330D01*
X158230329Y-79489117D01*
X158246393Y-79471393D01*
X158264117Y-79455329D01*
X158283330Y-79441079D01*
X158303847Y-79428782D01*
X158325471Y-79418554D01*
X158347993Y-79410496D01*
X158371197Y-79404684D01*
X158394858Y-79401174D01*
X158418750Y-79400000D01*
X158906250Y-79400000D01*
X158930142Y-79401174D01*
X158930142Y-79401174D01*
G37*
D14*
X158662500Y-80100000D03*
D12*
G36*
X160805142Y-79401174D02*
G01*
X160828803Y-79404684D01*
X160852007Y-79410496D01*
X160874529Y-79418554D01*
X160896153Y-79428782D01*
X160916670Y-79441079D01*
X160935883Y-79455329D01*
X160953607Y-79471393D01*
X160969671Y-79489117D01*
X160983921Y-79508330D01*
X160996218Y-79528847D01*
X161006446Y-79550471D01*
X161014504Y-79572993D01*
X161020316Y-79596197D01*
X161023826Y-79619858D01*
X161025000Y-79643750D01*
X161025000Y-80556250D01*
X161023826Y-80580142D01*
X161020316Y-80603803D01*
X161014504Y-80627007D01*
X161006446Y-80649529D01*
X160996218Y-80671153D01*
X160983921Y-80691670D01*
X160969671Y-80710883D01*
X160953607Y-80728607D01*
X160935883Y-80744671D01*
X160916670Y-80758921D01*
X160896153Y-80771218D01*
X160874529Y-80781446D01*
X160852007Y-80789504D01*
X160828803Y-80795316D01*
X160805142Y-80798826D01*
X160781250Y-80800000D01*
X160293750Y-80800000D01*
X160269858Y-80798826D01*
X160246197Y-80795316D01*
X160222993Y-80789504D01*
X160200471Y-80781446D01*
X160178847Y-80771218D01*
X160158330Y-80758921D01*
X160139117Y-80744671D01*
X160121393Y-80728607D01*
X160105329Y-80710883D01*
X160091079Y-80691670D01*
X160078782Y-80671153D01*
X160068554Y-80649529D01*
X160060496Y-80627007D01*
X160054684Y-80603803D01*
X160051174Y-80580142D01*
X160050000Y-80556250D01*
X160050000Y-79643750D01*
X160051174Y-79619858D01*
X160054684Y-79596197D01*
X160060496Y-79572993D01*
X160068554Y-79550471D01*
X160078782Y-79528847D01*
X160091079Y-79508330D01*
X160105329Y-79489117D01*
X160121393Y-79471393D01*
X160139117Y-79455329D01*
X160158330Y-79441079D01*
X160178847Y-79428782D01*
X160200471Y-79418554D01*
X160222993Y-79410496D01*
X160246197Y-79404684D01*
X160269858Y-79401174D01*
X160293750Y-79400000D01*
X160781250Y-79400000D01*
X160805142Y-79401174D01*
X160805142Y-79401174D01*
G37*
D14*
X160537500Y-80100000D03*
D12*
G36*
X149505142Y-98001174D02*
G01*
X149528803Y-98004684D01*
X149552007Y-98010496D01*
X149574529Y-98018554D01*
X149596153Y-98028782D01*
X149616670Y-98041079D01*
X149635883Y-98055329D01*
X149653607Y-98071393D01*
X149669671Y-98089117D01*
X149683921Y-98108330D01*
X149696218Y-98128847D01*
X149706446Y-98150471D01*
X149714504Y-98172993D01*
X149720316Y-98196197D01*
X149723826Y-98219858D01*
X149725000Y-98243750D01*
X149725000Y-99156250D01*
X149723826Y-99180142D01*
X149720316Y-99203803D01*
X149714504Y-99227007D01*
X149706446Y-99249529D01*
X149696218Y-99271153D01*
X149683921Y-99291670D01*
X149669671Y-99310883D01*
X149653607Y-99328607D01*
X149635883Y-99344671D01*
X149616670Y-99358921D01*
X149596153Y-99371218D01*
X149574529Y-99381446D01*
X149552007Y-99389504D01*
X149528803Y-99395316D01*
X149505142Y-99398826D01*
X149481250Y-99400000D01*
X148993750Y-99400000D01*
X148969858Y-99398826D01*
X148946197Y-99395316D01*
X148922993Y-99389504D01*
X148900471Y-99381446D01*
X148878847Y-99371218D01*
X148858330Y-99358921D01*
X148839117Y-99344671D01*
X148821393Y-99328607D01*
X148805329Y-99310883D01*
X148791079Y-99291670D01*
X148778782Y-99271153D01*
X148768554Y-99249529D01*
X148760496Y-99227007D01*
X148754684Y-99203803D01*
X148751174Y-99180142D01*
X148750000Y-99156250D01*
X148750000Y-98243750D01*
X148751174Y-98219858D01*
X148754684Y-98196197D01*
X148760496Y-98172993D01*
X148768554Y-98150471D01*
X148778782Y-98128847D01*
X148791079Y-98108330D01*
X148805329Y-98089117D01*
X148821393Y-98071393D01*
X148839117Y-98055329D01*
X148858330Y-98041079D01*
X148878847Y-98028782D01*
X148900471Y-98018554D01*
X148922993Y-98010496D01*
X148946197Y-98004684D01*
X148969858Y-98001174D01*
X148993750Y-98000000D01*
X149481250Y-98000000D01*
X149505142Y-98001174D01*
X149505142Y-98001174D01*
G37*
D14*
X149237500Y-98700000D03*
D12*
G36*
X147630142Y-98001174D02*
G01*
X147653803Y-98004684D01*
X147677007Y-98010496D01*
X147699529Y-98018554D01*
X147721153Y-98028782D01*
X147741670Y-98041079D01*
X147760883Y-98055329D01*
X147778607Y-98071393D01*
X147794671Y-98089117D01*
X147808921Y-98108330D01*
X147821218Y-98128847D01*
X147831446Y-98150471D01*
X147839504Y-98172993D01*
X147845316Y-98196197D01*
X147848826Y-98219858D01*
X147850000Y-98243750D01*
X147850000Y-99156250D01*
X147848826Y-99180142D01*
X147845316Y-99203803D01*
X147839504Y-99227007D01*
X147831446Y-99249529D01*
X147821218Y-99271153D01*
X147808921Y-99291670D01*
X147794671Y-99310883D01*
X147778607Y-99328607D01*
X147760883Y-99344671D01*
X147741670Y-99358921D01*
X147721153Y-99371218D01*
X147699529Y-99381446D01*
X147677007Y-99389504D01*
X147653803Y-99395316D01*
X147630142Y-99398826D01*
X147606250Y-99400000D01*
X147118750Y-99400000D01*
X147094858Y-99398826D01*
X147071197Y-99395316D01*
X147047993Y-99389504D01*
X147025471Y-99381446D01*
X147003847Y-99371218D01*
X146983330Y-99358921D01*
X146964117Y-99344671D01*
X146946393Y-99328607D01*
X146930329Y-99310883D01*
X146916079Y-99291670D01*
X146903782Y-99271153D01*
X146893554Y-99249529D01*
X146885496Y-99227007D01*
X146879684Y-99203803D01*
X146876174Y-99180142D01*
X146875000Y-99156250D01*
X146875000Y-98243750D01*
X146876174Y-98219858D01*
X146879684Y-98196197D01*
X146885496Y-98172993D01*
X146893554Y-98150471D01*
X146903782Y-98128847D01*
X146916079Y-98108330D01*
X146930329Y-98089117D01*
X146946393Y-98071393D01*
X146964117Y-98055329D01*
X146983330Y-98041079D01*
X147003847Y-98028782D01*
X147025471Y-98018554D01*
X147047993Y-98010496D01*
X147071197Y-98004684D01*
X147094858Y-98001174D01*
X147118750Y-98000000D01*
X147606250Y-98000000D01*
X147630142Y-98001174D01*
X147630142Y-98001174D01*
G37*
D14*
X147362500Y-98700000D03*
D12*
G36*
X170180142Y-96151174D02*
G01*
X170203803Y-96154684D01*
X170227007Y-96160496D01*
X170249529Y-96168554D01*
X170271153Y-96178782D01*
X170291670Y-96191079D01*
X170310883Y-96205329D01*
X170328607Y-96221393D01*
X170344671Y-96239117D01*
X170358921Y-96258330D01*
X170371218Y-96278847D01*
X170381446Y-96300471D01*
X170389504Y-96322993D01*
X170395316Y-96346197D01*
X170398826Y-96369858D01*
X170400000Y-96393750D01*
X170400000Y-96881250D01*
X170398826Y-96905142D01*
X170395316Y-96928803D01*
X170389504Y-96952007D01*
X170381446Y-96974529D01*
X170371218Y-96996153D01*
X170358921Y-97016670D01*
X170344671Y-97035883D01*
X170328607Y-97053607D01*
X170310883Y-97069671D01*
X170291670Y-97083921D01*
X170271153Y-97096218D01*
X170249529Y-97106446D01*
X170227007Y-97114504D01*
X170203803Y-97120316D01*
X170180142Y-97123826D01*
X170156250Y-97125000D01*
X169243750Y-97125000D01*
X169219858Y-97123826D01*
X169196197Y-97120316D01*
X169172993Y-97114504D01*
X169150471Y-97106446D01*
X169128847Y-97096218D01*
X169108330Y-97083921D01*
X169089117Y-97069671D01*
X169071393Y-97053607D01*
X169055329Y-97035883D01*
X169041079Y-97016670D01*
X169028782Y-96996153D01*
X169018554Y-96974529D01*
X169010496Y-96952007D01*
X169004684Y-96928803D01*
X169001174Y-96905142D01*
X169000000Y-96881250D01*
X169000000Y-96393750D01*
X169001174Y-96369858D01*
X169004684Y-96346197D01*
X169010496Y-96322993D01*
X169018554Y-96300471D01*
X169028782Y-96278847D01*
X169041079Y-96258330D01*
X169055329Y-96239117D01*
X169071393Y-96221393D01*
X169089117Y-96205329D01*
X169108330Y-96191079D01*
X169128847Y-96178782D01*
X169150471Y-96168554D01*
X169172993Y-96160496D01*
X169196197Y-96154684D01*
X169219858Y-96151174D01*
X169243750Y-96150000D01*
X170156250Y-96150000D01*
X170180142Y-96151174D01*
X170180142Y-96151174D01*
G37*
D14*
X169700000Y-96637500D03*
D12*
G36*
X170180142Y-94276174D02*
G01*
X170203803Y-94279684D01*
X170227007Y-94285496D01*
X170249529Y-94293554D01*
X170271153Y-94303782D01*
X170291670Y-94316079D01*
X170310883Y-94330329D01*
X170328607Y-94346393D01*
X170344671Y-94364117D01*
X170358921Y-94383330D01*
X170371218Y-94403847D01*
X170381446Y-94425471D01*
X170389504Y-94447993D01*
X170395316Y-94471197D01*
X170398826Y-94494858D01*
X170400000Y-94518750D01*
X170400000Y-95006250D01*
X170398826Y-95030142D01*
X170395316Y-95053803D01*
X170389504Y-95077007D01*
X170381446Y-95099529D01*
X170371218Y-95121153D01*
X170358921Y-95141670D01*
X170344671Y-95160883D01*
X170328607Y-95178607D01*
X170310883Y-95194671D01*
X170291670Y-95208921D01*
X170271153Y-95221218D01*
X170249529Y-95231446D01*
X170227007Y-95239504D01*
X170203803Y-95245316D01*
X170180142Y-95248826D01*
X170156250Y-95250000D01*
X169243750Y-95250000D01*
X169219858Y-95248826D01*
X169196197Y-95245316D01*
X169172993Y-95239504D01*
X169150471Y-95231446D01*
X169128847Y-95221218D01*
X169108330Y-95208921D01*
X169089117Y-95194671D01*
X169071393Y-95178607D01*
X169055329Y-95160883D01*
X169041079Y-95141670D01*
X169028782Y-95121153D01*
X169018554Y-95099529D01*
X169010496Y-95077007D01*
X169004684Y-95053803D01*
X169001174Y-95030142D01*
X169000000Y-95006250D01*
X169000000Y-94518750D01*
X169001174Y-94494858D01*
X169004684Y-94471197D01*
X169010496Y-94447993D01*
X169018554Y-94425471D01*
X169028782Y-94403847D01*
X169041079Y-94383330D01*
X169055329Y-94364117D01*
X169071393Y-94346393D01*
X169089117Y-94330329D01*
X169108330Y-94316079D01*
X169128847Y-94303782D01*
X169150471Y-94293554D01*
X169172993Y-94285496D01*
X169196197Y-94279684D01*
X169219858Y-94276174D01*
X169243750Y-94275000D01*
X170156250Y-94275000D01*
X170180142Y-94276174D01*
X170180142Y-94276174D01*
G37*
D14*
X169700000Y-94762500D03*
D19*
X159600000Y-85216000D03*
X160489000Y-83184000D03*
X158711000Y-83184000D03*
X164200000Y-81516000D03*
X165089000Y-79484000D03*
X163311000Y-79484000D03*
X166800000Y-92216000D03*
X167689000Y-90184000D03*
X165911000Y-90184000D03*
X166800000Y-97016000D03*
X167689000Y-94984000D03*
X165911000Y-94984000D03*
D21*
X165650000Y-73545000D03*
X165650000Y-75450000D03*
X163110000Y-74497500D03*
X165650000Y-74497500D03*
X163110000Y-75450000D03*
X163110000Y-73545000D03*
D22*
X107750000Y-91350000D03*
X107750000Y-93650000D03*
X105850000Y-93650000D03*
X105850000Y-91350000D03*
D21*
X136070000Y-99652500D03*
X133530000Y-98700000D03*
X136070000Y-97747500D03*
X133530000Y-99652500D03*
X133530000Y-97747500D03*
D23*
X115684000Y-94400000D03*
X116192000Y-94400000D03*
X116700000Y-94400000D03*
X117208000Y-94400000D03*
X117716000Y-94400000D03*
X117700000Y-99100000D03*
X117200000Y-99100000D03*
X116700000Y-99100000D03*
X116200000Y-99100000D03*
X115700000Y-99100000D03*
D21*
X160600000Y-96950000D03*
X160600000Y-98855000D03*
X158060000Y-97902500D03*
X160600000Y-97902500D03*
X158060000Y-98855000D03*
X158060000Y-96950000D03*
M02*
