M48
;DRILL file {KiCad 5.0.2-bee76a0~70~ubuntu18.04.1} date Sun 02 Dec 2018 06:46:26 PM PST
;FORMAT={-:-/ absolute / inch / decimal}
FMAT,2
INCH,TZ
T1C0.0079
T2C0.0157
T3C0.0197
T4C0.0315
T5C0.0354
T6C0.0394
T7C0.0787
T8C0.1260
%
G90
G05
T1
X4.2717Y-2.0394
X4.2717Y-2.1181
X4.2913Y-2.
X4.2913Y-2.0787
X4.2913Y-2.1575
X4.311Y-2.0394
X4.311Y-2.1181
X4.5079Y-2.0394
X4.5079Y-2.1181
X4.5276Y-2.
X4.5276Y-2.0787
X4.5276Y-2.1575
X4.5472Y-2.0394
X4.5472Y-2.1181
T2
X4.0433Y-3.4646
X4.0433Y-3.5039
X4.0433Y-3.5433
X4.0433Y-3.5827
X4.0433Y-3.622
X4.0433Y-3.6614
X4.0433Y-3.7008
X4.0433Y-3.7402
X4.0433Y-3.7795
X4.0433Y-3.8189
X4.063Y-3.2362
X4.0827Y-3.4646
X4.0827Y-3.5039
X4.0827Y-3.5433
X4.0827Y-3.5827
X4.0827Y-3.622
X4.0827Y-3.6614
X4.0827Y-3.7008
X4.0827Y-3.7402
X4.0827Y-3.7795
X4.0827Y-3.8189
X4.122Y-3.4646
X4.122Y-3.5039
X4.122Y-3.7795
X4.122Y-3.8189
X4.1614Y-3.4646
X4.1614Y-3.5039
X4.1614Y-3.7795
X4.1614Y-3.8189
X4.2008Y-3.4646
X4.2008Y-3.5039
X4.2008Y-3.7795
X4.2008Y-3.8189
X4.2205Y-3.2402
X4.2402Y-3.4646
X4.2402Y-3.5039
X4.2402Y-3.5354
X4.2402Y-3.7795
X4.2402Y-3.8189
X4.2795Y-3.4646
X4.2795Y-3.5039
X4.2795Y-3.7795
X4.2795Y-3.8189
X4.3189Y-3.4646
X4.3189Y-3.5039
X4.3189Y-3.5433
X4.3189Y-3.5827
X4.3189Y-3.622
X4.3189Y-3.6614
X4.3189Y-3.7402
X4.3189Y-3.7795
X4.3189Y-3.8189
X4.3583Y-3.4646
X4.3583Y-3.5039
X4.3583Y-3.5433
X4.3583Y-3.5827
X4.3583Y-3.622
X4.3583Y-3.6614
X4.3583Y-3.7402
X4.3583Y-3.7795
X4.3583Y-3.8189
X4.3819Y-3.8858
X4.3976Y-3.5433
X4.3976Y-3.5827
X4.3976Y-3.622
X4.3976Y-3.6614
X4.4094Y-2.2126
X4.437Y-3.5433
X4.437Y-3.5827
X4.437Y-3.622
X4.437Y-3.6614
X4.4764Y-3.5433
X4.4764Y-3.5827
X4.4764Y-3.622
X4.4764Y-3.6614
X4.5157Y-3.5827
X4.5157Y-3.622
X4.5157Y-3.6614
X4.5551Y-3.622
X4.6575Y-3.9567
X4.6575Y-3.9921
X4.6614Y-3.7165
X4.6693Y-3.8071
X4.6929Y-3.6772
X4.6929Y-3.7165
X4.7323Y-3.7165
X4.7717Y-3.6772
X4.7874Y-3.7677
X4.811Y-3.6772
X4.811Y-3.7165
X4.8268Y-2.8819
X4.8937Y-3.6772
X4.8937Y-3.7165
X4.8937Y-3.7559
X4.8937Y-3.7953
X4.8937Y-3.8858
X4.9331Y-3.6772
X4.9331Y-3.7165
X4.9331Y-3.7559
X4.9331Y-3.7953
X4.9331Y-3.8386
X4.9331Y-3.9252
X4.9724Y-3.6772
X4.9724Y-3.7165
X4.9724Y-3.7559
X4.9724Y-3.7953
X4.9724Y-3.8386
X4.9724Y-3.9252
X4.9764Y-2.3071
X5.0118Y-2.2756
X5.2756Y-2.3425
X5.374Y-2.3425
X5.4055Y-3.8465
X5.6299Y-2.8819
X5.6339Y-3.624
X5.6339Y-3.6614
X5.6339Y-3.7008
X5.6339Y-3.7402
X5.6339Y-3.7795
X5.6339Y-3.8189
X5.6732Y-3.624
X5.6732Y-3.6614
X5.6732Y-3.7008
X5.6732Y-3.7402
X5.6732Y-3.7795
X5.6732Y-3.8189
X5.8504Y-3.4449
X5.8858Y-2.5748
X5.8858Y-3.6614
X5.8858Y-3.7008
X5.8858Y-3.7402
X5.8862Y-3.624
X6.0351Y-2.251
X6.0472Y-3.1811
X6.063Y-3.311
X6.0745Y-2.251
X6.1063Y-2.5394
X6.126Y-4.0157
X6.1969Y-3.5276
X6.2188Y-3.9275
X6.3465Y-3.2205
X6.3722Y-3.8963
X6.3727Y-3.855
X6.5118Y-3.2226
X6.5157Y-4.7283
X6.5197Y-3.8228
X6.5266Y-3.6401
X6.5315Y-3.5079
X6.6059Y-3.5114
X6.6142Y-3.6929
X6.6181Y-3.2992
X6.626Y-2.6299
X6.6299Y-3.2559
X6.7346Y-3.7969
X6.752Y-4.4409
X6.8307Y-3.937
X6.8504Y-3.7874
X6.8819Y-3.8819
X7.1102Y-4.0433
X7.376Y-3.3071
X7.378Y-3.4528
X7.3976Y-2.9055
T3
X7.622Y-4.9606
X7.6497Y-4.8938
X7.6497Y-5.0274
X7.7165Y-4.8661
X7.7165Y-5.0551
X7.7833Y-4.8938
X7.7833Y-5.0274
X7.811Y-4.9606
X7.622Y-2.126
X7.6497Y-2.0592
X7.6497Y-2.1928
X7.7165Y-2.0315
X7.7165Y-2.2205
X7.7833Y-2.0592
X7.7833Y-2.1928
X7.811Y-2.126
X4.Y-4.9606
X4.0277Y-4.8938
X4.0277Y-5.0274
X4.0945Y-4.8661
X4.0945Y-5.0551
X4.1613Y-4.8938
X4.1613Y-5.0274
X4.189Y-4.9606
X4.Y-4.0157
X4.0277Y-3.9489
X4.0277Y-4.0826
X4.0945Y-3.9213
X4.0945Y-4.1102
X4.1613Y-3.9489
X4.1613Y-4.0826
X4.189Y-4.0157
X4.Y-2.126
X4.0277Y-2.0592
X4.0277Y-2.1928
X4.0945Y-2.0315
X4.0945Y-2.2205
X4.1613Y-2.0592
X4.1613Y-2.1928
X4.189Y-2.126
X7.622Y-4.0157
X7.6497Y-3.9489
X7.6497Y-4.0826
X7.7165Y-3.9213
X7.7165Y-4.1102
X7.7833Y-3.9489
X7.7833Y-4.0826
X7.811Y-4.0157
T4
X6.3386Y-3.6693
X5.2559Y-3.6457
X5.3701Y-3.6457
X4.1339Y-2.5118
X5.9567Y-3.8858
X6.0512Y-3.6693
T5
X6.3409Y-2.4803
X6.4409Y-2.4803
T6
X7.7579Y-2.4724
X7.7579Y-2.5724
X7.7579Y-2.6724
X7.7579Y-2.7724
X7.7579Y-2.8724
X7.7579Y-2.9724
X6.1713Y-4.439
X6.1713Y-4.6161
X6.4272Y-4.439
X6.4272Y-4.6161
X4.5551Y-2.3551
X4.5551Y-2.4551
X4.5551Y-2.5551
X4.5551Y-2.6551
X4.5551Y-2.7551
X5.7362Y-2.4051
X5.7362Y-2.5051
X5.7362Y-2.6051
X5.7362Y-2.7051
X5.0898Y-4.6358
X5.0898Y-4.813
X5.3457Y-4.6358
X5.3457Y-4.813
X5.6724Y-2.1063
X5.7724Y-2.1063
X5.8724Y-2.1063
X5.9724Y-2.1063
X4.5551Y-3.0106
X4.5551Y-3.1106
X4.5551Y-3.2106
X4.5551Y-3.3106
X4.5551Y-3.4106
X5.7362Y-3.0606
X5.7362Y-3.1606
X5.7362Y-3.2606
X5.7362Y-3.3606
X4.4409Y-4.1374
X4.4409Y-4.2374
X4.4409Y-4.3374
X4.4409Y-4.4374
X4.6724Y-2.1063
X4.7724Y-2.1063
X4.8724Y-2.1063
X4.9724Y-2.1063
X6.9587Y-4.439
X6.9587Y-4.6161
X7.2146Y-4.439
X7.2146Y-4.6161
X6.9252Y-2.3055
X6.9252Y-2.4055
X6.9252Y-2.5055
X6.9252Y-2.6055
X6.9252Y-2.7055
X6.9252Y-2.8055
X6.9252Y-2.9055
X6.9252Y-3.0055
X6.9252Y-3.1055
X6.9252Y-3.2055
X6.9252Y-3.3055
X6.9252Y-3.4055
X6.9252Y-3.5055
X6.9252Y-3.6055
X6.9252Y-3.7055
X7.1244Y-3.7055
X7.2244Y-3.7055
X7.3244Y-3.7055
X7.5236Y-2.3055
X7.5236Y-2.4055
X7.5236Y-2.5055
X7.5236Y-2.6055
X7.5236Y-2.7055
X7.5236Y-2.8055
X7.5236Y-2.9055
X7.5236Y-3.0055
X7.5236Y-3.1055
X7.5236Y-3.2055
X7.5236Y-3.3055
X7.5236Y-3.4055
X7.5236Y-3.5055
X7.5236Y-3.6055
X7.5236Y-3.7055
X6.565Y-4.8327
X6.565Y-5.0098
X6.8209Y-4.8327
X6.8209Y-5.0098
X4.563Y-4.6358
X4.563Y-4.813
X4.8189Y-4.6358
X4.8189Y-4.813
X6.565Y-4.0453
X6.565Y-4.2224
X6.8209Y-4.0453
X6.8209Y-4.2224
X5.9469Y-2.6772
X5.9469Y-2.7772
X5.9469Y-3.0772
X6.1469Y-2.6772
X6.1469Y-2.7772
X6.1469Y-3.0772
X5.1724Y-2.1063
X5.2724Y-2.1063
X5.3724Y-2.1063
X5.4724Y-2.1063
X5.6161Y-4.6358
X5.6161Y-4.813
X5.872Y-4.6358
X5.872Y-4.813
X4.1378Y-2.6772
X4.1378Y-2.7772
X4.1378Y-3.0772
X4.3378Y-2.6772
X4.3378Y-2.7772
X4.3378Y-3.0772
T7
X6.2409Y-2.2803
X6.6409Y-2.2803
T8
X7.7165Y-4.9606
X7.7165Y-2.126
X4.0945Y-4.9606
X4.0945Y-4.0157
X4.0945Y-2.126
X7.7165Y-4.0157
T0
M30
